<?xml version="1.0" encoding="UTF-8"?>
<svg xmlns="http://www.w3.org/2000/svg" xmlns:xlink="http://www.w3.org/1999/xlink" width="48px" height="48px" viewBox="0 0 48 48" version="1.1">
<defs>
<clipPath id="clip1">
  <path d="M 14.101562 14.101562 L 33.902344 14.101562 L 33.902344 33.902344 L 14.101562 33.902344 Z M 14.101562 14.101562 "/>
</clipPath>
<clipPath id="clip2">
  <path d="M 21 17.070312 L 27 17.070312 L 27 30.929688 L 21 30.929688 Z M 21 17.070312 "/>
</clipPath>
<clipPath id="clip3">
  <path d="M 19 7.199219 L 21 7.199219 L 21 11 L 19 11 Z M 19 7.199219 "/>
</clipPath>
<clipPath id="clip4">
  <path d="M 23 7.199219 L 26 7.199219 L 26 12 L 23 12 Z M 23 7.199219 "/>
</clipPath>
<clipPath id="clip5">
  <path d="M 23 36 L 26 36 L 26 40.800781 L 23 40.800781 Z M 23 36 "/>
</clipPath>
</defs>
<g id="surface1">
<rect x="0" y="0" width="48" height="48" style="fill:rgb(100%,100%,100%);fill-opacity:1;stroke:none;"/>
<g clip-path="url(#clip1)" clip-rule="nonzero">
<path style=" stroke:none;fill-rule:nonzero;fill:rgb(0%,0%,0%);fill-opacity:1;" d="M 33.839844 24 C 33.839844 29.433594 29.433594 33.839844 24 33.839844 C 18.566406 33.839844 14.160156 29.433594 14.160156 24 C 14.160156 18.566406 18.566406 14.160156 24 14.160156 C 29.433594 14.160156 33.839844 18.566406 33.839844 24 Z M 33.839844 24 "/>
</g>
<g clip-path="url(#clip2)" clip-rule="nonzero">
<path style=" stroke:none;fill-rule:nonzero;fill:rgb(100%,100%,100%);fill-opacity:1;" d="M 22.71875 25.753906 L 25.277344 25.753906 C 25.058594 26.070312 24.800781 26.316406 24.566406 26.5 C 24.164062 26.808594 23.816406 26.941406 23.808594 26.945312 C 23.785156 26.953125 23.621094 27.015625 23.386719 27.144531 C 23.382812 27.144531 23.382812 27.144531 23.382812 27.144531 C 23.121094 27.285156 22.773438 27.503906 22.429688 27.824219 C 21.753906 28.445312 21.082031 29.4375 21.082031 30.929688 L 22.191406 30.929688 C 22.191406 30.832031 22.195312 30.738281 22.203125 30.648438 L 25.796875 30.648438 C 25.804688 30.738281 25.808594 30.832031 25.808594 30.929688 L 26.917969 30.929688 C 26.917969 29.4375 26.25 28.445312 25.574219 27.824219 C 25.308594 28.027344 25.0625 28.175781 24.882812 28.273438 L 24.851562 28.289062 C 24.738281 28.347656 24.644531 28.394531 24.566406 28.429688 C 24.808594 28.613281 25.070312 28.863281 25.292969 29.1875 L 22.707031 29.1875 C 22.929688 28.863281 23.191406 28.613281 23.433594 28.429688 C 23.820312 28.132812 24.160156 27.996094 24.191406 27.984375 C 24.21875 27.976562 24.382812 27.914062 24.613281 27.789062 C 24.617188 27.785156 24.617188 27.785156 24.617188 27.785156 C 24.878906 27.644531 25.226562 27.425781 25.570312 27.105469 C 26.246094 26.484375 26.917969 25.496094 26.917969 24 C 26.917969 22.507812 26.25 21.515625 25.570312 20.894531 C 25.15625 21.210938 24.78125 21.402344 24.566406 21.5 C 24.808594 21.683594 25.070312 21.933594 25.292969 22.257812 L 22.710938 22.257812 C 22.964844 21.882812 23.273438 21.605469 23.546875 21.414062 C 23.6875 21.316406 23.816406 21.238281 23.925781 21.183594 L 24.296875 21.011719 C 24.488281 20.929688 24.914062 20.722656 25.371094 20.351562 C 26.109375 19.746094 26.917969 18.710938 26.917969 17.070312 L 25.808594 17.070312 C 25.808594 17.171875 25.800781 17.269531 25.792969 17.363281 L 22.207031 17.363281 C 22.195312 17.269531 22.191406 17.171875 22.191406 17.070312 L 21.082031 17.070312 C 21.082031 18.5625 21.75 19.554688 22.429688 20.175781 C 22.84375 19.863281 23.21875 19.667969 23.433594 19.570312 C 23.195312 19.390625 22.9375 19.144531 22.71875 18.824219 L 25.277344 18.824219 C 24.703125 19.664062 23.859375 19.996094 23.808594 20.015625 C 23.699219 20.054688 21.082031 21.046875 21.082031 24 C 21.082031 25.492188 21.75 26.484375 22.425781 27.105469 C 22.644531 26.9375 22.875 26.789062 23.121094 26.65625 C 23.246094 26.589844 23.351562 26.539062 23.433594 26.5 C 23.195312 26.320312 22.9375 26.074219 22.71875 25.753906 Z M 25.726562 17.808594 C 25.679688 18.015625 25.613281 18.207031 25.53125 18.382812 L 22.46875 18.382812 C 22.386719 18.207031 22.320312 18.015625 22.273438 17.808594 Z M 22.269531 30.207031 C 22.316406 29.996094 22.382812 29.804688 22.460938 29.632812 L 25.539062 29.632812 C 25.617188 29.804688 25.683594 29.996094 25.730469 30.207031 Z M 25.792969 24.292969 L 22.203125 24.292969 C 22.195312 24.199219 22.191406 24.101562 22.191406 24 C 22.191406 23.902344 22.195312 23.8125 22.203125 23.71875 L 25.796875 23.71875 C 25.804688 23.808594 25.808594 23.902344 25.808594 24 C 25.808594 24.101562 25.804688 24.199219 25.792969 24.292969 Z M 25.539062 22.703125 C 25.617188 22.875 25.683594 23.066406 25.730469 23.277344 L 22.269531 23.277344 C 22.316406 23.066406 22.382812 22.875 22.460938 22.703125 Z M 22.46875 25.3125 C 22.386719 25.136719 22.320312 24.945312 22.273438 24.738281 L 25.726562 24.738281 C 25.679688 24.945312 25.609375 25.136719 25.53125 25.3125 Z M 22.46875 25.3125 "/>
</g>
<path style=" stroke:none;fill-rule:nonzero;fill:rgb(0%,0%,0%);fill-opacity:1;" d="M 11.769531 18.683594 C 11.769531 18.6875 11.769531 18.695312 11.769531 18.699219 C 11.765625 18.703125 11.761719 18.714844 11.753906 18.730469 C 11.742188 18.765625 11.71875 18.800781 11.6875 18.84375 C 11.660156 18.882812 11.628906 18.921875 11.59375 18.960938 C 11.558594 18.996094 11.527344 19.027344 11.492188 19.046875 C 11.460938 19.070312 11.4375 19.082031 11.417969 19.085938 C 11.382812 19.074219 11.347656 19.058594 11.308594 19.042969 C 11.273438 19.027344 11.238281 19.015625 11.203125 19 C 10.925781 18.886719 10.644531 18.746094 10.363281 18.582031 C 10.078125 18.417969 9.78125 18.21875 9.46875 17.980469 C 9.4375 17.957031 9.398438 17.925781 9.351562 17.894531 C 9.300781 17.859375 9.25 17.824219 9.191406 17.789062 C 9.214844 17.867188 9.261719 17.96875 9.332031 18.089844 C 9.398438 18.214844 9.484375 18.351562 9.585938 18.496094 C 9.6875 18.644531 9.804688 18.796875 9.933594 18.957031 C 10.0625 19.113281 10.199219 19.265625 10.339844 19.410156 C 10.480469 19.554688 10.625 19.6875 10.769531 19.808594 C 10.914062 19.933594 11.058594 20.027344 11.195312 20.101562 C 11.113281 20.203125 11.042969 20.273438 10.992188 20.304688 C 10.9375 20.335938 10.886719 20.339844 10.835938 20.320312 C 10.792969 20.300781 10.734375 20.261719 10.664062 20.203125 C 10.59375 20.140625 10.515625 20.0625 10.421875 19.96875 C 10.332031 19.875 10.234375 19.761719 10.125 19.632812 C 10.019531 19.507812 9.90625 19.367188 9.78125 19.214844 C 9.640625 19.042969 9.511719 18.875 9.394531 18.714844 C 9.277344 18.558594 9.171875 18.40625 9.078125 18.261719 C 8.988281 18.117188 8.914062 17.980469 8.859375 17.855469 C 8.800781 17.730469 8.765625 17.613281 8.75 17.507812 C 8.765625 17.472656 8.792969 17.429688 8.832031 17.378906 C 8.875 17.328125 8.917969 17.28125 8.964844 17.234375 C 9.011719 17.1875 9.058594 17.148438 9.101562 17.117188 C 9.148438 17.085938 9.179688 17.070312 9.199219 17.070312 C 9.253906 17.132812 9.339844 17.21875 9.457031 17.320312 C 9.578125 17.425781 9.714844 17.539062 9.867188 17.65625 C 10.023438 17.777344 10.191406 17.898438 10.367188 18.023438 C 10.546875 18.148438 10.722656 18.257812 10.890625 18.355469 C 10.78125 18.246094 10.664062 18.121094 10.550781 17.984375 C 10.433594 17.851562 10.320312 17.710938 10.210938 17.566406 C 10.101562 17.421875 9.996094 17.28125 9.898438 17.136719 C 9.796875 16.992188 9.710938 16.855469 9.632812 16.726562 C 9.554688 16.597656 9.488281 16.480469 9.433594 16.371094 C 9.378906 16.261719 9.34375 16.171875 9.328125 16.101562 C 9.34375 16.066406 9.371094 16.023438 9.410156 15.972656 C 9.453125 15.921875 9.496094 15.875 9.542969 15.828125 C 9.589844 15.78125 9.636719 15.742188 9.679688 15.710938 C 9.726562 15.679688 9.757812 15.664062 9.777344 15.667969 C 9.882812 15.804688 10.027344 15.941406 10.203125 16.085938 C 10.382812 16.226562 10.574219 16.363281 10.777344 16.496094 C 10.984375 16.628906 11.191406 16.75 11.402344 16.859375 C 11.609375 16.972656 11.800781 17.0625 11.972656 17.132812 C 12.03125 17.15625 12.089844 17.179688 12.152344 17.207031 C 12.214844 17.230469 12.277344 17.253906 12.347656 17.277344 C 12.332031 17.3125 12.3125 17.351562 12.285156 17.398438 C 12.253906 17.441406 12.222656 17.484375 12.191406 17.523438 C 12.15625 17.5625 12.125 17.597656 12.089844 17.625 C 12.054688 17.65625 12.023438 17.671875 11.996094 17.679688 C 11.960938 17.667969 11.925781 17.652344 11.886719 17.636719 C 11.851562 17.621094 11.816406 17.609375 11.78125 17.59375 C 11.503906 17.480469 11.226562 17.339844 10.941406 17.175781 C 10.65625 17.011719 10.359375 16.8125 10.046875 16.574219 C 10.015625 16.550781 9.972656 16.519531 9.921875 16.480469 C 9.867188 16.445312 9.808594 16.410156 9.75 16.371094 C 9.753906 16.453125 9.789062 16.558594 9.851562 16.6875 C 9.914062 16.8125 9.996094 16.949219 10.097656 17.097656 C 10.199219 17.246094 10.316406 17.398438 10.449219 17.554688 C 10.585938 17.710938 10.726562 17.863281 10.875 18.007812 C 11.023438 18.148438 11.171875 18.28125 11.328125 18.398438 C 11.480469 18.519531 11.628906 18.613281 11.769531 18.683594 Z M 11.769531 18.683594 "/>
<path style=" stroke:none;fill-rule:nonzero;fill:rgb(0%,0%,0%);fill-opacity:1;" d="M 12.617188 16.316406 C 12.617188 16.167969 12.597656 16.011719 12.554688 15.839844 C 12.515625 15.671875 12.457031 15.503906 12.386719 15.339844 C 12.316406 15.175781 12.230469 15.023438 12.132812 14.875 C 12.035156 14.730469 11.929688 14.605469 11.820312 14.5 C 11.792969 14.480469 11.765625 14.484375 11.738281 14.507812 C 11.71875 14.539062 11.714844 14.601562 11.734375 14.691406 C 11.75 14.78125 11.78125 14.886719 11.820312 15.007812 C 11.859375 15.132812 11.910156 15.261719 11.96875 15.398438 C 12.027344 15.535156 12.089844 15.667969 12.152344 15.792969 C 12.21875 15.917969 12.285156 16.027344 12.347656 16.128906 C 12.410156 16.226562 12.46875 16.296875 12.523438 16.339844 C 12.507812 16.359375 12.472656 16.363281 12.417969 16.351562 C 12.402344 16.347656 12.386719 16.347656 12.367188 16.347656 C 12.347656 16.351562 12.320312 16.359375 12.285156 16.371094 C 12.269531 16.378906 12.25 16.382812 12.230469 16.382812 C 12.210938 16.386719 12.195312 16.386719 12.183594 16.386719 C 12.160156 16.382812 12.128906 16.367188 12.089844 16.34375 C 11.957031 16.253906 11.824219 16.136719 11.683594 15.996094 C 11.539062 15.851562 11.402344 15.695312 11.269531 15.527344 C 11.136719 15.355469 11.011719 15.179688 10.894531 14.996094 C 10.78125 14.8125 10.679688 14.632812 10.597656 14.464844 C 10.511719 14.292969 10.449219 14.136719 10.40625 13.992188 C 10.367188 13.847656 10.355469 13.730469 10.371094 13.636719 C 10.394531 13.621094 10.421875 13.601562 10.457031 13.582031 C 10.496094 13.558594 10.53125 13.542969 10.574219 13.523438 C 10.613281 13.507812 10.652344 13.492188 10.691406 13.476562 C 10.730469 13.460938 10.761719 13.453125 10.785156 13.449219 C 10.820312 13.828125 10.929688 14.207031 11.117188 14.59375 C 11.308594 14.980469 11.574219 15.371094 11.917969 15.765625 C 11.84375 15.628906 11.78125 15.484375 11.726562 15.332031 C 11.671875 15.183594 11.628906 15.042969 11.597656 14.910156 C 11.566406 14.78125 11.550781 14.664062 11.546875 14.5625 C 11.546875 14.457031 11.5625 14.382812 11.59375 14.335938 C 11.625 14.308594 11.664062 14.285156 11.707031 14.265625 C 11.753906 14.246094 11.800781 14.238281 11.851562 14.230469 C 11.902344 14.226562 11.949219 14.226562 12 14.234375 C 12.046875 14.242188 12.09375 14.253906 12.136719 14.277344 C 12.226562 14.34375 12.3125 14.425781 12.398438 14.527344 C 12.484375 14.628906 12.5625 14.738281 12.628906 14.855469 C 12.695312 14.972656 12.757812 15.09375 12.808594 15.222656 C 12.855469 15.347656 12.894531 15.46875 12.914062 15.585938 C 12.9375 15.699219 12.949219 15.808594 12.941406 15.90625 C 12.9375 16.003906 12.914062 16.082031 12.871094 16.144531 C 12.855469 16.171875 12.832031 16.199219 12.808594 16.222656 C 12.785156 16.246094 12.761719 16.265625 12.734375 16.28125 C 12.710938 16.296875 12.6875 16.308594 12.664062 16.316406 C 12.644531 16.324219 12.628906 16.324219 12.617188 16.316406 Z M 12.617188 16.316406 "/>
<path style=" stroke:none;fill-rule:nonzero;fill:rgb(0%,0%,0%);fill-opacity:1;" d="M 15.199219 10.558594 C 15.304688 10.683594 15.363281 10.824219 15.378906 10.984375 C 15.390625 11.140625 15.367188 11.300781 15.300781 11.46875 C 15.421875 11.457031 15.539062 11.46875 15.648438 11.507812 C 15.757812 11.546875 15.851562 11.609375 15.929688 11.703125 C 16.019531 11.8125 16.078125 11.949219 16.101562 12.113281 C 16.125 12.277344 16.117188 12.445312 16.078125 12.621094 C 16.039062 12.796875 15.96875 12.96875 15.871094 13.136719 C 15.773438 13.304688 15.648438 13.453125 15.503906 13.574219 C 15.34375 13.710938 15.179688 13.796875 15.007812 13.835938 C 14.835938 13.878906 14.671875 13.871094 14.511719 13.816406 C 14.480469 13.738281 14.445312 13.640625 14.402344 13.519531 C 14.359375 13.402344 14.316406 13.273438 14.273438 13.136719 C 14.230469 13.003906 14.1875 12.867188 14.144531 12.734375 C 14.101562 12.597656 14.066406 12.472656 14.035156 12.363281 C 13.964844 12.125 13.914062 11.921875 13.878906 11.757812 C 13.847656 11.589844 13.824219 11.453125 13.820312 11.34375 C 13.738281 11.472656 13.667969 11.597656 13.613281 11.71875 C 13.558594 11.839844 13.527344 11.9375 13.515625 12.015625 C 13.488281 12.019531 13.453125 12.015625 13.414062 12.007812 C 13.375 12 13.332031 11.988281 13.292969 11.972656 C 13.25 11.957031 13.210938 11.9375 13.171875 11.917969 C 13.136719 11.898438 13.105469 11.875 13.082031 11.851562 C 13.105469 11.769531 13.144531 11.679688 13.199219 11.574219 C 13.257812 11.46875 13.324219 11.363281 13.40625 11.253906 C 13.484375 11.144531 13.570312 11.039062 13.664062 10.9375 C 13.757812 10.832031 13.851562 10.742188 13.949219 10.660156 C 14.191406 10.457031 14.425781 10.34375 14.648438 10.324219 C 14.867188 10.304688 15.050781 10.382812 15.199219 10.558594 Z M 14.644531 12.269531 C 14.589844 12.285156 14.53125 12.285156 14.46875 12.277344 C 14.507812 12.421875 14.550781 12.558594 14.59375 12.695312 C 14.632812 12.828125 14.675781 12.953125 14.714844 13.066406 C 14.753906 13.179688 14.789062 13.277344 14.820312 13.359375 C 14.855469 13.4375 14.882812 13.492188 14.90625 13.523438 C 14.945312 13.515625 14.992188 13.5 15.039062 13.472656 C 15.085938 13.449219 15.136719 13.414062 15.195312 13.363281 C 15.335938 13.246094 15.453125 13.113281 15.546875 12.96875 C 15.640625 12.824219 15.707031 12.679688 15.746094 12.53125 C 15.789062 12.386719 15.800781 12.246094 15.785156 12.109375 C 15.769531 11.976562 15.722656 11.863281 15.644531 11.769531 C 15.53125 11.632812 15.394531 11.585938 15.226562 11.625 C 15.121094 11.824219 14.96875 12.007812 14.769531 12.175781 C 14.742188 12.199219 14.71875 12.21875 14.703125 12.230469 C 14.6875 12.242188 14.667969 12.257812 14.644531 12.269531 Z M 14.347656 10.707031 C 14.304688 10.742188 14.261719 10.785156 14.21875 10.828125 C 14.171875 10.875 14.128906 10.925781 14.085938 10.980469 C 14.097656 10.980469 14.113281 10.984375 14.125 10.988281 C 14.140625 10.992188 14.152344 11 14.164062 11.007812 C 14.167969 11.046875 14.175781 11.101562 14.1875 11.171875 C 14.199219 11.238281 14.214844 11.320312 14.234375 11.410156 C 14.253906 11.5 14.277344 11.597656 14.308594 11.703125 C 14.335938 11.808594 14.363281 11.914062 14.394531 12.027344 C 14.421875 11.988281 14.457031 11.945312 14.503906 11.898438 C 14.550781 11.851562 14.597656 11.808594 14.644531 11.765625 C 14.671875 11.746094 14.699219 11.722656 14.726562 11.703125 C 14.753906 11.683594 14.78125 11.667969 14.808594 11.652344 C 14.894531 11.550781 14.960938 11.453125 15.015625 11.355469 C 15.066406 11.257812 15.101562 11.164062 15.125 11.074219 C 15.148438 10.984375 15.152344 10.902344 15.140625 10.824219 C 15.128906 10.75 15.097656 10.679688 15.050781 10.625 C 14.96875 10.527344 14.867188 10.484375 14.746094 10.5 C 14.628906 10.515625 14.496094 10.585938 14.347656 10.707031 Z M 14.347656 10.707031 "/>
<path style=" stroke:none;fill-rule:nonzero;fill:rgb(0%,0%,0%);fill-opacity:1;" d="M 16.769531 11.929688 C 16.757812 11.910156 16.746094 11.882812 16.730469 11.847656 C 16.714844 11.816406 16.699219 11.769531 16.675781 11.710938 C 16.65625 11.65625 16.632812 11.585938 16.605469 11.503906 C 16.578125 11.417969 16.546875 11.320312 16.507812 11.203125 C 16.5 11.175781 16.488281 11.132812 16.476562 11.074219 C 16.464844 11.011719 16.453125 10.949219 16.449219 10.875 C 16.441406 10.804688 16.445312 10.730469 16.453125 10.652344 C 16.457031 10.578125 16.480469 10.515625 16.519531 10.457031 C 16.566406 10.445312 16.632812 10.4375 16.71875 10.441406 C 16.804688 10.441406 16.890625 10.460938 16.972656 10.503906 C 16.957031 10.59375 16.945312 10.679688 16.945312 10.757812 C 16.945312 10.839844 16.945312 10.921875 16.953125 11.003906 C 16.964844 11.082031 16.976562 11.164062 16.992188 11.25 C 17.007812 11.332031 17.019531 11.421875 17.035156 11.515625 C 17.046875 11.59375 17.0625 11.671875 17.078125 11.753906 C 17.097656 11.832031 17.121094 11.898438 17.148438 11.953125 C 17.171875 11.992188 17.1875 12.023438 17.195312 12.042969 C 17.207031 12.058594 17.203125 12.070312 17.191406 12.078125 C 17.183594 12.085938 17.160156 12.089844 17.125 12.09375 C 17.09375 12.097656 17.054688 12.097656 17.011719 12.089844 C 16.96875 12.082031 16.925781 12.066406 16.878906 12.042969 C 16.835938 12.019531 16.800781 11.980469 16.769531 11.929688 Z M 16.570312 10.042969 C 16.5625 10.027344 16.550781 10.007812 16.542969 9.972656 C 16.523438 9.96875 16.503906 9.957031 16.484375 9.941406 C 16.464844 9.921875 16.445312 9.902344 16.4375 9.882812 C 16.425781 9.863281 16.410156 9.832031 16.394531 9.792969 C 16.382812 9.753906 16.367188 9.710938 16.351562 9.664062 C 16.335938 9.617188 16.324219 9.566406 16.3125 9.515625 C 16.300781 9.460938 16.289062 9.414062 16.28125 9.367188 C 16.3125 9.351562 16.347656 9.339844 16.398438 9.332031 C 16.445312 9.324219 16.5 9.320312 16.554688 9.320312 C 16.609375 9.320312 16.664062 9.324219 16.714844 9.335938 C 16.765625 9.34375 16.808594 9.355469 16.84375 9.371094 C 16.832031 9.410156 16.816406 9.464844 16.800781 9.53125 C 16.785156 9.601562 16.773438 9.671875 16.761719 9.746094 C 16.75 9.816406 16.742188 9.886719 16.734375 9.949219 C 16.726562 10.011719 16.726562 10.054688 16.726562 10.078125 C 16.695312 10.089844 16.664062 10.089844 16.632812 10.082031 C 16.601562 10.074219 16.578125 10.0625 16.570312 10.042969 Z M 16.570312 10.042969 "/>
<path style=" stroke:none;fill-rule:nonzero;fill:rgb(0%,0%,0%);fill-opacity:1;" d="M 18.472656 11.515625 C 18.328125 11.5625 18.191406 11.550781 18.0625 11.480469 C 17.929688 11.410156 17.828125 11.292969 17.753906 11.128906 C 17.710938 11.03125 17.679688 10.921875 17.660156 10.804688 C 17.644531 10.6875 17.640625 10.566406 17.648438 10.445312 C 17.660156 10.320312 17.679688 10.199219 17.714844 10.078125 C 17.75 9.960938 17.792969 9.847656 17.851562 9.746094 C 17.941406 9.585938 18.042969 9.480469 18.160156 9.429688 C 18.257812 9.4375 18.371094 9.488281 18.507812 9.585938 C 18.519531 9.582031 18.527344 9.574219 18.539062 9.570312 C 18.546875 9.5625 18.558594 9.558594 18.570312 9.550781 C 18.699219 9.496094 18.816406 9.582031 18.917969 9.808594 C 18.984375 9.964844 19.027344 10.121094 19.039062 10.28125 C 19.046875 10.441406 19.035156 10.59375 18.996094 10.746094 C 18.957031 10.898438 18.894531 11.039062 18.804688 11.171875 C 18.714844 11.304688 18.605469 11.417969 18.472656 11.515625 Z M 18.144531 10.28125 C 18.128906 10.355469 18.117188 10.433594 18.113281 10.515625 C 18.105469 10.597656 18.101562 10.679688 18.105469 10.757812 C 18.109375 10.835938 18.117188 10.910156 18.128906 10.980469 C 18.144531 11.046875 18.160156 11.105469 18.183594 11.152344 C 18.207031 11.210938 18.242188 11.265625 18.285156 11.308594 C 18.328125 11.355469 18.363281 11.375 18.394531 11.371094 C 18.492188 11.296875 18.570312 11.207031 18.632812 11.101562 C 18.695312 10.992188 18.734375 10.875 18.757812 10.746094 C 18.78125 10.613281 18.78125 10.476562 18.761719 10.335938 C 18.746094 10.191406 18.703125 10.046875 18.640625 9.902344 C 18.609375 9.839844 18.585938 9.792969 18.5625 9.757812 C 18.539062 9.726562 18.511719 9.699219 18.480469 9.679688 C 18.390625 9.757812 18.316406 9.851562 18.265625 9.960938 C 18.210938 10.070312 18.171875 10.175781 18.144531 10.28125 Z M 18.144531 10.28125 "/>
<g clip-path="url(#clip3)" clip-rule="nonzero">
<path style=" stroke:none;fill-rule:nonzero;fill:rgb(0%,0%,0%);fill-opacity:1;" d="M 19.785156 10.578125 C 19.777344 10.554688 19.773438 10.527344 19.765625 10.492188 C 19.761719 10.457031 19.753906 10.40625 19.746094 10.347656 C 19.742188 10.285156 19.734375 10.210938 19.726562 10.125 C 19.71875 10.039062 19.714844 9.933594 19.703125 9.8125 C 19.703125 9.785156 19.703125 9.738281 19.703125 9.675781 C 19.707031 9.617188 19.710938 9.550781 19.722656 9.480469 C 19.734375 9.40625 19.753906 9.335938 19.777344 9.265625 C 19.804688 9.195312 19.839844 9.136719 19.894531 9.089844 C 19.9375 9.089844 20.003906 9.097656 20.089844 9.121094 C 20.171875 9.140625 20.25 9.183594 20.324219 9.242188 C 20.285156 9.324219 20.253906 9.40625 20.234375 9.484375 C 20.210938 9.5625 20.195312 9.640625 20.183594 9.722656 C 20.175781 9.804688 20.167969 9.886719 20.160156 9.96875 C 20.15625 10.054688 20.148438 10.144531 20.140625 10.238281 C 20.132812 10.320312 20.128906 10.398438 20.128906 10.480469 C 20.125 10.5625 20.132812 10.632812 20.144531 10.691406 C 20.160156 10.738281 20.167969 10.769531 20.171875 10.789062 C 20.175781 10.808594 20.171875 10.820312 20.160156 10.824219 C 20.148438 10.828125 20.128906 10.828125 20.09375 10.824219 C 20.058594 10.820312 20.023438 10.808594 19.980469 10.789062 C 19.941406 10.773438 19.902344 10.746094 19.867188 10.714844 C 19.828125 10.679688 19.800781 10.636719 19.785156 10.578125 Z M 20.039062 8.699219 C 20.035156 8.683594 20.03125 8.660156 20.027344 8.625 C 20.011719 8.617188 19.996094 8.601562 19.980469 8.578125 C 19.964844 8.554688 19.953125 8.535156 19.945312 8.511719 C 19.941406 8.492188 19.933594 8.457031 19.929688 8.417969 C 19.925781 8.375 19.921875 8.328125 19.917969 8.28125 C 19.914062 8.230469 19.910156 8.179688 19.914062 8.125 C 19.914062 8.070312 19.917969 8.019531 19.917969 7.976562 C 19.949219 7.964844 19.992188 7.964844 20.039062 7.96875 C 20.089844 7.972656 20.140625 7.980469 20.195312 7.992188 C 20.25 8.007812 20.300781 8.023438 20.347656 8.046875 C 20.394531 8.066406 20.433594 8.085938 20.464844 8.109375 C 20.441406 8.144531 20.417969 8.195312 20.386719 8.257812 C 20.355469 8.324219 20.324219 8.386719 20.296875 8.457031 C 20.269531 8.523438 20.242188 8.585938 20.222656 8.644531 C 20.199219 8.703125 20.1875 8.746094 20.183594 8.769531 C 20.152344 8.773438 20.121094 8.769531 20.089844 8.753906 C 20.0625 8.738281 20.042969 8.71875 20.039062 8.699219 Z M 20.039062 8.699219 "/>
</g>
<path style=" stroke:none;fill-rule:nonzero;fill:rgb(0%,0%,0%);fill-opacity:1;" d="M 21.359375 8.519531 C 21.429688 8.53125 21.503906 8.566406 21.574219 8.628906 C 21.648438 8.691406 21.707031 8.761719 21.75 8.84375 C 21.730469 8.921875 21.699219 9.015625 21.65625 9.125 C 21.613281 9.234375 21.566406 9.34375 21.523438 9.460938 C 21.480469 9.574219 21.441406 9.679688 21.410156 9.78125 C 21.375 9.882812 21.359375 9.964844 21.363281 10.027344 C 21.394531 9.976562 21.433594 9.914062 21.476562 9.847656 C 21.519531 9.78125 21.558594 9.714844 21.597656 9.644531 C 21.636719 9.578125 21.671875 9.515625 21.707031 9.460938 C 21.742188 9.40625 21.769531 9.363281 21.789062 9.335938 C 21.828125 9.277344 21.878906 9.207031 21.9375 9.125 C 21.992188 9.042969 22.054688 8.964844 22.117188 8.890625 C 22.183594 8.816406 22.25 8.753906 22.320312 8.695312 C 22.390625 8.640625 22.457031 8.609375 22.519531 8.597656 C 22.585938 8.585938 22.648438 8.601562 22.703125 8.640625 C 22.753906 8.679688 22.800781 8.71875 22.835938 8.765625 C 22.835938 8.769531 22.828125 8.78125 22.808594 8.792969 C 22.789062 8.804688 22.765625 8.835938 22.734375 8.882812 C 22.707031 8.9375 22.675781 9.007812 22.644531 9.097656 C 22.609375 9.1875 22.582031 9.285156 22.554688 9.390625 C 22.523438 9.492188 22.503906 9.597656 22.492188 9.703125 C 22.480469 9.804688 22.480469 9.898438 22.492188 9.980469 C 22.503906 10.046875 22.519531 10.085938 22.539062 10.101562 C 22.558594 10.117188 22.585938 10.125 22.617188 10.117188 C 22.644531 10.113281 22.675781 10.101562 22.703125 10.082031 C 22.734375 10.066406 22.757812 10.054688 22.777344 10.050781 C 22.789062 10.054688 22.796875 10.066406 22.808594 10.082031 C 22.816406 10.097656 22.820312 10.113281 22.824219 10.125 C 22.804688 10.148438 22.785156 10.167969 22.757812 10.191406 C 22.734375 10.214844 22.707031 10.238281 22.675781 10.257812 C 22.648438 10.28125 22.617188 10.296875 22.589844 10.3125 C 22.5625 10.328125 22.535156 10.339844 22.511719 10.34375 C 22.433594 10.355469 22.371094 10.355469 22.320312 10.339844 C 22.265625 10.324219 22.222656 10.300781 22.1875 10.269531 C 22.15625 10.238281 22.128906 10.195312 22.109375 10.148438 C 22.089844 10.097656 22.078125 10.042969 22.066406 9.984375 C 22.0625 9.953125 22.058594 9.917969 22.058594 9.875 C 22.058594 9.835938 22.0625 9.789062 22.066406 9.730469 C 22.074219 9.675781 22.085938 9.605469 22.101562 9.527344 C 22.121094 9.449219 22.140625 9.351562 22.167969 9.238281 C 22.164062 9.238281 22.132812 9.265625 22.070312 9.3125 C 22.011719 9.359375 21.949219 9.425781 21.886719 9.515625 C 21.78125 9.652344 21.6875 9.789062 21.609375 9.921875 C 21.53125 10.054688 21.449219 10.199219 21.371094 10.359375 C 21.324219 10.449219 21.285156 10.527344 21.253906 10.589844 C 21.21875 10.652344 21.1875 10.695312 21.160156 10.71875 C 21.097656 10.699219 21.050781 10.660156 21.015625 10.609375 C 20.980469 10.554688 20.949219 10.5 20.925781 10.441406 C 20.917969 10.390625 20.917969 10.328125 20.917969 10.25 C 20.921875 10.171875 20.925781 10.082031 20.933594 9.984375 C 20.945312 9.886719 20.960938 9.785156 20.980469 9.675781 C 21 9.566406 21.023438 9.457031 21.050781 9.347656 C 21.113281 9.101562 21.175781 8.902344 21.238281 8.757812 C 21.300781 8.613281 21.339844 8.535156 21.359375 8.519531 Z M 21.359375 8.519531 "/>
<g clip-path="url(#clip4)" clip-rule="nonzero">
<path style=" stroke:none;fill-rule:nonzero;fill:rgb(0%,0%,0%);fill-opacity:1;" d="M 23.582031 11.40625 C 23.515625 11.375 23.476562 11.324219 23.464844 11.25 C 23.453125 11.179688 23.410156 11.117188 23.328125 11.070312 C 23.351562 10.9375 23.378906 10.800781 23.410156 10.660156 C 23.4375 10.523438 23.472656 10.363281 23.515625 10.1875 C 23.5625 10.011719 23.617188 9.808594 23.683594 9.570312 C 23.75 9.335938 23.832031 9.050781 23.933594 8.71875 C 23.84375 8.714844 23.777344 8.714844 23.726562 8.71875 C 23.675781 8.71875 23.625 8.722656 23.578125 8.730469 C 23.566406 8.71875 23.558594 8.707031 23.550781 8.6875 C 23.546875 8.667969 23.542969 8.652344 23.542969 8.632812 C 23.570312 8.625 23.625 8.613281 23.707031 8.59375 C 23.789062 8.578125 23.882812 8.566406 23.980469 8.554688 C 24.046875 8.351562 24.125 8.171875 24.210938 8.011719 C 24.292969 7.851562 24.386719 7.714844 24.484375 7.601562 C 24.582031 7.488281 24.683594 7.402344 24.792969 7.339844 C 24.898438 7.28125 25.007812 7.253906 25.117188 7.253906 C 25.148438 7.253906 25.179688 7.257812 25.207031 7.261719 C 25.238281 7.265625 25.261719 7.269531 25.277344 7.269531 C 25.300781 7.25 25.332031 7.234375 25.375 7.21875 C 25.414062 7.207031 25.449219 7.199219 25.476562 7.199219 C 25.507812 7.199219 25.550781 7.21875 25.601562 7.253906 C 25.578125 7.289062 25.554688 7.339844 25.53125 7.40625 C 25.503906 7.46875 25.484375 7.53125 25.46875 7.59375 C 25.398438 7.789062 25.324219 7.914062 25.25 7.972656 C 25.21875 7.972656 25.203125 7.933594 25.203125 7.855469 C 25.199219 7.800781 25.195312 7.746094 25.179688 7.691406 C 25.171875 7.667969 25.164062 7.648438 25.160156 7.628906 C 25.15625 7.609375 25.15625 7.585938 25.15625 7.554688 C 25.15625 7.539062 25.15625 7.519531 25.160156 7.496094 C 25.164062 7.476562 25.167969 7.4375 25.179688 7.382812 C 25.132812 7.382812 25.082031 7.410156 25.027344 7.464844 C 24.972656 7.519531 24.914062 7.597656 24.851562 7.699219 C 24.789062 7.804688 24.726562 7.921875 24.664062 8.0625 C 24.601562 8.203125 24.539062 8.359375 24.480469 8.53125 L 24.816406 8.523438 C 24.832031 8.535156 24.839844 8.566406 24.847656 8.613281 C 24.859375 8.660156 24.863281 8.707031 24.867188 8.757812 L 24.425781 8.726562 C 24.320312 9.027344 24.21875 9.316406 24.128906 9.589844 C 24.035156 9.859375 23.953125 10.113281 23.882812 10.34375 C 23.808594 10.574219 23.746094 10.78125 23.695312 10.964844 C 23.640625 11.144531 23.605469 11.292969 23.582031 11.40625 Z M 23.582031 11.40625 "/>
</g>
<path style=" stroke:none;fill-rule:nonzero;fill:rgb(0%,0%,0%);fill-opacity:1;" d="M 25.472656 10.46875 C 25.324219 10.433594 25.210938 10.355469 25.136719 10.226562 C 25.058594 10.101562 25.03125 9.949219 25.050781 9.765625 C 25.0625 9.660156 25.089844 9.554688 25.136719 9.441406 C 25.179688 9.332031 25.238281 9.226562 25.308594 9.125 C 25.378906 9.027344 25.460938 8.933594 25.550781 8.847656 C 25.640625 8.761719 25.738281 8.6875 25.835938 8.628906 C 25.996094 8.539062 26.136719 8.5 26.265625 8.511719 C 26.34375 8.566406 26.417969 8.671875 26.484375 8.824219 C 26.496094 8.824219 26.507812 8.828125 26.519531 8.824219 C 26.53125 8.824219 26.542969 8.828125 26.554688 8.828125 C 26.695312 8.84375 26.75 8.976562 26.722656 9.226562 C 26.703125 9.394531 26.660156 9.546875 26.585938 9.691406 C 26.515625 9.835938 26.425781 9.960938 26.3125 10.074219 C 26.203125 10.183594 26.078125 10.273438 25.933594 10.339844 C 25.789062 10.410156 25.636719 10.453125 25.472656 10.46875 Z M 25.820312 9.238281 C 25.769531 9.296875 25.71875 9.355469 25.667969 9.421875 C 25.621094 9.492188 25.578125 9.558594 25.542969 9.628906 C 25.503906 9.699219 25.472656 9.765625 25.449219 9.832031 C 25.425781 9.898438 25.410156 9.957031 25.40625 10.007812 C 25.398438 10.074219 25.402344 10.132812 25.417969 10.195312 C 25.429688 10.257812 25.449219 10.292969 25.476562 10.304688 C 25.597656 10.289062 25.714844 10.253906 25.820312 10.191406 C 25.929688 10.128906 26.023438 10.050781 26.109375 9.949219 C 26.195312 9.847656 26.265625 9.730469 26.324219 9.597656 C 26.378906 9.464844 26.417969 9.320312 26.4375 9.164062 C 26.445312 9.097656 26.445312 9.042969 26.441406 9 C 26.4375 8.960938 26.429688 8.921875 26.414062 8.890625 C 26.292969 8.914062 26.183594 8.957031 26.082031 9.023438 C 25.984375 9.089844 25.894531 9.160156 25.820312 9.238281 Z M 25.820312 9.238281 "/>
<path style=" stroke:none;fill-rule:nonzero;fill:rgb(0%,0%,0%);fill-opacity:1;" d="M 28.226562 11.285156 C 28.121094 11.203125 28.054688 11.136719 28.023438 11.082031 C 27.992188 11.027344 27.988281 10.976562 28.007812 10.925781 C 28.023438 10.886719 28.058594 10.835938 28.109375 10.773438 C 28.160156 10.710938 28.230469 10.636719 28.3125 10.558594 C 28.394531 10.476562 28.492188 10.390625 28.601562 10.296875 C 28.710938 10.203125 28.828125 10.105469 28.960938 10 C 28.898438 9.972656 28.84375 9.945312 28.792969 9.925781 C 28.742188 9.902344 28.699219 9.886719 28.667969 9.871094 C 28.699219 9.839844 28.753906 9.828125 28.832031 9.828125 C 28.914062 9.828125 29.015625 9.84375 29.136719 9.871094 C 29.300781 9.75 29.464844 9.636719 29.632812 9.539062 C 29.804688 9.4375 29.96875 9.347656 30.128906 9.273438 C 30.289062 9.195312 30.445312 9.132812 30.59375 9.085938 C 30.746094 9.039062 30.878906 9.007812 31.003906 8.996094 C 31.011719 8.980469 31.019531 8.964844 31.027344 8.953125 C 31.035156 8.941406 31.039062 8.933594 31.039062 8.929688 C 31.074219 8.941406 31.117188 8.972656 31.167969 9.011719 C 31.21875 9.050781 31.265625 9.097656 31.3125 9.144531 C 31.359375 9.191406 31.398438 9.238281 31.429688 9.28125 C 31.460938 9.324219 31.476562 9.355469 31.476562 9.375 C 31.335938 9.484375 31.167969 9.667969 30.972656 9.917969 C 30.773438 10.171875 30.570312 10.484375 30.355469 10.863281 C 30.300781 10.957031 30.246094 11.0625 30.1875 11.1875 C 30.125 11.308594 30.0625 11.445312 30 11.601562 C 29.976562 11.65625 29.957031 11.710938 29.933594 11.769531 C 29.910156 11.824219 29.886719 11.886719 29.867188 11.949219 C 29.859375 11.949219 29.855469 11.949219 29.851562 11.949219 C 29.84375 11.945312 29.835938 11.941406 29.820312 11.9375 C 29.785156 11.921875 29.746094 11.898438 29.707031 11.871094 C 29.664062 11.839844 29.625 11.808594 29.589844 11.773438 C 29.554688 11.742188 29.523438 11.707031 29.5 11.675781 C 29.476562 11.640625 29.464844 11.617188 29.464844 11.597656 C 29.476562 11.566406 29.488281 11.535156 29.5 11.503906 C 29.511719 11.472656 29.527344 11.441406 29.539062 11.40625 C 29.601562 11.253906 29.671875 11.097656 29.75 10.945312 C 29.824219 10.792969 29.910156 10.636719 30.007812 10.480469 C 29.972656 10.464844 29.929688 10.441406 29.871094 10.414062 C 29.816406 10.386719 29.753906 10.359375 29.683594 10.328125 C 29.617188 10.296875 29.542969 10.261719 29.464844 10.226562 C 29.386719 10.191406 29.308594 10.15625 29.234375 10.121094 C 29.128906 10.207031 29.027344 10.296875 28.929688 10.382812 C 28.832031 10.472656 28.742188 10.566406 28.660156 10.660156 C 28.570312 10.761719 28.488281 10.867188 28.414062 10.972656 C 28.339844 11.082031 28.277344 11.1875 28.226562 11.285156 Z M 30.566406 9.648438 C 30.589844 9.617188 30.621094 9.574219 30.660156 9.519531 C 30.699219 9.464844 30.738281 9.40625 30.777344 9.34375 C 30.707031 9.339844 30.621094 9.355469 30.523438 9.382812 C 30.421875 9.410156 30.316406 9.453125 30.199219 9.507812 C 30.082031 9.5625 29.960938 9.628906 29.832031 9.703125 C 29.707031 9.78125 29.578125 9.863281 29.453125 9.957031 C 29.664062 10.023438 29.90625 10.109375 30.171875 10.210938 C 30.234375 10.117188 30.296875 10.023438 30.363281 9.929688 C 30.429688 9.835938 30.496094 9.742188 30.566406 9.648438 Z M 30.566406 9.648438 "/>
<path style=" stroke:none;fill-rule:nonzero;fill:rgb(0%,0%,0%);fill-opacity:1;" d="M 32.183594 10.722656 C 32.230469 10.777344 32.261719 10.851562 32.273438 10.949219 C 32.285156 11.042969 32.277344 11.136719 32.257812 11.226562 C 32.191406 11.269531 32.109375 11.320312 32.003906 11.371094 C 31.894531 11.425781 31.789062 11.476562 31.679688 11.535156 C 31.570312 11.589844 31.472656 11.644531 31.378906 11.699219 C 31.285156 11.75 31.222656 11.800781 31.179688 11.847656 C 31.242188 11.832031 31.308594 11.8125 31.386719 11.792969 C 31.460938 11.769531 31.535156 11.746094 31.609375 11.722656 C 31.683594 11.695312 31.753906 11.675781 31.816406 11.65625 C 31.878906 11.640625 31.925781 11.625 31.957031 11.617188 C 32.03125 11.601562 32.113281 11.582031 32.210938 11.558594 C 32.308594 11.535156 32.402344 11.519531 32.5 11.507812 C 32.597656 11.496094 32.691406 11.492188 32.78125 11.496094 C 32.871094 11.5 32.941406 11.519531 32.996094 11.554688 C 33.054688 11.59375 33.089844 11.644531 33.105469 11.707031 C 33.117188 11.773438 33.125 11.832031 33.121094 11.890625 C 33.117188 11.894531 33.105469 11.894531 33.082031 11.890625 C 33.058594 11.890625 33.023438 11.894531 32.96875 11.910156 C 32.910156 11.933594 32.839844 11.964844 32.753906 12.011719 C 32.671875 12.054688 32.582031 12.109375 32.492188 12.167969 C 32.402344 12.226562 32.320312 12.289062 32.242188 12.359375 C 32.160156 12.429688 32.097656 12.5 32.054688 12.566406 C 32.019531 12.625 32.003906 12.664062 32.007812 12.691406 C 32.011719 12.714844 32.027344 12.734375 32.054688 12.753906 C 32.078125 12.769531 32.109375 12.78125 32.144531 12.785156 C 32.179688 12.792969 32.203125 12.800781 32.21875 12.808594 C 32.226562 12.820312 32.226562 12.832031 32.222656 12.851562 C 32.21875 12.871094 32.214844 12.886719 32.207031 12.898438 C 32.179688 12.902344 32.148438 12.902344 32.113281 12.902344 C 32.078125 12.902344 32.042969 12.902344 32.003906 12.898438 C 31.96875 12.894531 31.9375 12.886719 31.90625 12.878906 C 31.875 12.871094 31.847656 12.863281 31.828125 12.851562 C 31.761719 12.808594 31.714844 12.765625 31.6875 12.71875 C 31.65625 12.671875 31.640625 12.625 31.636719 12.582031 C 31.632812 12.535156 31.640625 12.484375 31.660156 12.4375 C 31.679688 12.386719 31.703125 12.335938 31.734375 12.289062 C 31.753906 12.261719 31.773438 12.230469 31.800781 12.199219 C 31.828125 12.171875 31.859375 12.136719 31.902344 12.097656 C 31.945312 12.0625 32 12.019531 32.066406 11.96875 C 32.132812 11.921875 32.210938 11.863281 32.308594 11.800781 C 32.304688 11.796875 32.261719 11.792969 32.1875 11.789062 C 32.109375 11.785156 32.019531 11.792969 31.914062 11.816406 C 31.742188 11.851562 31.582031 11.890625 31.4375 11.933594 C 31.289062 11.980469 31.132812 12.035156 30.96875 12.101562 C 30.871094 12.140625 30.792969 12.171875 30.726562 12.195312 C 30.65625 12.21875 30.605469 12.230469 30.566406 12.230469 C 30.539062 12.171875 30.527344 12.113281 30.535156 12.050781 C 30.542969 11.988281 30.558594 11.925781 30.582031 11.867188 C 30.609375 11.824219 30.648438 11.777344 30.703125 11.71875 C 30.757812 11.660156 30.820312 11.597656 30.890625 11.53125 C 30.964844 11.464844 31.042969 11.398438 31.128906 11.332031 C 31.21875 11.265625 31.308594 11.199219 31.402344 11.136719 C 31.613281 10.992188 31.792969 10.886719 31.933594 10.820312 C 32.078125 10.753906 32.160156 10.71875 32.183594 10.722656 Z M 32.183594 10.722656 "/>
<path style=" stroke:none;fill-rule:nonzero;fill:rgb(0%,0%,0%);fill-opacity:1;" d="M 34.660156 13.074219 C 34.679688 13.09375 34.703125 13.117188 34.722656 13.148438 C 34.742188 13.179688 34.757812 13.210938 34.769531 13.242188 C 34.785156 13.269531 34.792969 13.300781 34.796875 13.324219 C 34.800781 13.347656 34.796875 13.367188 34.789062 13.378906 C 34.675781 13.425781 34.5625 13.476562 34.453125 13.53125 C 34.34375 13.585938 34.242188 13.640625 34.148438 13.695312 C 34.054688 13.753906 33.972656 13.808594 33.898438 13.863281 C 33.828125 13.921875 33.769531 13.972656 33.722656 14.023438 C 33.675781 14.078125 33.636719 14.132812 33.617188 14.179688 C 33.597656 14.226562 33.59375 14.269531 33.605469 14.3125 C 33.570312 14.304688 33.527344 14.289062 33.480469 14.265625 C 33.433594 14.242188 33.394531 14.21875 33.363281 14.191406 C 33.257812 14.09375 33.269531 13.972656 33.402344 13.828125 C 33.503906 13.714844 33.679688 13.59375 33.929688 13.460938 C 33.808594 13.519531 33.6875 13.5625 33.5625 13.597656 C 33.4375 13.632812 33.320312 13.65625 33.210938 13.671875 C 33.105469 13.683594 33.003906 13.6875 32.917969 13.675781 C 32.828125 13.664062 32.753906 13.644531 32.703125 13.609375 C 32.632812 13.542969 32.605469 13.453125 32.617188 13.34375 C 32.632812 13.238281 32.683594 13.132812 32.777344 13.027344 C 32.875 12.917969 33.003906 12.820312 33.164062 12.742188 C 33.320312 12.660156 33.484375 12.601562 33.652344 12.5625 C 33.820312 12.523438 33.980469 12.507812 34.132812 12.515625 C 34.28125 12.523438 34.402344 12.5625 34.484375 12.628906 C 34.5 12.652344 34.511719 12.683594 34.519531 12.726562 C 34.53125 12.765625 34.535156 12.808594 34.539062 12.851562 C 34.539062 12.894531 34.535156 12.9375 34.53125 12.976562 C 34.523438 13.015625 34.511719 13.042969 34.5 13.066406 C 34.410156 13.003906 34.292969 12.972656 34.148438 12.960938 C 34.007812 12.953125 33.859375 12.960938 33.707031 12.992188 C 33.554688 13.023438 33.410156 13.074219 33.273438 13.140625 C 33.136719 13.207031 33.027344 13.285156 32.945312 13.375 C 32.910156 13.414062 32.902344 13.449219 32.921875 13.484375 C 32.992188 13.523438 33.101562 13.535156 33.253906 13.515625 C 33.40625 13.496094 33.617188 13.445312 33.886719 13.359375 C 33.9375 13.339844 33.996094 13.320312 34.058594 13.300781 C 34.125 13.277344 34.191406 13.257812 34.257812 13.230469 C 34.328125 13.207031 34.394531 13.179688 34.464844 13.15625 C 34.53125 13.128906 34.597656 13.101562 34.660156 13.074219 Z M 34.660156 13.074219 "/>
<path style=" stroke:none;fill-rule:nonzero;fill:rgb(0%,0%,0%);fill-opacity:1;" d="M 34.265625 14.667969 C 34.355469 14.59375 34.5 14.511719 34.699219 14.417969 C 34.898438 14.328125 35.140625 14.230469 35.421875 14.128906 C 35.875 13.972656 36.265625 13.851562 36.589844 13.773438 C 36.914062 13.695312 37.183594 13.65625 37.402344 13.65625 C 37.417969 13.683594 37.433594 13.722656 37.445312 13.773438 C 37.457031 13.824219 37.46875 13.875 37.480469 13.925781 C 37.488281 13.976562 37.492188 14.023438 37.496094 14.066406 C 37.5 14.113281 37.496094 14.144531 37.492188 14.164062 C 37.167969 14.15625 36.851562 14.183594 36.53125 14.242188 C 36.214844 14.300781 35.871094 14.394531 35.503906 14.527344 C 35.191406 14.640625 34.917969 14.753906 34.6875 14.871094 C 34.457031 14.984375 34.273438 15.09375 34.144531 15.203125 C 34.109375 15.230469 34.089844 15.25 34.082031 15.253906 C 34.070312 15.261719 34.0625 15.269531 34.058594 15.277344 C 34.039062 15.246094 34.023438 15.214844 34.019531 15.1875 C 34.011719 15.15625 34.011719 15.132812 34.023438 15.117188 C 34.03125 15.105469 34.035156 15.078125 34.039062 15.046875 C 34.042969 15.011719 34.046875 14.980469 34.042969 14.957031 C 34.039062 14.929688 34.058594 14.886719 34.101562 14.832031 C 34.144531 14.777344 34.199219 14.722656 34.265625 14.667969 Z M 34.265625 14.667969 "/>
<path style=" stroke:none;fill-rule:nonzero;fill:rgb(0%,0%,0%);fill-opacity:1;" d="M 36.140625 16.722656 C 35.945312 16.773438 35.761719 16.816406 35.59375 16.851562 C 35.425781 16.882812 35.265625 16.90625 35.113281 16.917969 C 34.964844 16.933594 34.820312 16.9375 34.679688 16.929688 C 34.542969 16.921875 34.402344 16.902344 34.265625 16.875 C 34.09375 16.839844 33.941406 16.785156 33.816406 16.710938 C 33.6875 16.636719 33.589844 16.542969 33.519531 16.433594 C 33.484375 16.378906 33.457031 16.316406 33.433594 16.253906 C 33.410156 16.191406 33.394531 16.128906 33.386719 16.066406 C 33.378906 16.003906 33.375 15.945312 33.378906 15.890625 C 33.386719 15.835938 33.398438 15.792969 33.417969 15.757812 C 33.445312 15.738281 33.480469 15.738281 33.519531 15.757812 C 33.511719 15.800781 33.507812 15.835938 33.503906 15.863281 C 33.503906 15.890625 33.503906 15.914062 33.503906 15.9375 C 33.507812 15.957031 33.511719 15.980469 33.523438 16 C 33.53125 16.019531 33.542969 16.042969 33.558594 16.070312 C 33.640625 16.199219 33.757812 16.300781 33.910156 16.375 C 34.0625 16.449219 34.246094 16.5 34.453125 16.523438 C 34.660156 16.542969 34.890625 16.539062 35.144531 16.503906 C 35.398438 16.46875 35.667969 16.40625 35.953125 16.316406 C 35.886719 16.316406 35.808594 16.316406 35.71875 16.3125 C 35.625 16.3125 35.53125 16.304688 35.433594 16.292969 C 35.335938 16.28125 35.246094 16.265625 35.15625 16.242188 C 35.070312 16.21875 35.003906 16.1875 34.953125 16.148438 C 34.929688 16.109375 34.914062 16.066406 34.902344 16.019531 C 34.890625 15.972656 34.882812 15.925781 34.882812 15.875 C 34.886719 15.828125 34.894531 15.777344 34.90625 15.730469 C 34.921875 15.683594 34.945312 15.644531 34.980469 15.609375 C 35.046875 15.566406 35.101562 15.539062 35.144531 15.515625 C 35.1875 15.496094 35.234375 15.476562 35.289062 15.457031 C 35.386719 15.425781 35.503906 15.394531 35.636719 15.367188 C 35.769531 15.335938 35.90625 15.316406 36.042969 15.300781 C 36.183594 15.289062 36.316406 15.285156 36.449219 15.292969 C 36.582031 15.300781 36.695312 15.324219 36.789062 15.359375 C 36.800781 15.378906 36.8125 15.402344 36.828125 15.429688 C 36.839844 15.460938 36.851562 15.492188 36.863281 15.527344 C 36.871094 15.5625 36.878906 15.597656 36.882812 15.632812 C 36.890625 15.667969 36.886719 15.699219 36.878906 15.734375 C 36.839844 15.722656 36.730469 15.714844 36.550781 15.714844 C 36.371094 15.710938 36.125 15.734375 35.820312 15.785156 C 35.789062 15.789062 35.742188 15.800781 35.6875 15.8125 C 35.628906 15.828125 35.570312 15.84375 35.507812 15.859375 C 35.449219 15.878906 35.390625 15.898438 35.332031 15.917969 C 35.273438 15.9375 35.230469 15.957031 35.203125 15.976562 C 35.183594 15.988281 35.171875 16 35.167969 16.011719 C 35.160156 16.019531 35.160156 16.03125 35.15625 16.039062 C 35.1875 16.074219 35.257812 16.109375 35.359375 16.136719 C 35.460938 16.167969 35.601562 16.1875 35.78125 16.191406 C 35.898438 16.195312 36.011719 16.195312 36.117188 16.1875 C 36.226562 16.183594 36.335938 16.175781 36.445312 16.171875 C 36.554688 16.164062 36.664062 16.15625 36.78125 16.148438 C 36.898438 16.140625 37.015625 16.136719 37.140625 16.136719 C 37.160156 16.164062 37.175781 16.199219 37.191406 16.238281 C 37.207031 16.273438 37.21875 16.3125 37.226562 16.351562 C 37.238281 16.390625 37.242188 16.421875 37.246094 16.457031 C 37.25 16.488281 37.246094 16.511719 37.238281 16.53125 C 37.046875 16.554688 36.859375 16.582031 36.679688 16.613281 C 36.5 16.640625 36.320312 16.675781 36.140625 16.722656 Z M 36.140625 16.722656 "/>
<path style=" stroke:none;fill-rule:nonzero;fill:rgb(0%,0%,0%);fill-opacity:1;" d="M 38.007812 18.242188 C 37.960938 18.261719 37.910156 18.277344 37.855469 18.285156 C 37.800781 18.296875 37.746094 18.300781 37.699219 18.296875 C 37.648438 18.296875 37.605469 18.292969 37.570312 18.285156 C 37.53125 18.273438 37.511719 18.261719 37.5 18.242188 C 37.492188 18.214844 37.5 18.1875 37.535156 18.167969 C 37.539062 18.164062 37.554688 18.164062 37.570312 18.160156 C 37.589844 18.160156 37.609375 18.15625 37.632812 18.15625 C 37.65625 18.15625 37.679688 18.152344 37.703125 18.148438 C 37.722656 18.144531 37.742188 18.140625 37.757812 18.132812 C 37.789062 18.117188 37.816406 18.097656 37.832031 18.070312 C 37.847656 18.042969 37.847656 18.019531 37.835938 17.992188 C 37.789062 17.894531 37.695312 17.851562 37.550781 17.855469 C 37.40625 17.859375 37.21875 17.917969 36.980469 18.027344 C 36.957031 18.039062 36.945312 18.046875 36.941406 18.050781 C 36.964844 18.101562 36.988281 18.144531 37.007812 18.183594 C 37.027344 18.222656 37.046875 18.261719 37.066406 18.300781 C 37.0625 18.304688 37.054688 18.3125 37.039062 18.320312 C 37.015625 18.328125 37 18.332031 36.984375 18.324219 C 36.945312 18.277344 36.914062 18.238281 36.890625 18.207031 C 36.867188 18.179688 36.847656 18.160156 36.835938 18.144531 C 36.820312 18.132812 36.804688 18.125 36.796875 18.125 C 36.785156 18.125 36.773438 18.128906 36.757812 18.136719 C 36.738281 18.144531 36.722656 18.152344 36.703125 18.164062 C 36.683594 18.175781 36.660156 18.1875 36.628906 18.199219 C 36.425781 18.292969 36.238281 18.316406 36.0625 18.261719 C 35.890625 18.210938 35.746094 18.089844 35.636719 17.902344 C 35.625 17.867188 35.617188 17.828125 35.617188 17.785156 C 35.617188 17.742188 35.621094 17.695312 35.632812 17.648438 C 35.644531 17.605469 35.660156 17.5625 35.683594 17.523438 C 35.703125 17.484375 35.730469 17.453125 35.757812 17.425781 C 35.851562 17.382812 35.949219 17.363281 36.050781 17.363281 C 36.148438 17.363281 36.25 17.378906 36.34375 17.417969 C 36.4375 17.453125 36.527344 17.507812 36.609375 17.582031 C 36.691406 17.652344 36.761719 17.742188 36.816406 17.84375 C 36.878906 17.816406 36.933594 17.78125 36.988281 17.742188 C 37.039062 17.703125 37.089844 17.664062 37.136719 17.625 C 37.1875 17.585938 37.234375 17.550781 37.28125 17.515625 C 37.324219 17.476562 37.375 17.449219 37.425781 17.421875 C 37.492188 17.394531 37.5625 17.375 37.636719 17.375 C 37.714844 17.371094 37.789062 17.378906 37.863281 17.394531 C 37.9375 17.414062 38.007812 17.441406 38.074219 17.484375 C 38.140625 17.523438 38.195312 17.570312 38.238281 17.628906 C 38.246094 17.660156 38.242188 17.703125 38.226562 17.765625 C 38.210938 17.824219 38.191406 17.886719 38.167969 17.953125 C 38.144531 18.015625 38.121094 18.074219 38.089844 18.128906 C 38.0625 18.183594 38.035156 18.222656 38.007812 18.242188 Z M 35.796875 17.8125 C 35.847656 17.859375 35.910156 17.898438 35.980469 17.929688 C 36.050781 17.960938 36.125 17.980469 36.199219 17.992188 C 36.277344 18.007812 36.351562 18.007812 36.425781 18 C 36.503906 17.992188 36.574219 17.976562 36.636719 17.945312 C 36.605469 17.898438 36.558594 17.859375 36.496094 17.816406 C 36.429688 17.777344 36.359375 17.742188 36.285156 17.714844 C 36.207031 17.691406 36.136719 17.671875 36.0625 17.664062 C 35.992188 17.65625 35.9375 17.660156 35.894531 17.679688 C 35.839844 17.707031 35.808594 17.75 35.796875 17.8125 Z M 35.796875 17.8125 "/>
<path style=" stroke:none;fill-rule:nonzero;fill:rgb(0%,0%,0%);fill-opacity:1;" d="M 38.246094 19.136719 L 38.171875 18.921875 C 38.183594 18.902344 38.210938 18.882812 38.257812 18.855469 C 38.304688 18.828125 38.34375 18.808594 38.378906 18.796875 C 38.398438 18.863281 38.414062 18.929688 38.429688 18.992188 C 38.449219 19.050781 38.464844 19.109375 38.476562 19.160156 C 38.566406 19.171875 38.65625 19.1875 38.746094 19.207031 C 38.835938 19.226562 38.917969 19.246094 38.992188 19.269531 C 39.070312 19.289062 39.132812 19.308594 39.191406 19.332031 C 39.246094 19.355469 39.28125 19.375 39.300781 19.390625 C 39.3125 19.414062 39.316406 19.449219 39.320312 19.492188 C 39.324219 19.53125 39.328125 19.574219 39.328125 19.621094 C 39.328125 19.667969 39.324219 19.707031 39.320312 19.746094 C 39.316406 19.785156 39.308594 19.8125 39.300781 19.828125 C 39.175781 19.785156 39.066406 19.75 38.964844 19.722656 C 38.863281 19.699219 38.75 19.671875 38.625 19.644531 C 38.640625 19.695312 38.660156 19.746094 38.679688 19.796875 C 38.699219 19.847656 38.722656 19.898438 38.742188 19.949219 C 38.734375 19.964844 38.722656 19.980469 38.707031 19.996094 C 38.691406 20.007812 38.671875 20.019531 38.652344 20.027344 C 38.5625 19.917969 38.488281 19.777344 38.421875 19.601562 C 38.28125 19.578125 38.140625 19.5625 38.003906 19.554688 C 37.867188 19.546875 37.738281 19.542969 37.617188 19.546875 C 37.492188 19.550781 37.378906 19.558594 37.273438 19.574219 C 37.167969 19.585938 37.078125 19.609375 37 19.632812 C 36.890625 19.671875 36.839844 19.734375 36.855469 19.820312 C 36.890625 19.894531 36.933594 19.960938 36.984375 20.019531 C 37.035156 20.078125 37.09375 20.125 37.152344 20.164062 C 37.136719 20.1875 37.121094 20.203125 37.105469 20.210938 C 37.078125 20.203125 37.042969 20.1875 37 20.160156 C 36.957031 20.132812 36.914062 20.101562 36.871094 20.070312 C 36.828125 20.035156 36.789062 20.003906 36.753906 19.96875 C 36.71875 19.9375 36.699219 19.910156 36.6875 19.890625 C 36.671875 19.828125 36.664062 19.757812 36.667969 19.6875 C 36.671875 19.613281 36.683594 19.546875 36.703125 19.480469 C 36.722656 19.417969 36.753906 19.363281 36.789062 19.3125 C 36.824219 19.265625 36.863281 19.230469 36.910156 19.214844 C 36.96875 19.195312 37.050781 19.179688 37.148438 19.164062 C 37.246094 19.148438 37.351562 19.140625 37.472656 19.132812 C 37.589844 19.125 37.71875 19.125 37.847656 19.125 C 37.980469 19.125 38.113281 19.128906 38.246094 19.136719 Z M 38.246094 19.136719 "/>
<path style=" stroke:none;fill-rule:nonzero;fill:rgb(0%,0%,0%);fill-opacity:1;" d="M 9.292969 30.152344 C 9.285156 30.148438 9.285156 30.144531 9.28125 30.136719 C 9.28125 30.132812 9.277344 30.121094 9.269531 30.109375 C 9.253906 30.070312 9.242188 30.027344 9.234375 29.976562 C 9.226562 29.925781 9.222656 29.875 9.21875 29.824219 C 9.21875 29.773438 9.21875 29.726562 9.226562 29.6875 C 9.234375 29.648438 9.242188 29.621094 9.253906 29.605469 C 9.289062 29.589844 9.328125 29.574219 9.363281 29.558594 C 9.402344 29.542969 9.4375 29.527344 9.472656 29.511719 C 9.757812 29.394531 10.0625 29.292969 10.386719 29.207031 C 10.710938 29.121094 11.074219 29.050781 11.472656 28.996094 C 11.511719 28.992188 11.5625 28.984375 11.621094 28.972656 C 11.679688 28.960938 11.746094 28.949219 11.8125 28.9375 C 11.738281 28.894531 11.632812 28.855469 11.492188 28.816406 C 11.355469 28.773438 11.191406 28.738281 11.011719 28.707031 C 10.832031 28.671875 10.636719 28.644531 10.429688 28.625 C 10.21875 28.601562 10.011719 28.589844 9.804688 28.589844 C 9.597656 28.585938 9.394531 28.59375 9.203125 28.609375 C 9.007812 28.625 8.835938 28.660156 8.683594 28.707031 C 8.667969 28.570312 8.667969 28.472656 8.683594 28.410156 C 8.699219 28.347656 8.734375 28.308594 8.785156 28.289062 C 8.828125 28.269531 8.898438 28.253906 8.996094 28.25 C 9.089844 28.242188 9.203125 28.238281 9.339844 28.242188 C 9.472656 28.246094 9.625 28.257812 9.796875 28.269531 C 9.96875 28.285156 10.152344 28.304688 10.351562 28.324219 C 10.578125 28.351562 10.789062 28.378906 10.992188 28.40625 C 11.195312 28.4375 11.382812 28.472656 11.550781 28.511719 C 11.722656 28.550781 11.875 28.59375 12.007812 28.644531 C 12.140625 28.695312 12.25 28.753906 12.335938 28.820312 C 12.351562 28.855469 12.363281 28.90625 12.371094 28.972656 C 12.375 29.039062 12.378906 29.105469 12.378906 29.171875 C 12.375 29.242188 12.371094 29.300781 12.363281 29.359375 C 12.355469 29.414062 12.34375 29.445312 12.328125 29.460938 C 12.242188 29.453125 12.117188 29.457031 11.957031 29.464844 C 11.796875 29.476562 11.617188 29.496094 11.414062 29.519531 C 11.214844 29.546875 11.003906 29.578125 10.785156 29.617188 C 10.566406 29.65625 10.359375 29.703125 10.164062 29.753906 C 10.328125 29.753906 10.5 29.761719 10.683594 29.773438 C 10.867188 29.789062 11.046875 29.808594 11.230469 29.835938 C 11.414062 29.859375 11.59375 29.886719 11.773438 29.917969 C 11.949219 29.949219 12.109375 29.984375 12.261719 30.023438 C 12.414062 30.0625 12.546875 30.101562 12.664062 30.140625 C 12.78125 30.179688 12.871094 30.21875 12.933594 30.261719 C 12.949219 30.292969 12.960938 30.347656 12.96875 30.414062 C 12.976562 30.480469 12.976562 30.546875 12.976562 30.613281 C 12.972656 30.679688 12.96875 30.742188 12.960938 30.796875 C 12.953125 30.851562 12.941406 30.886719 12.925781 30.898438 C 12.746094 30.878906 12.542969 30.878906 12.308594 30.90625 C 12.078125 30.929688 11.839844 30.96875 11.59375 31.023438 C 11.351562 31.074219 11.113281 31.136719 10.878906 31.207031 C 10.648438 31.28125 10.441406 31.351562 10.265625 31.425781 C 10.207031 31.449219 10.148438 31.476562 10.082031 31.5 C 10.019531 31.527344 9.957031 31.558594 9.890625 31.589844 C 9.875 31.554688 9.863281 31.511719 9.851562 31.460938 C 9.839844 31.40625 9.832031 31.351562 9.824219 31.300781 C 9.820312 31.246094 9.820312 31.199219 9.824219 31.152344 C 9.828125 31.105469 9.839844 31.070312 9.855469 31.046875 C 9.886719 31.027344 9.925781 31.011719 9.960938 30.996094 C 10 30.980469 10.035156 30.964844 10.070312 30.953125 C 10.355469 30.832031 10.660156 30.730469 10.984375 30.644531 C 11.3125 30.558594 11.671875 30.488281 12.070312 30.4375 C 12.109375 30.433594 12.164062 30.421875 12.230469 30.410156 C 12.292969 30.398438 12.363281 30.382812 12.433594 30.371094 C 12.371094 30.3125 12.269531 30.261719 12.132812 30.214844 C 11.996094 30.164062 11.835938 30.125 11.652344 30.09375 C 11.472656 30.058594 11.277344 30.035156 11.066406 30.015625 C 10.855469 30 10.644531 29.992188 10.433594 29.996094 C 10.222656 29.996094 10.019531 30.011719 9.820312 30.035156 C 9.621094 30.0625 9.445312 30.097656 9.292969 30.152344 Z M 9.292969 30.152344 "/>
<path style=" stroke:none;fill-rule:nonzero;fill:rgb(0%,0%,0%);fill-opacity:1;" d="M 10.859375 32.707031 C 11 32.761719 11.160156 32.804688 11.339844 32.828125 C 11.515625 32.851562 11.695312 32.863281 11.878906 32.855469 C 12.0625 32.851562 12.242188 32.832031 12.417969 32.792969 C 12.59375 32.753906 12.753906 32.703125 12.894531 32.636719 C 12.921875 32.617188 12.929688 32.59375 12.917969 32.554688 C 12.898438 32.523438 12.839844 32.5 12.746094 32.484375 C 12.652344 32.464844 12.542969 32.453125 12.410156 32.445312 C 12.277344 32.433594 12.136719 32.433594 11.980469 32.4375 C 11.828125 32.441406 11.679688 32.449219 11.539062 32.464844 C 11.394531 32.480469 11.261719 32.5 11.144531 32.523438 C 11.027344 32.542969 10.9375 32.574219 10.875 32.605469 C 10.859375 32.585938 10.871094 32.550781 10.90625 32.503906 C 10.914062 32.492188 10.921875 32.476562 10.925781 32.457031 C 10.929688 32.433594 10.933594 32.40625 10.933594 32.371094 C 10.933594 32.351562 10.9375 32.332031 10.945312 32.3125 C 10.949219 32.292969 10.953125 32.277344 10.957031 32.269531 C 10.96875 32.246094 10.996094 32.222656 11.039062 32.195312 C 11.171875 32.101562 11.332031 32.019531 11.523438 31.9375 C 11.714844 31.859375 11.914062 31.785156 12.128906 31.722656 C 12.339844 31.660156 12.554688 31.609375 12.773438 31.566406 C 12.992188 31.527344 13.199219 31.5 13.394531 31.484375 C 13.589844 31.46875 13.761719 31.46875 13.914062 31.484375 C 14.070312 31.5 14.183594 31.53125 14.265625 31.582031 C 14.273438 31.609375 14.28125 31.644531 14.289062 31.6875 C 14.292969 31.730469 14.296875 31.773438 14.296875 31.820312 C 14.296875 31.867188 14.300781 31.910156 14.296875 31.953125 C 14.296875 31.992188 14.292969 32.027344 14.285156 32.050781 C 13.914062 31.941406 13.511719 31.898438 13.070312 31.933594 C 12.632812 31.964844 12.15625 32.070312 11.648438 32.25 C 11.8125 32.230469 11.972656 32.226562 12.136719 32.230469 C 12.300781 32.234375 12.449219 32.246094 12.585938 32.269531 C 12.722656 32.289062 12.84375 32.316406 12.941406 32.355469 C 13.039062 32.394531 13.105469 32.433594 13.136719 32.484375 C 13.152344 32.523438 13.160156 32.570312 13.160156 32.621094 C 13.160156 32.667969 13.152344 32.71875 13.140625 32.769531 C 13.125 32.816406 13.105469 32.863281 13.082031 32.90625 C 13.054688 32.949219 13.023438 32.988281 12.988281 33.019531 C 12.890625 33.085938 12.777344 33.136719 12.648438 33.179688 C 12.519531 33.222656 12.386719 33.253906 12.25 33.273438 C 12.109375 33.292969 11.972656 33.304688 11.832031 33.304688 C 11.695312 33.304688 11.566406 33.292969 11.445312 33.269531 C 11.324219 33.246094 11.21875 33.214844 11.128906 33.171875 C 11.039062 33.128906 10.96875 33.078125 10.925781 33.015625 C 10.910156 32.988281 10.890625 32.957031 10.878906 32.925781 C 10.863281 32.894531 10.855469 32.863281 10.847656 32.832031 C 10.84375 32.800781 10.839844 32.773438 10.84375 32.75 C 10.84375 32.730469 10.851562 32.714844 10.859375 32.707031 Z M 10.859375 32.707031 "/>
<path style=" stroke:none;fill-rule:nonzero;fill:rgb(0%,0%,0%);fill-opacity:1;" d="M 16.792969 35.449219 C 16.6875 35.578125 16.554688 35.664062 16.398438 35.707031 C 16.242188 35.75 16.074219 35.753906 15.890625 35.71875 C 15.925781 35.839844 15.933594 35.957031 15.917969 36.078125 C 15.898438 36.195312 15.851562 36.300781 15.769531 36.398438 C 15.675781 36.511719 15.550781 36.59375 15.390625 36.648438 C 15.230469 36.699219 15.054688 36.722656 14.871094 36.714844 C 14.6875 36.703125 14.5 36.664062 14.3125 36.597656 C 14.125 36.527344 13.953125 36.429688 13.800781 36.304688 C 13.636719 36.167969 13.519531 36.019531 13.449219 35.851562 C 13.378906 35.6875 13.355469 35.519531 13.378906 35.351562 C 13.453125 35.304688 13.546875 35.25 13.660156 35.183594 C 13.773438 35.121094 13.890625 35.054688 14.019531 34.984375 C 14.148438 34.914062 14.277344 34.847656 14.40625 34.78125 C 14.535156 34.714844 14.652344 34.652344 14.757812 34.605469 C 14.988281 34.492188 15.183594 34.402344 15.34375 34.335938 C 15.503906 34.273438 15.640625 34.226562 15.75 34.203125 C 15.605469 34.140625 15.46875 34.09375 15.335938 34.058594 C 15.203125 34.027344 15.097656 34.011719 15.019531 34.019531 C 15.007812 33.988281 15.003906 33.953125 15.007812 33.914062 C 15.007812 33.871094 15.011719 33.828125 15.019531 33.78125 C 15.027344 33.738281 15.039062 33.691406 15.054688 33.652344 C 15.066406 33.609375 15.085938 33.578125 15.101562 33.550781 C 15.191406 33.558594 15.289062 33.582031 15.40625 33.617188 C 15.523438 33.65625 15.644531 33.707031 15.765625 33.765625 C 15.890625 33.828125 16.011719 33.894531 16.132812 33.96875 C 16.253906 34.046875 16.363281 34.125 16.460938 34.207031 C 16.714844 34.417969 16.871094 34.632812 16.929688 34.851562 C 16.988281 35.070312 16.941406 35.269531 16.792969 35.449219 Z M 14.964844 35.203125 C 14.941406 35.152344 14.929688 35.089844 14.925781 35.027344 C 14.789062 35.09375 14.65625 35.160156 14.527344 35.226562 C 14.398438 35.292969 14.277344 35.355469 14.171875 35.417969 C 14.066406 35.476562 13.972656 35.53125 13.898438 35.578125 C 13.824219 35.628906 13.773438 35.664062 13.746094 35.691406 C 13.761719 35.734375 13.785156 35.777344 13.820312 35.816406 C 13.855469 35.859375 13.902344 35.90625 13.960938 35.957031 C 14.105469 36.078125 14.257812 36.171875 14.421875 36.238281 C 14.585938 36.308594 14.746094 36.347656 14.902344 36.363281 C 15.058594 36.378906 15.199219 36.367188 15.332031 36.328125 C 15.464844 36.285156 15.574219 36.21875 15.652344 36.121094 C 15.769531 35.984375 15.792969 35.832031 15.722656 35.671875 C 15.503906 35.601562 15.289062 35.484375 15.082031 35.3125 C 15.054688 35.289062 15.03125 35.269531 15.015625 35.253906 C 15 35.242188 14.984375 35.222656 14.964844 35.203125 Z M 16.488281 34.617188 C 16.445312 34.582031 16.394531 34.546875 16.339844 34.507812 C 16.289062 34.472656 16.230469 34.4375 16.164062 34.402344 C 16.167969 34.417969 16.164062 34.433594 16.164062 34.445312 C 16.160156 34.460938 16.15625 34.472656 16.152344 34.488281 C 16.113281 34.496094 16.058594 34.515625 15.992188 34.539062 C 15.925781 34.566406 15.847656 34.597656 15.761719 34.632812 C 15.671875 34.667969 15.578125 34.710938 15.476562 34.757812 C 15.375 34.804688 15.269531 34.855469 15.164062 34.90625 C 15.207031 34.925781 15.257812 34.957031 15.3125 34.992188 C 15.371094 35.03125 15.421875 35.070312 15.472656 35.113281 C 15.5 35.136719 15.527344 35.160156 15.550781 35.183594 C 15.574219 35.207031 15.597656 35.230469 15.621094 35.257812 C 15.734375 35.324219 15.847656 35.375 15.953125 35.410156 C 16.0625 35.445312 16.164062 35.464844 16.257812 35.472656 C 16.351562 35.476562 16.4375 35.464844 16.511719 35.441406 C 16.589844 35.414062 16.652344 35.371094 16.699219 35.3125 C 16.785156 35.210938 16.808594 35.101562 16.769531 34.984375 C 16.734375 34.867188 16.640625 34.742188 16.488281 34.617188 Z M 16.488281 34.617188 "/>
<path style=" stroke:none;fill-rule:nonzero;fill:rgb(0%,0%,0%);fill-opacity:1;" d="M 16.042969 37.214844 C 16.054688 37.195312 16.074219 37.167969 16.09375 37.136719 C 16.117188 37.109375 16.148438 37.070312 16.1875 37.019531 C 16.226562 36.972656 16.277344 36.914062 16.335938 36.847656 C 16.394531 36.78125 16.464844 36.699219 16.550781 36.605469 C 16.566406 36.585938 16.601562 36.554688 16.648438 36.511719 C 16.691406 36.46875 16.746094 36.425781 16.808594 36.382812 C 16.867188 36.339844 16.933594 36.300781 17.003906 36.269531 C 17.074219 36.238281 17.144531 36.222656 17.210938 36.226562 C 17.246094 36.261719 17.289062 36.316406 17.332031 36.394531 C 17.375 36.46875 17.402344 36.554688 17.410156 36.652344 C 17.320312 36.683594 17.238281 36.71875 17.167969 36.757812 C 17.097656 36.800781 17.027344 36.84375 16.960938 36.894531 C 16.890625 36.945312 16.824219 37 16.757812 37.054688 C 16.691406 37.113281 16.625 37.171875 16.546875 37.230469 C 16.484375 37.285156 16.421875 37.339844 16.359375 37.398438 C 16.296875 37.457031 16.253906 37.511719 16.21875 37.5625 C 16.195312 37.605469 16.175781 37.632812 16.167969 37.652344 C 16.15625 37.667969 16.144531 37.675781 16.132812 37.667969 C 16.121094 37.660156 16.105469 37.644531 16.085938 37.617188 C 16.0625 37.589844 16.042969 37.554688 16.027344 37.511719 C 16.011719 37.46875 16.003906 37.421875 16.003906 37.371094 C 16 37.320312 16.015625 37.269531 16.042969 37.214844 Z M 17.605469 36.054688 C 17.613281 36.039062 17.628906 36.019531 17.652344 35.996094 C 17.644531 35.976562 17.644531 35.953125 17.652344 35.925781 C 17.65625 35.894531 17.664062 35.871094 17.675781 35.855469 C 17.6875 35.832031 17.707031 35.804688 17.734375 35.769531 C 17.761719 35.738281 17.789062 35.703125 17.824219 35.664062 C 17.859375 35.628906 17.894531 35.589844 17.9375 35.550781 C 17.976562 35.511719 18.015625 35.480469 18.050781 35.449219 C 18.078125 35.464844 18.109375 35.492188 18.144531 35.53125 C 18.175781 35.570312 18.207031 35.613281 18.234375 35.664062 C 18.265625 35.714844 18.289062 35.765625 18.308594 35.8125 C 18.324219 35.863281 18.335938 35.90625 18.339844 35.945312 C 18.300781 35.957031 18.246094 35.972656 18.175781 35.992188 C 18.105469 36.015625 18.039062 36.042969 17.96875 36.070312 C 17.898438 36.097656 17.832031 36.125 17.773438 36.152344 C 17.714844 36.175781 17.675781 36.195312 17.65625 36.210938 C 17.628906 36.191406 17.613281 36.164062 17.601562 36.128906 C 17.59375 36.097656 17.59375 36.074219 17.605469 36.054688 Z M 17.605469 36.054688 "/>
<path style=" stroke:none;fill-rule:nonzero;fill:rgb(0%,0%,0%);fill-opacity:1;" d="M 17.542969 38.445312 C 17.410156 38.367188 17.324219 38.253906 17.285156 38.105469 C 17.25 37.957031 17.269531 37.796875 17.34375 37.628906 C 17.390625 37.527344 17.449219 37.429688 17.527344 37.335938 C 17.605469 37.242188 17.695312 37.15625 17.792969 37.082031 C 17.894531 37.003906 18 36.9375 18.117188 36.878906 C 18.230469 36.824219 18.347656 36.78125 18.464844 36.753906 C 18.644531 36.714844 18.796875 36.71875 18.917969 36.773438 C 18.980469 36.851562 19.019531 36.972656 19.035156 37.144531 C 19.046875 37.148438 19.058594 37.152344 19.070312 37.15625 C 19.082031 37.160156 19.09375 37.164062 19.105469 37.171875 C 19.238281 37.230469 19.25 37.375 19.148438 37.609375 C 19.078125 37.769531 18.984375 37.90625 18.871094 38.027344 C 18.757812 38.144531 18.628906 38.242188 18.488281 38.316406 C 18.347656 38.390625 18.195312 38.4375 18.03125 38.460938 C 17.871094 38.484375 17.710938 38.476562 17.542969 38.445312 Z M 18.257812 37.347656 C 18.191406 37.386719 18.125 37.429688 18.054688 37.480469 C 17.988281 37.53125 17.925781 37.585938 17.867188 37.644531 C 17.808594 37.699219 17.757812 37.757812 17.714844 37.8125 C 17.671875 37.871094 17.640625 37.925781 17.617188 37.972656 C 17.589844 38.035156 17.574219 38.097656 17.570312 38.160156 C 17.566406 38.222656 17.574219 38.265625 17.597656 38.285156 C 17.722656 38.308594 17.84375 38.308594 17.96875 38.28125 C 18.09375 38.253906 18.214844 38.203125 18.328125 38.132812 C 18.441406 38.058594 18.546875 37.96875 18.644531 37.855469 C 18.738281 37.742188 18.820312 37.609375 18.886719 37.464844 C 18.914062 37.398438 18.933594 37.34375 18.941406 37.304688 C 18.953125 37.261719 18.953125 37.226562 18.949219 37.191406 C 18.824219 37.171875 18.703125 37.183594 18.582031 37.21875 C 18.464844 37.25 18.355469 37.292969 18.257812 37.347656 Z M 18.257812 37.347656 "/>
<path style=" stroke:none;fill-rule:nonzero;fill:rgb(0%,0%,0%);fill-opacity:1;" d="M 19.382812 38.691406 C 19.390625 38.667969 19.402344 38.636719 19.414062 38.601562 C 19.429688 38.570312 19.449219 38.523438 19.476562 38.46875 C 19.503906 38.410156 19.539062 38.34375 19.582031 38.265625 C 19.621094 38.183594 19.671875 38.089844 19.730469 37.980469 C 19.746094 37.953125 19.769531 37.917969 19.804688 37.863281 C 19.839844 37.8125 19.878906 37.757812 19.929688 37.699219 C 19.976562 37.644531 20.03125 37.59375 20.09375 37.542969 C 20.152344 37.496094 20.21875 37.46875 20.289062 37.457031 C 20.328125 37.476562 20.378906 37.523438 20.441406 37.585938 C 20.503906 37.652344 20.546875 37.730469 20.578125 37.820312 C 20.5 37.871094 20.429688 37.925781 20.371094 37.980469 C 20.308594 38.039062 20.253906 38.097656 20.199219 38.164062 C 20.144531 38.226562 20.089844 38.296875 20.042969 38.367188 C 19.992188 38.4375 19.9375 38.511719 19.878906 38.589844 C 19.828125 38.652344 19.78125 38.722656 19.734375 38.792969 C 19.6875 38.863281 19.65625 38.925781 19.636719 38.984375 C 19.621094 39.03125 19.613281 39.066406 19.605469 39.085938 C 19.597656 39.105469 19.589844 39.113281 19.574219 39.109375 C 19.566406 39.105469 19.546875 39.09375 19.519531 39.070312 C 19.492188 39.046875 19.464844 39.019531 19.441406 38.980469 C 19.414062 38.945312 19.394531 38.902344 19.378906 38.851562 C 19.367188 38.800781 19.367188 38.75 19.382812 38.691406 Z M 20.625 37.195312 C 20.628906 37.179688 20.640625 37.15625 20.660156 37.125 C 20.648438 37.109375 20.644531 37.085938 20.640625 37.058594 C 20.640625 37.027344 20.640625 37.003906 20.648438 36.984375 C 20.65625 36.960938 20.667969 36.925781 20.6875 36.886719 C 20.703125 36.851562 20.726562 36.808594 20.75 36.761719 C 20.773438 36.71875 20.800781 36.675781 20.832031 36.628906 C 20.863281 36.582031 20.890625 36.539062 20.917969 36.5 C 20.949219 36.507812 20.984375 36.527344 21.027344 36.558594 C 21.070312 36.589844 21.109375 36.625 21.148438 36.667969 C 21.1875 36.707031 21.222656 36.75 21.253906 36.796875 C 21.28125 36.839844 21.304688 36.878906 21.316406 36.914062 C 21.28125 36.933594 21.230469 36.964844 21.167969 37 C 21.105469 37.039062 21.046875 37.078125 20.984375 37.125 C 20.921875 37.167969 20.867188 37.207031 20.816406 37.246094 C 20.765625 37.289062 20.730469 37.316406 20.714844 37.332031 C 20.683594 37.320312 20.660156 37.296875 20.644531 37.269531 C 20.625 37.238281 20.621094 37.214844 20.625 37.195312 Z M 20.625 37.195312 "/>
<path style=" stroke:none;fill-rule:nonzero;fill:rgb(0%,0%,0%);fill-opacity:1;" d="M 21.675781 37.441406 C 21.742188 37.472656 21.800781 37.53125 21.851562 37.617188 C 21.902344 37.699219 21.933594 37.789062 21.949219 37.882812 C 21.90625 37.953125 21.847656 38.03125 21.769531 38.125 C 21.691406 38.214844 21.613281 38.3125 21.53125 38.410156 C 21.453125 38.503906 21.378906 38.597656 21.316406 38.683594 C 21.25 38.773438 21.207031 38.847656 21.191406 38.90625 C 21.242188 38.867188 21.296875 38.824219 21.359375 38.773438 C 21.421875 38.71875 21.484375 38.667969 21.542969 38.613281 C 21.601562 38.5625 21.65625 38.511719 21.710938 38.46875 C 21.761719 38.425781 21.800781 38.394531 21.828125 38.375 C 21.886719 38.328125 21.957031 38.277344 22.039062 38.214844 C 22.121094 38.15625 22.207031 38.101562 22.292969 38.050781 C 22.382812 38 22.46875 37.957031 22.554688 37.925781 C 22.640625 37.890625 22.714844 37.882812 22.777344 37.890625 C 22.847656 37.902344 22.902344 37.9375 22.945312 37.992188 C 22.984375 38.046875 23.011719 38.101562 23.03125 38.15625 C 23.03125 38.164062 23.019531 38.167969 22.996094 38.175781 C 22.976562 38.179688 22.941406 38.203125 22.898438 38.238281 C 22.851562 38.28125 22.796875 38.34375 22.738281 38.421875 C 22.675781 38.496094 22.617188 38.582031 22.554688 38.671875 C 22.496094 38.765625 22.441406 38.859375 22.394531 38.957031 C 22.347656 39.054688 22.320312 39.144531 22.304688 39.230469 C 22.296875 39.296875 22.296875 39.339844 22.3125 39.363281 C 22.324219 39.386719 22.347656 39.398438 22.382812 39.402344 C 22.410156 39.410156 22.445312 39.40625 22.480469 39.398438 C 22.511719 39.390625 22.539062 39.386719 22.558594 39.390625 C 22.570312 39.398438 22.574219 39.410156 22.578125 39.429688 C 22.582031 39.449219 22.585938 39.464844 22.582031 39.476562 C 22.558594 39.492188 22.527344 39.507812 22.496094 39.519531 C 22.460938 39.535156 22.429688 39.546875 22.394531 39.558594 C 22.359375 39.570312 22.324219 39.578125 22.292969 39.585938 C 22.257812 39.589844 22.230469 39.589844 22.207031 39.585938 C 22.128906 39.574219 22.066406 39.554688 22.019531 39.523438 C 21.972656 39.492188 21.9375 39.453125 21.917969 39.410156 C 21.894531 39.371094 21.882812 39.320312 21.878906 39.265625 C 21.878906 39.210938 21.882812 39.15625 21.890625 39.097656 C 21.894531 39.0625 21.902344 39.027344 21.917969 38.988281 C 21.929688 38.949219 21.949219 38.902344 21.972656 38.847656 C 21.996094 38.796875 22.03125 38.734375 22.074219 38.664062 C 22.117188 38.589844 22.167969 38.503906 22.230469 38.402344 C 22.226562 38.402344 22.1875 38.414062 22.113281 38.441406 C 22.039062 38.46875 21.957031 38.515625 21.867188 38.582031 C 21.71875 38.683594 21.585938 38.785156 21.464844 38.886719 C 21.34375 38.988281 21.222656 39.105469 21.09375 39.234375 C 21.019531 39.308594 20.957031 39.371094 20.902344 39.421875 C 20.847656 39.472656 20.800781 39.503906 20.765625 39.515625 C 20.714844 39.476562 20.679688 39.421875 20.664062 39.359375 C 20.644531 39.296875 20.636719 39.234375 20.632812 39.171875 C 20.640625 39.121094 20.65625 39.058594 20.6875 38.980469 C 20.714844 38.90625 20.746094 38.820312 20.789062 38.730469 C 20.828125 38.636719 20.878906 38.542969 20.933594 38.441406 C 20.988281 38.34375 21.046875 38.246094 21.109375 38.148438 C 21.25 37.925781 21.375 37.753906 21.480469 37.632812 C 21.585938 37.511719 21.652344 37.449219 21.675781 37.441406 Z M 21.675781 37.441406 "/>
<g clip-path="url(#clip5)" clip-rule="nonzero">
<path style=" stroke:none;fill-rule:nonzero;fill:rgb(0%,0%,0%);fill-opacity:1;" d="M 23.675781 40.800781 C 23.605469 40.773438 23.566406 40.722656 23.550781 40.648438 C 23.539062 40.574219 23.488281 40.511719 23.40625 40.46875 C 23.425781 40.328125 23.449219 40.1875 23.472656 40.042969 C 23.5 39.902344 23.53125 39.738281 23.570312 39.558594 C 23.609375 39.375 23.660156 39.160156 23.71875 38.917969 C 23.777344 38.675781 23.855469 38.378906 23.945312 38.035156 C 23.855469 38.035156 23.785156 38.039062 23.734375 38.042969 C 23.683594 38.046875 23.632812 38.050781 23.582031 38.058594 C 23.570312 38.050781 23.5625 38.035156 23.554688 38.015625 C 23.546875 37.996094 23.542969 37.980469 23.542969 37.964844 C 23.570312 37.953125 23.625 37.9375 23.710938 37.917969 C 23.796875 37.898438 23.886719 37.878906 23.988281 37.863281 C 24.050781 37.65625 24.125 37.46875 24.207031 37.300781 C 24.289062 37.132812 24.375 36.992188 24.472656 36.871094 C 24.570312 36.753906 24.671875 36.660156 24.78125 36.59375 C 24.886719 36.53125 24.996094 36.496094 25.109375 36.496094 C 25.144531 36.496094 25.175781 36.496094 25.203125 36.5 C 25.234375 36.503906 25.257812 36.503906 25.273438 36.503906 C 25.300781 36.484375 25.332031 36.46875 25.371094 36.453125 C 25.414062 36.4375 25.449219 36.425781 25.480469 36.425781 C 25.511719 36.425781 25.554688 36.441406 25.605469 36.476562 C 25.585938 36.515625 25.5625 36.570312 25.539062 36.632812 C 25.515625 36.699219 25.496094 36.765625 25.480469 36.828125 C 25.417969 37.03125 25.347656 37.164062 25.269531 37.226562 C 25.242188 37.226562 25.222656 37.1875 25.21875 37.109375 C 25.214844 37.050781 25.207031 36.996094 25.191406 36.941406 C 25.179688 36.917969 25.171875 36.894531 25.167969 36.875 C 25.164062 36.855469 25.160156 36.832031 25.160156 36.800781 C 25.160156 36.785156 25.160156 36.765625 25.164062 36.742188 C 25.167969 36.71875 25.171875 36.679688 25.179688 36.625 C 25.132812 36.625 25.082031 36.65625 25.027344 36.714844 C 24.972656 36.773438 24.914062 36.855469 24.855469 36.960938 C 24.792969 37.066406 24.734375 37.195312 24.671875 37.339844 C 24.613281 37.484375 24.554688 37.648438 24.503906 37.824219 L 24.847656 37.804688 C 24.859375 37.816406 24.871094 37.847656 24.882812 37.894531 C 24.894531 37.945312 24.898438 37.992188 24.902344 38.046875 L 24.453125 38.027344 C 24.355469 38.339844 24.261719 38.636719 24.175781 38.917969 C 24.089844 39.203125 24.015625 39.464844 23.949219 39.703125 C 23.882812 39.941406 23.824219 40.15625 23.777344 40.34375 C 23.730469 40.535156 23.695312 40.683594 23.675781 40.800781 Z M 23.675781 40.800781 "/>
</g>
<path style=" stroke:none;fill-rule:nonzero;fill:rgb(0%,0%,0%);fill-opacity:1;" d="M 25.761719 39.660156 C 25.605469 39.664062 25.472656 39.609375 25.367188 39.5 C 25.261719 39.390625 25.199219 39.246094 25.175781 39.058594 C 25.164062 38.949219 25.167969 38.835938 25.1875 38.714844 C 25.207031 38.59375 25.238281 38.476562 25.285156 38.359375 C 25.332031 38.242188 25.390625 38.128906 25.460938 38.023438 C 25.53125 37.917969 25.609375 37.820312 25.699219 37.738281 C 25.832031 37.613281 25.96875 37.539062 26.097656 37.523438 C 26.191406 37.5625 26.285156 37.648438 26.386719 37.785156 C 26.402344 37.78125 26.414062 37.78125 26.425781 37.777344 C 26.433594 37.777344 26.449219 37.773438 26.460938 37.773438 C 26.605469 37.753906 26.691406 37.875 26.722656 38.128906 C 26.742188 38.300781 26.730469 38.46875 26.695312 38.625 C 26.65625 38.785156 26.59375 38.933594 26.507812 39.070312 C 26.425781 39.207031 26.320312 39.328125 26.191406 39.425781 C 26.0625 39.53125 25.921875 39.609375 25.761719 39.660156 Z M 25.820312 38.355469 C 25.78125 38.421875 25.746094 38.496094 25.714844 38.574219 C 25.683594 38.652344 25.65625 38.726562 25.636719 38.804688 C 25.613281 38.886719 25.597656 38.960938 25.589844 39.03125 C 25.582031 39.101562 25.582031 39.164062 25.585938 39.21875 C 25.59375 39.285156 25.613281 39.347656 25.640625 39.402344 C 25.671875 39.460938 25.699219 39.492188 25.726562 39.496094 C 25.84375 39.453125 25.953125 39.390625 26.042969 39.304688 C 26.136719 39.21875 26.214844 39.113281 26.277344 38.996094 C 26.339844 38.875 26.382812 38.742188 26.410156 38.59375 C 26.433594 38.449219 26.4375 38.296875 26.421875 38.136719 C 26.414062 38.066406 26.402344 38.007812 26.386719 37.96875 C 26.375 37.929688 26.359375 37.894531 26.335938 37.867188 C 26.21875 37.917969 26.121094 37.988281 26.035156 38.078125 C 25.949219 38.167969 25.878906 38.257812 25.820312 38.355469 Z M 25.820312 38.355469 "/>
<path style=" stroke:none;fill-rule:nonzero;fill:rgb(0%,0%,0%);fill-opacity:1;" d="M 29.242188 38.992188 C 29.109375 39.007812 29.007812 39.007812 28.949219 38.992188 C 28.886719 38.972656 28.84375 38.941406 28.824219 38.886719 C 28.808594 38.847656 28.796875 38.785156 28.789062 38.703125 C 28.78125 38.617188 28.777344 38.519531 28.78125 38.402344 C 28.785156 38.28125 28.792969 38.148438 28.804688 38.003906 C 28.816406 37.855469 28.835938 37.695312 28.855469 37.527344 C 28.789062 37.550781 28.730469 37.570312 28.675781 37.59375 C 28.625 37.613281 28.582031 37.628906 28.546875 37.644531 C 28.546875 37.597656 28.578125 37.546875 28.636719 37.492188 C 28.695312 37.433594 28.78125 37.371094 28.886719 37.304688 C 28.917969 37.097656 28.960938 36.898438 29.011719 36.703125 C 29.0625 36.507812 29.121094 36.324219 29.183594 36.152344 C 29.246094 35.980469 29.3125 35.824219 29.390625 35.679688 C 29.464844 35.539062 29.542969 35.421875 29.625 35.320312 C 29.617188 35.304688 29.613281 35.285156 29.609375 35.273438 C 29.605469 35.261719 29.605469 35.25 29.601562 35.246094 C 29.636719 35.230469 29.6875 35.222656 29.753906 35.214844 C 29.820312 35.207031 29.886719 35.207031 29.957031 35.207031 C 30.023438 35.210938 30.085938 35.214844 30.140625 35.222656 C 30.195312 35.230469 30.226562 35.242188 30.242188 35.257812 C 30.21875 35.441406 30.226562 35.695312 30.265625 36.019531 C 30.304688 36.34375 30.378906 36.722656 30.492188 37.152344 C 30.523438 37.257812 30.558594 37.378906 30.601562 37.511719 C 30.648438 37.644531 30.703125 37.789062 30.765625 37.949219 C 30.789062 38.003906 30.8125 38.0625 30.835938 38.117188 C 30.859375 38.175781 30.886719 38.238281 30.917969 38.296875 C 30.914062 38.300781 30.910156 38.304688 30.90625 38.308594 C 30.902344 38.308594 30.890625 38.3125 30.875 38.320312 C 30.839844 38.335938 30.796875 38.347656 30.742188 38.355469 C 30.691406 38.363281 30.640625 38.367188 30.589844 38.367188 C 30.539062 38.371094 30.496094 38.367188 30.453125 38.359375 C 30.414062 38.351562 30.386719 38.34375 30.375 38.332031 C 30.359375 38.300781 30.34375 38.265625 30.332031 38.234375 C 30.316406 38.203125 30.304688 38.171875 30.289062 38.136719 C 30.226562 37.976562 30.164062 37.816406 30.109375 37.648438 C 30.054688 37.484375 30.007812 37.308594 29.964844 37.125 C 29.925781 37.136719 29.878906 37.152344 29.820312 37.171875 C 29.757812 37.191406 29.691406 37.214844 29.621094 37.242188 C 29.546875 37.269531 29.46875 37.300781 29.382812 37.328125 C 29.300781 37.359375 29.21875 37.386719 29.140625 37.417969 C 29.125 37.558594 29.113281 37.691406 29.109375 37.828125 C 29.101562 37.960938 29.101562 38.09375 29.109375 38.222656 C 29.117188 38.363281 29.132812 38.5 29.15625 38.628906 C 29.179688 38.761719 29.207031 38.882812 29.242188 38.992188 Z M 29.773438 36.109375 C 29.769531 36.070312 29.761719 36.019531 29.75 35.949219 C 29.738281 35.882812 29.726562 35.8125 29.710938 35.738281 C 29.65625 35.789062 29.601562 35.859375 29.550781 35.949219 C 29.496094 36.042969 29.449219 36.152344 29.402344 36.273438 C 29.359375 36.398438 29.316406 36.535156 29.277344 36.679688 C 29.238281 36.828125 29.207031 36.980469 29.179688 37.140625 C 29.386719 37.035156 29.621094 36.925781 29.890625 36.808594 C 29.867188 36.695312 29.847656 36.578125 29.828125 36.464844 C 29.808594 36.347656 29.792969 36.230469 29.773438 36.109375 Z M 29.773438 36.109375 "/>
<path style=" stroke:none;fill-rule:nonzero;fill:rgb(0%,0%,0%);fill-opacity:1;" d="M 31.210938 35.492188 C 31.28125 35.472656 31.367188 35.476562 31.457031 35.503906 C 31.550781 35.535156 31.636719 35.578125 31.710938 35.640625 C 31.726562 35.71875 31.734375 35.816406 31.734375 35.9375 C 31.738281 36.058594 31.742188 36.183594 31.75 36.308594 C 31.753906 36.433594 31.761719 36.550781 31.769531 36.660156 C 31.78125 36.769531 31.796875 36.851562 31.824219 36.910156 C 31.835938 36.847656 31.847656 36.773438 31.859375 36.695312 C 31.871094 36.613281 31.882812 36.535156 31.894531 36.453125 C 31.902344 36.375 31.910156 36.304688 31.921875 36.234375 C 31.929688 36.171875 31.941406 36.121094 31.945312 36.085938 C 31.960938 36.011719 31.980469 35.925781 32 35.828125 C 32.019531 35.726562 32.046875 35.628906 32.078125 35.535156 C 32.109375 35.4375 32.144531 35.347656 32.1875 35.265625 C 32.230469 35.1875 32.28125 35.128906 32.335938 35.09375 C 32.394531 35.054688 32.457031 35.042969 32.523438 35.058594 C 32.589844 35.074219 32.648438 35.09375 32.699219 35.125 C 32.703125 35.128906 32.699219 35.140625 32.6875 35.15625 C 32.675781 35.175781 32.664062 35.214844 32.65625 35.273438 C 32.648438 35.335938 32.648438 35.417969 32.65625 35.515625 C 32.660156 35.613281 32.671875 35.714844 32.6875 35.824219 C 32.703125 35.933594 32.726562 36.039062 32.757812 36.144531 C 32.789062 36.246094 32.828125 36.335938 32.871094 36.40625 C 32.910156 36.464844 32.941406 36.496094 32.964844 36.503906 C 32.992188 36.507812 33.019531 36.503906 33.046875 36.484375 C 33.070312 36.46875 33.09375 36.445312 33.113281 36.417969 C 33.132812 36.386719 33.152344 36.367188 33.167969 36.359375 C 33.179688 36.355469 33.195312 36.359375 33.210938 36.371094 C 33.226562 36.382812 33.238281 36.394531 33.242188 36.40625 C 33.234375 36.433594 33.222656 36.464844 33.207031 36.496094 C 33.191406 36.53125 33.175781 36.5625 33.15625 36.59375 C 33.140625 36.625 33.121094 36.652344 33.097656 36.679688 C 33.078125 36.707031 33.058594 36.726562 33.035156 36.738281 C 32.96875 36.78125 32.910156 36.808594 32.851562 36.816406 C 32.796875 36.824219 32.75 36.816406 32.703125 36.800781 C 32.660156 36.785156 32.617188 36.757812 32.582031 36.71875 C 32.542969 36.679688 32.507812 36.632812 32.472656 36.582031 C 32.457031 36.554688 32.4375 36.523438 32.421875 36.484375 C 32.402344 36.445312 32.386719 36.398438 32.371094 36.34375 C 32.355469 36.289062 32.335938 36.21875 32.320312 36.136719 C 32.304688 36.054688 32.285156 35.957031 32.265625 35.839844 C 32.261719 35.839844 32.242188 35.878906 32.203125 35.945312 C 32.167969 36.015625 32.136719 36.105469 32.113281 36.214844 C 32.070312 36.386719 32.039062 36.550781 32.015625 36.710938 C 31.996094 36.867188 31.980469 37.035156 31.96875 37.214844 C 31.964844 37.320312 31.957031 37.410156 31.953125 37.484375 C 31.945312 37.558594 31.933594 37.613281 31.917969 37.644531 C 31.851562 37.648438 31.789062 37.632812 31.734375 37.597656 C 31.679688 37.5625 31.628906 37.523438 31.585938 37.476562 C 31.558594 37.433594 31.527344 37.375 31.5 37.296875 C 31.46875 37.222656 31.4375 37.140625 31.40625 37.042969 C 31.375 36.945312 31.347656 36.84375 31.324219 36.734375 C 31.296875 36.625 31.277344 36.511719 31.257812 36.394531 C 31.214844 36.136719 31.195312 35.925781 31.195312 35.765625 C 31.191406 35.601562 31.199219 35.511719 31.210938 35.492188 Z M 31.210938 35.492188 "/>
<path style=" stroke:none;fill-rule:nonzero;fill:rgb(0%,0%,0%);fill-opacity:1;" d="M 33.910156 33.785156 C 33.933594 33.765625 33.960938 33.75 33.992188 33.730469 C 34.027344 33.714844 34.058594 33.703125 34.09375 33.691406 C 34.125 33.683594 34.15625 33.679688 34.179688 33.675781 C 34.207031 33.675781 34.222656 33.679688 34.234375 33.691406 C 34.269531 33.8125 34.308594 33.933594 34.351562 34.050781 C 34.394531 34.167969 34.4375 34.277344 34.484375 34.378906 C 34.53125 34.480469 34.578125 34.570312 34.628906 34.652344 C 34.675781 34.734375 34.722656 34.800781 34.769531 34.851562 C 34.820312 34.90625 34.871094 34.949219 34.914062 34.976562 C 34.960938 35.003906 35.007812 35.011719 35.050781 35.003906 C 35.039062 35.039062 35.019531 35.082031 34.992188 35.128906 C 34.960938 35.171875 34.929688 35.207031 34.898438 35.234375 C 34.789062 35.335938 34.667969 35.308594 34.53125 35.15625 C 34.429688 35.039062 34.324219 34.847656 34.222656 34.574219 C 34.265625 34.707031 34.296875 34.835938 34.316406 34.964844 C 34.339844 35.097656 34.351562 35.21875 34.351562 35.328125 C 34.351562 35.441406 34.34375 35.542969 34.324219 35.632812 C 34.300781 35.722656 34.273438 35.792969 34.234375 35.84375 C 34.152344 35.90625 34.058594 35.925781 33.953125 35.898438 C 33.84375 35.871094 33.742188 35.804688 33.648438 35.699219 C 33.546875 35.585938 33.460938 35.445312 33.398438 35.273438 C 33.332031 35.105469 33.292969 34.929688 33.273438 34.753906 C 33.253906 34.578125 33.253906 34.414062 33.28125 34.261719 C 33.304688 34.109375 33.355469 33.992188 33.4375 33.914062 C 33.460938 33.902344 33.496094 33.894531 33.539062 33.890625 C 33.582031 33.882812 33.625 33.882812 33.667969 33.886719 C 33.714844 33.890625 33.757812 33.898438 33.796875 33.910156 C 33.835938 33.917969 33.863281 33.933594 33.882812 33.949219 C 33.8125 34.035156 33.761719 34.148438 33.734375 34.292969 C 33.710938 34.4375 33.703125 34.589844 33.71875 34.75 C 33.734375 34.90625 33.765625 35.058594 33.816406 35.207031 C 33.871094 35.355469 33.9375 35.476562 34.019531 35.570312 C 34.054688 35.609375 34.09375 35.621094 34.128906 35.605469 C 34.175781 35.539062 34.199219 35.429688 34.199219 35.269531 C 34.199219 35.113281 34.167969 34.890625 34.113281 34.609375 C 34.101562 34.550781 34.085938 34.492188 34.070312 34.421875 C 34.058594 34.355469 34.042969 34.285156 34.023438 34.214844 C 34.007812 34.140625 33.988281 34.070312 33.96875 33.996094 C 33.949219 33.921875 33.929688 33.851562 33.910156 33.785156 Z M 33.910156 33.785156 "/>
<path style=" stroke:none;fill-rule:nonzero;fill:rgb(0%,0%,0%);fill-opacity:1;" d="M 35.496094 34.097656 C 35.402344 34.019531 35.289062 33.890625 35.15625 33.707031 C 35.027344 33.527344 34.882812 33.300781 34.722656 33.039062 C 34.472656 32.613281 34.277344 32.246094 34.132812 31.933594 C 33.992188 31.625 33.898438 31.359375 33.855469 31.140625 C 33.878906 31.117188 33.917969 31.09375 33.964844 31.074219 C 34.011719 31.050781 34.058594 31.027344 34.109375 31.007812 C 34.160156 30.988281 34.207031 30.972656 34.25 30.964844 C 34.292969 30.953125 34.328125 30.949219 34.347656 30.949219 C 34.40625 31.273438 34.496094 31.589844 34.617188 31.898438 C 34.738281 32.207031 34.902344 32.53125 35.105469 32.875 C 35.28125 33.167969 35.453125 33.421875 35.613281 33.632812 C 35.773438 33.84375 35.921875 34 36.054688 34.109375 C 36.09375 34.140625 36.113281 34.160156 36.121094 34.164062 C 36.128906 34.171875 36.140625 34.179688 36.148438 34.183594 C 36.121094 34.210938 36.09375 34.230469 36.066406 34.242188 C 36.039062 34.253906 36.015625 34.257812 35.992188 34.25 C 35.980469 34.246094 35.953125 34.246094 35.917969 34.25 C 35.882812 34.25 35.855469 34.253906 35.832031 34.261719 C 35.800781 34.269531 35.757812 34.257812 35.691406 34.226562 C 35.628906 34.195312 35.5625 34.152344 35.496094 34.097656 Z M 35.496094 34.097656 "/>
<path style=" stroke:none;fill-rule:nonzero;fill:rgb(0%,0%,0%);fill-opacity:1;" d="M 36.871094 31.472656 C 37.003906 31.628906 37.125 31.78125 37.230469 31.921875 C 37.335938 32.0625 37.429688 32.199219 37.507812 32.332031 C 37.585938 32.464844 37.65625 32.597656 37.707031 32.730469 C 37.761719 32.859375 37.808594 32.996094 37.84375 33.136719 C 37.886719 33.3125 37.902344 33.476562 37.890625 33.625 C 37.878906 33.777344 37.835938 33.910156 37.765625 34.023438 C 37.730469 34.078125 37.6875 34.132812 37.640625 34.179688 C 37.589844 34.230469 37.539062 34.273438 37.484375 34.308594 C 37.433594 34.34375 37.378906 34.371094 37.328125 34.390625 C 37.273438 34.414062 37.226562 34.421875 37.183594 34.414062 C 37.15625 34.398438 37.140625 34.367188 37.140625 34.320312 C 37.183594 34.308594 37.21875 34.300781 37.246094 34.289062 C 37.269531 34.28125 37.292969 34.269531 37.3125 34.257812 C 37.332031 34.246094 37.351562 34.230469 37.363281 34.214844 C 37.378906 34.195312 37.394531 34.171875 37.410156 34.148438 C 37.492188 34.015625 37.535156 33.863281 37.539062 33.6875 C 37.539062 33.511719 37.503906 33.324219 37.433594 33.121094 C 37.363281 32.917969 37.253906 32.707031 37.109375 32.488281 C 36.964844 32.269531 36.789062 32.046875 36.578125 31.824219 C 36.605469 31.886719 36.640625 31.957031 36.679688 32.042969 C 36.71875 32.128906 36.753906 32.21875 36.789062 32.316406 C 36.820312 32.410156 36.84375 32.503906 36.863281 32.59375 C 36.878906 32.683594 36.882812 32.761719 36.867188 32.824219 C 36.839844 32.859375 36.808594 32.894531 36.769531 32.929688 C 36.730469 32.960938 36.691406 32.988281 36.644531 33.007812 C 36.597656 33.03125 36.550781 33.042969 36.5 33.050781 C 36.453125 33.058594 36.402344 33.054688 36.355469 33.035156 C 36.289062 32.996094 36.234375 32.957031 36.199219 32.929688 C 36.160156 32.898438 36.121094 32.863281 36.078125 32.820312 C 36.003906 32.746094 35.925781 32.652344 35.839844 32.539062 C 35.753906 32.429688 35.671875 32.3125 35.601562 32.191406 C 35.527344 32.070312 35.464844 31.945312 35.410156 31.820312 C 35.359375 31.695312 35.328125 31.582031 35.320312 31.472656 C 35.332031 31.457031 35.347656 31.433594 35.371094 31.410156 C 35.390625 31.382812 35.414062 31.359375 35.445312 31.332031 C 35.472656 31.308594 35.5 31.289062 35.53125 31.269531 C 35.5625 31.246094 35.59375 31.234375 35.628906 31.226562 C 35.632812 31.265625 35.675781 31.371094 35.753906 31.539062 C 35.832031 31.707031 35.964844 31.921875 36.144531 32.183594 C 36.164062 32.210938 36.191406 32.246094 36.230469 32.292969 C 36.269531 32.34375 36.308594 32.390625 36.355469 32.4375 C 36.398438 32.484375 36.441406 32.53125 36.484375 32.574219 C 36.527344 32.621094 36.566406 32.652344 36.59375 32.667969 C 36.613281 32.679688 36.628906 32.6875 36.640625 32.6875 C 36.65625 32.6875 36.667969 32.6875 36.675781 32.683594 C 36.691406 32.640625 36.695312 32.5625 36.675781 32.453125 C 36.660156 32.34375 36.613281 32.207031 36.539062 32.035156 C 36.488281 31.929688 36.4375 31.824219 36.386719 31.726562 C 36.332031 31.628906 36.277344 31.53125 36.222656 31.433594 C 36.167969 31.335938 36.113281 31.238281 36.054688 31.132812 C 36 31.027344 35.941406 30.917969 35.882812 30.804688 C 35.902344 30.777344 35.925781 30.746094 35.953125 30.714844 C 35.984375 30.683594 36.011719 30.65625 36.042969 30.632812 C 36.074219 30.605469 36.105469 30.582031 36.132812 30.566406 C 36.160156 30.550781 36.183594 30.542969 36.207031 30.539062 C 36.3125 30.707031 36.421875 30.867188 36.527344 31.023438 C 36.632812 31.175781 36.746094 31.324219 36.871094 31.472656 Z M 36.871094 31.472656 "/>
<path style=" stroke:none;fill-rule:nonzero;fill:rgb(0%,0%,0%);fill-opacity:1;" d="M 37.003906 29.027344 C 37.050781 29.050781 37.09375 29.082031 37.140625 29.121094 C 37.183594 29.15625 37.222656 29.195312 37.253906 29.234375 C 37.285156 29.273438 37.308594 29.308594 37.328125 29.34375 C 37.34375 29.378906 37.347656 29.40625 37.339844 29.425781 C 37.324219 29.453125 37.296875 29.460938 37.261719 29.449219 C 37.253906 29.445312 37.242188 29.4375 37.230469 29.425781 C 37.214844 29.410156 37.199219 29.394531 37.183594 29.378906 C 37.167969 29.363281 37.152344 29.347656 37.136719 29.332031 C 37.117188 29.316406 37.101562 29.304688 37.085938 29.296875 C 37.050781 29.28125 37.019531 29.273438 36.988281 29.28125 C 36.957031 29.285156 36.933594 29.300781 36.921875 29.328125 C 36.875 29.425781 36.902344 29.53125 37.003906 29.640625 C 37.101562 29.753906 37.273438 29.863281 37.511719 29.976562 C 37.539062 29.988281 37.554688 29.992188 37.558594 29.992188 C 37.582031 29.9375 37.601562 29.890625 37.617188 29.851562 C 37.636719 29.808594 37.65625 29.765625 37.671875 29.726562 C 37.679688 29.726562 37.691406 29.730469 37.707031 29.738281 C 37.726562 29.75 37.742188 29.761719 37.746094 29.777344 C 37.730469 29.839844 37.722656 29.890625 37.714844 29.925781 C 37.707031 29.964844 37.703125 29.992188 37.703125 30.015625 C 37.703125 30.035156 37.707031 30.050781 37.714844 30.058594 C 37.71875 30.0625 37.730469 30.070312 37.746094 30.078125 C 37.765625 30.085938 37.785156 30.097656 37.804688 30.105469 C 37.828125 30.113281 37.851562 30.125 37.882812 30.136719 C 38.089844 30.234375 38.230469 30.367188 38.304688 30.539062 C 38.378906 30.710938 38.378906 30.902344 38.304688 31.113281 C 38.285156 31.148438 38.257812 31.179688 38.226562 31.207031 C 38.191406 31.238281 38.152344 31.261719 38.109375 31.28125 C 38.066406 31.300781 38.023438 31.316406 37.976562 31.328125 C 37.929688 31.335938 37.890625 31.335938 37.851562 31.332031 C 37.757812 31.289062 37.675781 31.226562 37.609375 31.148438 C 37.542969 31.066406 37.492188 30.976562 37.457031 30.878906 C 37.421875 30.78125 37.40625 30.675781 37.410156 30.5625 C 37.410156 30.449219 37.433594 30.339844 37.476562 30.226562 C 37.414062 30.195312 37.351562 30.175781 37.289062 30.160156 C 37.222656 30.144531 37.160156 30.128906 37.097656 30.117188 C 37.035156 30.105469 36.972656 30.09375 36.914062 30.082031 C 36.855469 30.066406 36.800781 30.050781 36.746094 30.023438 C 36.679688 29.992188 36.621094 29.949219 36.566406 29.890625 C 36.515625 29.832031 36.46875 29.769531 36.433594 29.699219 C 36.402344 29.628906 36.378906 29.554688 36.363281 29.476562 C 36.355469 29.398438 36.355469 29.324219 36.371094 29.25 C 36.390625 29.230469 36.429688 29.203125 36.484375 29.171875 C 36.542969 29.144531 36.605469 29.117188 36.671875 29.09375 C 36.734375 29.070312 36.800781 29.050781 36.859375 29.039062 C 36.921875 29.023438 36.972656 29.019531 37.003906 29.027344 Z M 38.128906 31.042969 C 38.132812 30.972656 38.121094 30.902344 38.101562 30.824219 C 38.078125 30.75 38.046875 30.679688 38.003906 30.609375 C 37.964844 30.542969 37.914062 30.484375 37.859375 30.429688 C 37.804688 30.375 37.742188 30.332031 37.679688 30.300781 C 37.664062 30.355469 37.660156 30.417969 37.671875 30.496094 C 37.683594 30.574219 37.703125 30.652344 37.730469 30.726562 C 37.761719 30.804688 37.792969 30.875 37.835938 30.933594 C 37.875 30.996094 37.917969 31.039062 37.960938 31.058594 C 38.015625 31.082031 38.070312 31.078125 38.128906 31.042969 Z M 38.128906 31.042969 "/>
<path style=" stroke:none;fill-rule:nonzero;fill:rgb(0%,0%,0%);fill-opacity:1;" d="M 37.296875 28.316406 L 37.222656 28.539062 C 37.203125 28.546875 37.167969 28.546875 37.113281 28.539062 C 37.058594 28.535156 37.011719 28.523438 36.976562 28.511719 C 37.003906 28.445312 37.03125 28.382812 37.058594 28.320312 C 37.082031 28.261719 37.105469 28.207031 37.125 28.15625 C 37.058594 28.089844 36.996094 28.023438 36.933594 27.949219 C 36.875 27.878906 36.820312 27.8125 36.769531 27.746094 C 36.722656 27.683594 36.683594 27.625 36.652344 27.570312 C 36.621094 27.519531 36.601562 27.480469 36.59375 27.453125 C 36.605469 27.429688 36.621094 27.398438 36.640625 27.359375 C 36.664062 27.324219 36.691406 27.285156 36.71875 27.25 C 36.746094 27.214844 36.773438 27.179688 36.800781 27.152344 C 36.828125 27.125 36.851562 27.105469 36.871094 27.097656 C 36.945312 27.210938 37.011719 27.308594 37.078125 27.390625 C 37.144531 27.476562 37.21875 27.570312 37.304688 27.671875 C 37.324219 27.617188 37.339844 27.566406 37.355469 27.511719 C 37.371094 27.457031 37.386719 27.402344 37.398438 27.347656 C 37.417969 27.335938 37.4375 27.332031 37.457031 27.332031 C 37.480469 27.332031 37.5 27.332031 37.523438 27.339844 C 37.527344 27.484375 37.5 27.644531 37.441406 27.828125 C 37.546875 27.9375 37.648438 28.035156 37.753906 28.128906 C 37.859375 28.21875 37.964844 28.300781 38.066406 28.375 C 38.167969 28.449219 38.269531 28.515625 38.363281 28.566406 C 38.457031 28.621094 38.542969 28.660156 38.625 28.6875 C 38.738281 28.726562 38.816406 28.707031 38.859375 28.625 C 38.875 28.542969 38.878906 28.464844 38.875 28.382812 C 38.871094 28.304688 38.855469 28.230469 38.828125 28.160156 C 38.859375 28.152344 38.878906 28.152344 38.898438 28.152344 C 38.914062 28.175781 38.933594 28.210938 38.953125 28.261719 C 38.96875 28.308594 38.984375 28.359375 39 28.414062 C 39.015625 28.46875 39.027344 28.519531 39.035156 28.570312 C 39.039062 28.617188 39.042969 28.652344 39.035156 28.671875 C 39.011719 28.738281 38.976562 28.796875 38.929688 28.851562 C 38.878906 28.910156 38.828125 28.957031 38.769531 28.996094 C 38.714844 29.035156 38.65625 29.066406 38.597656 29.082031 C 38.539062 29.101562 38.484375 29.101562 38.4375 29.085938 C 38.375 29.0625 38.300781 29.03125 38.210938 28.980469 C 38.121094 28.933594 38.027344 28.871094 37.925781 28.804688 C 37.828125 28.734375 37.722656 28.660156 37.613281 28.574219 C 37.507812 28.492188 37.402344 28.40625 37.296875 28.316406 Z M 37.296875 28.316406 "/>
<path style=" stroke:none;fill-rule:nonzero;fill:rgb(0%,0%,0%);fill-opacity:1;" d="M 8.890625 23.875 C 8.890625 23.664062 9.0625 23.496094 9.273438 23.496094 C 9.484375 23.496094 9.652344 23.664062 9.652344 23.875 C 9.652344 24.085938 9.484375 24.257812 9.273438 24.257812 C 9.0625 24.257812 8.890625 24.085938 8.890625 23.875 Z M 8.890625 23.875 "/>
<path style=" stroke:none;fill-rule:nonzero;fill:rgb(0%,0%,0%);fill-opacity:1;" d="M 38.121094 23.875 C 38.121094 23.664062 38.292969 23.496094 38.503906 23.496094 C 38.714844 23.496094 38.886719 23.664062 38.886719 23.875 C 38.886719 24.085938 38.714844 24.257812 38.503906 24.257812 C 38.292969 24.257812 38.121094 24.085938 38.121094 23.875 Z M 38.121094 23.875 "/>
</g>
</svg>
