<svg xmlns="http://www.w3.org/2000/svg" version="1.1" xmlns:xlink="http://www.w3.org/1999/xlink" xmlns:svgjs="http://svgjs.dev/svgjs" width="2000" height="1500" viewBox="0 0 2000 1500"><rect width="2000" height="1500" fill="#ffffff"></rect><g transform="matrix(0.75,0,0,0.75,250,0.00030134164819628495)"><svg viewBox="0 0 280 280" data-background-color="#ffffff" preserveAspectRatio="xMidYMid meet" height="2000" width="2000" xmlns="http://www.w3.org/2000/svg" xmlns:xlink="http://www.w3.org/1999/xlink"><g id="tight-bounds" transform="matrix(1,0,0,1,0,0.00005624955900884743)"><svg viewBox="0 0 280 280" height="280" width="280"><g><svg viewBox="0 0 280 280" height="280" width="280"><g><svg viewBox="0 0 280 280" height="280" width="280"><g id="textblocktransform"><svg viewBox="0 0 280 280" height="280" width="280" id="textblock"><g><svg viewBox="0 0 280 280" height="280" width="280"><g transform="matrix(1,0,0,1,57.50420886156945,57.50420886156945)"><svg viewBox="0 0 164.9915822768611 164.9915822768611" height="164.9915822768611" width="164.9915822768611"><g><circle r="82" cx="82.49579113843055" cy="82.49579113843055" fill="#8dbdff" data-fill-palette-color="accent"></circle><svg version="1.1" xmlns="http://www.w3.org/2000/svg" xmlns:xlink="http://www.w3.org/1999/xlink" x="24.748737341529164" y="24.74873734152917" viewBox="0 0 42.10399627685547 100" enable-background="new 0 0 42.103 100" xml:space="preserve" width="115.49410759380275" height="115.49410759380275" class="icon-o-0" data-fill-palette-color="quaternary" id="o-0"><path fill="#ffffff" d="M11.804 62.666h18.469c-1.577 2.285-3.434 4.057-5.148 5.373-2.895 2.221-5.388 3.184-5.448 3.205-0.188 0.068-1.373 0.52-3.064 1.434-0.006 0.004-0.012 0.008-0.02 0.01-1.879 1.019-4.382 2.606-6.879 4.898C4.836 82.064 0.001 89.221 0.001 100h8c0-0.697 0.038-1.367 0.089-2.025h25.925c0.051 0.658 0.088 1.328 0.088 2.025h8c0-10.768-4.823-17.919-9.697-22.398-1.912 1.451-3.686 2.525-4.996 3.234l-0.221 0.117c-0.805 0.427-1.493 0.755-2.041 1.002 1.744 1.334 3.629 3.134 5.221 5.477H11.734c1.593-2.342 3.479-4.144 5.228-5.479 2.803-2.145 5.243-3.11 5.483-3.201 0.184-0.066 1.358-0.518 3.042-1.424 0.007-0.003 0.013-0.008 0.021-0.01 1.879-1.014 4.385-2.604 6.885-4.9 4.877-4.48 9.711-11.633 9.711-22.415 0-10.777-4.83-17.932-9.709-22.411-2.987 2.27-5.707 3.665-7.246 4.362 1.744 1.336 3.631 3.136 5.223 5.478H11.74c1.841-2.713 4.076-4.704 6.033-6.084 1.026-0.724 1.96-1.274 2.731-1.683l2.688-1.217c1.386-0.595 4.466-2.09 7.752-4.778C36.261 19.319 42.101 11.85 42.101 0h-8c0 0.736-0.059 1.428-0.117 2.12H8.101C8.041 1.433 8 0.731 8 0H0c0 10.776 4.831 17.93 9.71 22.411 2.987-2.27 5.707-3.666 7.248-4.364-1.721-1.315-3.578-3.087-5.154-5.381h18.478c-4.147 6.036-10.236 8.438-10.624 8.584-0.785 0.289-19.657 7.453-19.657 28.751 0 10.774 4.828 17.927 9.706 22.407 1.575-1.199 3.238-2.294 5.004-3.249 0.889-0.479 1.65-0.845 2.246-1.112C15.234 66.73 13.378 64.959 11.804 62.666zM33.517 5.32c-0.346 1.51-0.836 2.88-1.416 4.146H9.993C9.417 8.204 8.937 6.825 8.594 5.32H33.517zM8.57 94.775c0.337-1.506 0.809-2.883 1.378-4.146h22.208c0.568 1.264 1.041 2.641 1.377 4.146H8.57zM34.001 52.12H8.099C8.041 51.432 8 50.732 8 50.001c0-0.696 0.034-1.368 0.088-2.026h25.925c0.053 0.657 0.088 1.328 0.088 2.026C34.101 50.732 34.06 51.434 34.001 52.12zM32.155 40.631c0.569 1.261 1.042 2.64 1.378 4.144H8.562c0.336-1.503 0.809-2.882 1.377-4.144H32.155zM9.991 59.466c-0.577-1.261-1.054-2.641-1.397-4.146h24.91c-0.346 1.505-0.828 2.883-1.407 4.146H9.991z" data-fill-palette-color="quaternary"></path></svg></g></svg></g><g><path d="M38.076 95.699v0c0.009 0.046 0.005 0.089-0.012 0.131-0.017 0.042-0.051 0.125-0.103 0.251v0c-0.118 0.286-0.303 0.6-0.554 0.942-0.246 0.345-0.511 0.668-0.796 0.969-0.281 0.31-0.557 0.558-0.829 0.746-0.266 0.19-0.474 0.289-0.624 0.297v0c-0.296-0.094-0.599-0.204-0.909-0.332-0.31-0.127-0.608-0.25-0.894-0.367v0c-2.301-0.946-4.636-2.105-7.005-3.477-2.369-1.372-4.851-3.047-7.445-5.027v0c-0.258-0.204-0.588-0.444-0.989-0.72-0.404-0.271-0.842-0.562-1.313-0.874v0c0.186 0.648 0.569 1.488 1.148 2.52 0.573 1.03 1.283 2.158 2.131 3.385 0.853 1.229 1.82 2.504 2.899 3.827 1.082 1.316 2.208 2.577 3.378 3.782 1.178 1.202 2.377 2.312 3.596 3.329 1.211 1.021 2.391 1.827 3.542 2.418v0c-0.691 0.866-1.257 1.431-1.701 1.695-0.449 0.261-0.879 0.307-1.29 0.138v0c-0.37-0.152-0.847-0.481-1.434-0.987-0.58-0.503-1.251-1.152-2.011-1.945-0.755-0.791-1.579-1.719-2.472-2.784-0.893-1.064-1.85-2.228-2.871-3.49v0c-1.166-1.434-2.245-2.819-3.236-4.153-0.985-1.332-1.857-2.6-2.616-3.804-0.756-1.196-1.373-2.321-1.852-3.375-0.482-1.048-0.78-2.018-0.895-2.908v0c0.118-0.286 0.347-0.641 0.689-1.065 0.342-0.424 0.712-0.825 1.112-1.204 0.391-0.376 0.772-0.7 1.142-0.973 0.362-0.269 0.623-0.395 0.783-0.379v0c0.455 0.521 1.179 1.217 2.173 2.086 0.989 0.866 2.128 1.798 3.418 2.796 1.296 1 2.687 2.014 4.173 3.043 1.49 1.038 2.941 1.965 4.353 2.784v0c-0.933-0.934-1.884-1.967-2.854-3.098-0.964-1.128-1.901-2.29-2.81-3.486-0.917-1.192-1.792-2.385-2.626-3.578-0.825-1.196-1.562-2.336-2.211-3.418-0.649-1.082-1.2-2.072-1.653-2.969-0.447-0.895-0.738-1.645-0.872-2.25v0c0.118-0.286 0.347-0.641 0.689-1.065 0.342-0.424 0.712-0.825 1.112-1.205 0.394-0.382 0.775-0.706 1.142-0.973 0.362-0.269 0.623-0.395 0.783-0.378v0c0.899 1.136 2.089 2.298 3.572 3.487 1.483 1.188 3.079 2.332 4.787 3.431 1.714 1.102 3.444 2.113 5.191 3.034 1.747 0.92 3.338 1.676 4.775 2.267v0c0.477 0.196 0.971 0.4 1.484 0.61 0.513 0.211 1.055 0.409 1.626 0.596v0c-0.12 0.292-0.298 0.623-0.534 0.993-0.236 0.37-0.495 0.72-0.777 1.05-0.276 0.332-0.554 0.619-0.834 0.859-0.282 0.246-0.542 0.394-0.778 0.443v0c-0.293-0.1-0.595-0.213-0.905-0.341-0.31-0.127-0.608-0.25-0.894-0.368v0c-2.301-0.946-4.636-2.105-7.005-3.477-2.369-1.372-4.851-3.047-7.444-5.026v0c-0.26-0.198-0.613-0.451-1.057-0.759-0.453-0.305-0.927-0.618-1.422-0.94v0c0.051 0.69 0.334 1.569 0.849 2.638 0.512 1.06 1.194 2.205 2.047 3.434 0.853 1.229 1.837 2.497 2.95 3.806 1.117 1.316 2.291 2.569 3.524 3.759 1.232 1.19 2.489 2.285 3.77 3.285 1.284 0.995 2.514 1.783 3.689 2.364z" fill="#8dbdff" data-fill-palette-color="primary"></path><path d="M45.147 75.969v0c-0.002-1.23-0.175-2.552-0.52-3.965-0.344-1.414-0.814-2.804-1.408-4.169-0.595-1.365-1.298-2.656-2.111-3.872-0.817-1.22-1.684-2.263-2.599-3.13v0c-0.219-0.148-0.447-0.127-0.684 0.063v0c-0.177 0.262-0.189 0.77-0.038 1.525 0.142 0.757 0.382 1.641 0.717 2.653 0.332 1.017 0.742 2.098 1.229 3.243 0.487 1.145 1.004 2.24 1.551 3.285 0.545 1.036 1.083 1.967 1.614 2.792 0.526 0.822 1.009 1.408 1.449 1.759v0c-0.126 0.187-0.417 0.22-0.872 0.099v0c-0.121-0.027-0.263-0.03-0.426-0.007-0.163 0.022-0.385 0.086-0.666 0.192v0c-0.14 0.046-0.291 0.08-0.453 0.102-0.163 0.022-0.294 0.027-0.395 0.014v0c-0.195-0.023-0.458-0.145-0.789-0.369v0c-1.09-0.735-2.222-1.701-3.397-2.898-1.175-1.197-2.322-2.499-3.44-3.907-1.109-1.409-2.145-2.881-3.107-4.417-0.966-1.53-1.799-3.009-2.498-4.437-0.704-1.423-1.227-2.733-1.571-3.929-0.344-1.196-0.444-2.177-0.301-2.942v0c0.176-0.146 0.416-0.306 0.722-0.482 0.301-0.17 0.621-0.327 0.959-0.472 0.339-0.145 0.668-0.276 0.989-0.394 0.324-0.123 0.586-0.195 0.787-0.215v0c0.274 3.131 1.195 6.306 2.763 9.525 1.571 3.213 3.792 6.472 6.662 9.777v0c-0.616-1.162-1.152-2.367-1.607-3.615-0.456-1.248-0.812-2.421-1.067-3.518-0.25-1.093-0.383-2.066-0.4-2.917-0.013-0.856 0.11-1.477 0.37-1.861v0c0.277-0.249 0.598-0.448 0.963-0.598 0.374-0.152 0.769-0.247 1.184-0.286 0.418-0.044 0.829-0.036 1.23 0.026 0.4 0.052 0.781 0.173 1.143 0.363v0c0.755 0.54 1.488 1.229 2.198 2.065 0.707 0.842 1.346 1.755 1.918 2.74 0.563 0.986 1.055 2.002 1.477 3.049 0.421 1.046 0.724 2.055 0.908 3.026 0.189 0.975 0.266 1.87 0.23 2.685-0.046 0.817-0.241 1.481-0.588 1.995v0c-0.151 0.224-0.326 0.437-0.523 0.637-0.203 0.197-0.412 0.363-0.628 0.498-0.21 0.138-0.402 0.238-0.575 0.3-0.175 0.053-0.309 0.048-0.4-0.013z" fill="#8dbdff" data-fill-palette-color="primary"></path><path d="M66.644 27.977v0c0.887 1.056 1.387 2.239 1.502 3.548 0.115 1.309-0.102 2.66-0.649 4.054v0c1.015-0.104 1.985 0.004 2.909 0.322 0.915 0.318 1.693 0.859 2.335 1.624v0c0.771 0.918 1.255 2.056 1.452 3.413 0.197 1.357 0.127 2.767-0.211 4.229-0.338 1.462-0.916 2.898-1.734 4.308-0.818 1.411-1.839 2.63-3.063 3.658v0c-1.328 1.115-2.701 1.839-4.121 2.172-1.415 0.339-2.79 0.281-4.122-0.174v0c-0.259-0.649-0.565-1.47-0.918-2.461-0.357-0.996-0.719-2.059-1.087-3.189-0.364-1.125-0.723-2.25-1.078-3.374-0.35-1.128-0.652-2.154-0.905-3.077v0c-0.568-1.989-0.995-3.675-1.281-5.059-0.291-1.379-0.461-2.529-0.509-3.447v0c-0.688 1.074-1.264 2.117-1.728 3.129-0.458 1.008-0.722 1.831-0.792 2.469v0c-0.24 0.025-0.526 0.004-0.859-0.061-0.333-0.066-0.674-0.162-1.024-0.288-0.35-0.127-0.68-0.279-0.99-0.457-0.309-0.178-0.559-0.36-0.748-0.545v0c0.187-0.679 0.516-1.455 0.985-2.33 0.47-0.874 1.036-1.762 1.701-2.664 0.66-0.908 1.38-1.789 2.159-2.646 0.774-0.852 1.561-1.614 2.36-2.285v0c2.043-1.716 3.987-2.653 5.831-2.812 1.843-0.15 3.371 0.498 4.585 1.943zM62.038 42.245v0c-0.449 0.116-0.938 0.135-1.467 0.058v0c0.334 1.2 0.679 2.362 1.034 3.486 0.35 1.128 0.69 2.164 1.019 3.108 0.325 0.939 0.623 1.745 0.894 2.417 0.276 0.669 0.505 1.133 0.688 1.392v0c0.349-0.066 0.72-0.205 1.114-0.418 0.389-0.209 0.83-0.52 1.323-0.934v0c1.155-0.97 2.124-2.061 2.907-3.274 0.787-1.208 1.348-2.423 1.683-3.647 0.335-1.224 0.442-2.395 0.32-3.513-0.127-1.113-0.52-2.063-1.179-2.847v0c-0.941-1.12-2.102-1.521-3.483-1.203v0c-0.872 1.658-2.142 3.187-3.81 4.588v0c-0.237 0.199-0.42 0.352-0.548 0.46-0.128 0.108-0.293 0.217-0.495 0.327zM59.557 29.232v0c-0.355 0.298-0.716 0.635-1.083 1.011-0.362 0.38-0.731 0.799-1.105 1.255v0c0.127 0.011 0.244 0.035 0.351 0.072 0.106 0.046 0.211 0.096 0.316 0.151v0c0.021 0.336 0.084 0.792 0.189 1.368 0.105 0.576 0.24 1.238 0.404 1.984 0.164 0.746 0.363 1.559 0.597 2.44 0.229 0.885 0.469 1.786 0.718 2.704v0c0.233-0.314 0.54-0.664 0.921-1.052 0.382-0.397 0.778-0.767 1.188-1.111v0c0.217-0.182 0.443-0.355 0.677-0.517 0.225-0.163 0.453-0.313 0.684-0.448v0c0.703-0.826 1.271-1.643 1.702-2.452 0.433-0.818 0.743-1.6 0.932-2.348 0.18-0.748 0.22-1.442 0.12-2.082-0.1-0.64-0.351-1.199-0.752-1.678v0c-0.684-0.814-1.525-1.16-2.524-1.037-0.995 0.128-2.106 0.708-3.335 1.74z" fill="#8dbdff" data-fill-palette-color="primary"></path><path d="M79.748 39.41v0c-0.099-0.173-0.21-0.399-0.333-0.678-0.12-0.273-0.265-0.65-0.437-1.131-0.169-0.475-0.369-1.059-0.602-1.75-0.224-0.689-0.49-1.521-0.797-2.496v0c-0.073-0.218-0.164-0.578-0.274-1.08-0.106-0.496-0.184-1.046-0.233-1.649-0.046-0.598-0.037-1.212 0.025-1.842 0.06-0.621 0.252-1.166 0.578-1.635v0c0.369-0.108 0.916-0.158 1.641-0.15 0.719 0.011 1.432 0.185 2.139 0.523v0c-0.156 0.751-0.238 1.463-0.246 2.136-0.013 0.676 0.014 1.352 0.081 2.026 0.071 0.68 0.17 1.366 0.299 2.057 0.132 0.697 0.254 1.433 0.365 2.209v0c0.099 0.664 0.225 1.331 0.378 2.001 0.151 0.664 0.336 1.215 0.558 1.652v0c0.199 0.347 0.337 0.594 0.415 0.743 0.072 0.152 0.061 0.255-0.035 0.309v0c-0.078 0.045-0.262 0.087-0.551 0.127-0.284 0.036-0.605 0.02-0.964-0.049-0.356-0.063-0.72-0.193-1.092-0.388-0.366-0.198-0.671-0.51-0.915-0.935zM78.075 23.688v0c-0.064-0.112-0.136-0.301-0.215-0.568v0c-0.15-0.041-0.312-0.137-0.488-0.288-0.179-0.157-0.312-0.311-0.399-0.462v0c-0.099-0.173-0.213-0.424-0.342-0.752-0.12-0.325-0.24-0.683-0.36-1.075-0.129-0.394-0.243-0.812-0.34-1.253-0.097-0.442-0.178-0.849-0.243-1.22v0c0.235-0.135 0.555-0.237 0.961-0.306 0.409-0.064 0.848-0.096 1.315-0.097 0.462 0.002 0.905 0.042 1.328 0.119 0.429 0.074 0.782 0.172 1.06 0.294v0c-0.091 0.334-0.202 0.788-0.333 1.362-0.129 0.579-0.239 1.17-0.332 1.772-0.093 0.603-0.169 1.163-0.229 1.68-0.057 0.523-0.079 0.885-0.068 1.087v0c-0.252 0.092-0.512 0.104-0.781 0.036-0.266-0.063-0.444-0.172-0.534-0.329z" fill="#8dbdff" data-fill-palette-color="primary"></path><path d="M93.949 35.962v0c-1.208 0.392-2.357 0.294-3.444-0.293-1.091-0.578-1.946-1.559-2.564-2.942v0c-0.363-0.812-0.615-1.709-0.757-2.69-0.148-0.979-0.182-1.98-0.103-3.003 0.079-1.024 0.259-2.035 0.539-3.036 0.286-1.003 0.664-1.927 1.134-2.772v0c0.747-1.329 1.609-2.212 2.586-2.648v0c0.802 0.058 1.763 0.494 2.881 1.307v0c0.1-0.045 0.189-0.091 0.266-0.14 0.077-0.049 0.166-0.095 0.265-0.14v0c1.077-0.481 2.041 0.232 2.893 2.138v0c0.573 1.283 0.907 2.591 1.002 3.925 0.092 1.328-0.023 2.626-0.347 3.893-0.318 1.264-0.849 2.444-1.595 3.539-0.737 1.099-1.656 2.053-2.756 2.862zM91.217 25.674v0c-0.131 0.623-0.227 1.277-0.289 1.96-0.062 0.684-0.079 1.355-0.053 2.015 0.026 0.659 0.096 1.273 0.21 1.843 0.108 0.573 0.251 1.06 0.429 1.46v0c0.218 0.488 0.51 0.919 0.875 1.293 0.359 0.376 0.654 0.548 0.886 0.515v0c0.823-0.607 1.489-1.36 1.998-2.259 0.509-0.898 0.858-1.887 1.046-2.966 0.186-1.085 0.199-2.224 0.041-3.417-0.153-1.195-0.497-2.393-1.034-3.593v0c-0.234-0.524-0.449-0.925-0.644-1.205-0.201-0.277-0.423-0.496-0.664-0.656v0c-0.776 0.664-1.383 1.447-1.82 2.348-0.437 0.901-0.764 1.788-0.981 2.662z" fill="#8dbdff" data-fill-palette-color="primary"></path><path d="M104.879 28.158v0c-0.055-0.192-0.11-0.438-0.163-0.738-0.051-0.294-0.103-0.695-0.156-1.203-0.051-0.502-0.108-1.116-0.17-1.842-0.054-0.722-0.115-1.594-0.182-2.614v0c-0.019-0.229-0.023-0.601-0.01-1.114 0.014-0.507 0.07-1.06 0.165-1.658 0.097-0.592 0.251-1.186 0.461-1.783 0.205-0.589 0.522-1.073 0.95-1.452v0c0.384-0.017 0.927 0.064 1.63 0.244 0.696 0.181 1.347 0.52 1.953 1.015v0c-0.33 0.692-0.579 1.364-0.746 2.017-0.173 0.654-0.307 1.316-0.402 1.988-0.093 0.677-0.158 1.367-0.197 2.069-0.037 0.708-0.094 1.452-0.17 2.232v0c-0.062 0.669-0.097 1.346-0.107 2.034-0.011 0.681 0.039 1.26 0.15 1.737v0c0.111 0.384 0.186 0.657 0.227 0.82 0.034 0.165-0.001 0.262-0.107 0.293v0c-0.087 0.025-0.275 0.022-0.566-0.008-0.284-0.032-0.593-0.124-0.925-0.276-0.331-0.146-0.653-0.358-0.968-0.636-0.309-0.28-0.531-0.655-0.667-1.125zM106.983 12.487v0c-0.036-0.124-0.06-0.325-0.073-0.602v0c-0.136-0.075-0.271-0.207-0.407-0.396-0.137-0.195-0.229-0.376-0.277-0.544v0c-0.055-0.192-0.107-0.462-0.154-0.811-0.039-0.344-0.071-0.721-0.095-1.13-0.032-0.413-0.043-0.846-0.033-1.298 0.01-0.452 0.028-0.867 0.054-1.243v0c0.26-0.075 0.595-0.098 1.006-0.069 0.413 0.035 0.846 0.108 1.301 0.218 0.448 0.112 0.869 0.256 1.261 0.43 0.399 0.173 0.719 0.352 0.96 0.538v0c-0.167 0.303-0.383 0.718-0.647 1.243-0.262 0.532-0.51 1.08-0.743 1.644-0.233 0.564-0.44 1.09-0.621 1.577-0.179 0.494-0.287 0.841-0.323 1.04v0c-0.266 0.03-0.522-0.02-0.768-0.151-0.244-0.124-0.391-0.273-0.441-0.446z" fill="#8dbdff" data-fill-palette-color="primary"></path><path d="M117.994 11v0c0.6 0.078 1.201 0.379 1.802 0.902 0.601 0.522 1.081 1.126 1.441 1.812v0c-0.145 0.631-0.401 1.404-0.768 2.319-0.367 0.915-0.734 1.847-1.102 2.794-0.362 0.947-0.682 1.845-0.962 2.694-0.274 0.841-0.405 1.519-0.393 2.032v0c0.29-0.426 0.61-0.922 0.962-1.488 0.346-0.559 0.683-1.12 1.009-1.683 0.32-0.561 0.625-1.071 0.916-1.53 0.283-0.464 0.508-0.811 0.673-1.04v0c0.342-0.506 0.751-1.099 1.228-1.777 0.478-0.672 0.987-1.317 1.526-1.933 0.539-0.617 1.098-1.158 1.675-1.625 0.577-0.466 1.129-0.742 1.657-0.828v0c0.572-0.093 1.081 0.023 1.526 0.349 0.444 0.319 0.811 0.668 1.101 1.045v0c0.007 0.045-0.066 0.118-0.218 0.221-0.153 0.103-0.353 0.358-0.601 0.764v0c-0.241 0.444-0.5 1.041-0.775 1.792-0.269 0.755-0.519 1.563-0.751 2.424-0.232 0.861-0.401 1.727-0.507 2.599-0.106 0.873-0.103 1.649 0.007 2.33v0c0.089 0.547 0.219 0.885 0.39 1.014 0.165 0.13 0.378 0.174 0.639 0.131v0c0.242-0.039 0.487-0.135 0.737-0.287 0.243-0.151 0.441-0.238 0.593-0.263v0c0.095 0.024 0.183 0.104 0.265 0.241 0.074 0.132 0.12 0.255 0.138 0.369v0c-0.147 0.181-0.329 0.367-0.545 0.559-0.217 0.192-0.448 0.377-0.693 0.554-0.24 0.17-0.48 0.32-0.72 0.45-0.234 0.129-0.449 0.21-0.646 0.243v0c-0.636 0.104-1.173 0.096-1.61-0.022-0.438-0.124-0.797-0.321-1.076-0.589-0.279-0.268-0.497-0.608-0.655-1.019-0.16-0.418-0.279-0.869-0.358-1.353v0c-0.042-0.261-0.068-0.56-0.078-0.898-0.008-0.332 0.018-0.734 0.078-1.207 0.054-0.472 0.151-1.04 0.291-1.703 0.14-0.663 0.326-1.464 0.558-2.402v0c-0.045 0.007-0.315 0.208-0.813 0.602-0.504 0.395-1.022 0.963-1.554 1.703v0c-0.87 1.154-1.636 2.281-2.299 3.381-0.663 1.1-1.327 2.312-1.993 3.636v0c-0.373 0.759-0.699 1.403-0.978 1.932-0.286 0.53-0.55 0.893-0.792 1.089v0c-0.5-0.186-0.9-0.496-1.2-0.931-0.293-0.435-0.535-0.899-0.726-1.39v0c-0.067-0.413-0.092-0.948-0.075-1.604 0.017-0.656 0.064-1.388 0.141-2.197 0.082-0.817 0.207-1.676 0.374-2.578 0.172-0.909 0.373-1.82 0.602-2.733v0c0.518-2.069 1.035-3.708 1.55-4.915 0.514-1.213 0.85-1.875 1.009-1.986z" fill="#8dbdff" data-fill-palette-color="primary"></path><path d="M136.504 35.036v0c-0.551-0.234-0.876-0.661-0.976-1.281v0c-0.081-0.607-0.454-1.103-1.118-1.487v0c0.198-1.131 0.418-2.272 0.661-3.422 0.237-1.157 0.537-2.47 0.902-3.94 0.371-1.47 0.832-3.184 1.384-5.142 0.552-1.964 1.249-4.338 2.09-7.122v0c-0.735-0.011-1.311-0.01-1.73 0.003-0.426 0.019-0.839 0.058-1.239 0.116v0c-0.089-0.092-0.158-0.215-0.207-0.37-0.056-0.156-0.082-0.301-0.081-0.437v0c0.227-0.08 0.686-0.189 1.378-0.327 0.685-0.131 1.441-0.249 2.268-0.352v0c0.561-1.68 1.196-3.185 1.906-4.514 0.71-1.336 1.472-2.475 2.285-3.417 0.814-0.941 1.669-1.663 2.566-2.165 0.897-0.495 1.8-0.736 2.709-0.722v0c0.264 0.004 0.518 0.024 0.763 0.06 0.244 0.036 0.434 0.055 0.569 0.057v0c0.202-0.152 0.472-0.286 0.809-0.403 0.337-0.117 0.625-0.174 0.863-0.171v0c0.271 0.004 0.613 0.154 1.027 0.451v0c-0.179 0.307-0.372 0.726-0.58 1.258-0.208 0.532-0.383 1.051-0.526 1.558v0c-0.579 1.635-1.185 2.692-1.818 3.172v0c-0.245-0.004-0.372-0.328-0.381-0.973v0c-0.019-0.464-0.079-0.92-0.183-1.366v0c-0.087-0.201-0.146-0.379-0.175-0.534-0.03-0.155-0.043-0.355-0.039-0.6v0c0.002-0.135 0.014-0.296 0.036-0.483 0.029-0.193 0.079-0.511 0.15-0.955v0c-0.374-0.006-0.793 0.223-1.258 0.687-0.465 0.457-0.952 1.11-1.46 1.959-0.516 0.849-1.037 1.856-1.564 3.022-0.534 1.171-1.043 2.465-1.529 3.882v0l2.804-0.054c0.108 0.111 0.198 0.361 0.269 0.749 0.071 0.388 0.117 0.795 0.136 1.22v0l-3.67-0.259c-0.883 2.5-1.709 4.888-2.478 7.165-0.763 2.276-1.449 4.377-2.059 6.301-0.61 1.924-1.129 3.647-1.558 5.167-0.436 1.514-0.751 2.737-0.946 3.669z" fill="#8dbdff" data-fill-palette-color="primary"></path><path d="M152.277 27.235v0c-1.24-0.278-2.178-0.946-2.816-2.005-0.645-1.053-0.881-2.332-0.71-3.837v0c0.101-0.884 0.34-1.784 0.718-2.701 0.371-0.918 0.851-1.797 1.44-2.637 0.589-0.841 1.259-1.62 2.009-2.339 0.757-0.718 1.552-1.321 2.387-1.809v0c1.32-0.764 2.511-1.085 3.574-0.963v0c0.661 0.458 1.266 1.322 1.815 2.591v0c0.109 0.012 0.209 0.017 0.299 0.015 0.091-0.003 0.191 0.002 0.3 0.015v0c1.172 0.134 1.639 1.238 1.402 3.313v0c-0.16 1.396-0.538 2.692-1.136 3.888-0.597 1.19-1.357 2.248-2.28 3.174-0.917 0.926-1.975 1.671-3.174 2.235-1.194 0.57-2.47 0.924-3.828 1.06zM155.161 16.989v0c-0.43 0.47-0.845 0.983-1.246 1.541-0.401 0.557-0.758 1.126-1.071 1.706-0.313 0.58-0.566 1.145-0.758 1.694-0.199 0.548-0.323 1.04-0.373 1.475v0c-0.061 0.531-0.029 1.051 0.094 1.558 0.117 0.506 0.284 0.804 0.501 0.894v0c1.017-0.104 1.974-0.413 2.869-0.927 0.896-0.514 1.699-1.187 2.411-2.02 0.712-0.84 1.304-1.813 1.774-2.921 0.477-1.107 0.79-2.313 0.939-3.619v0c0.065-0.57 0.085-1.025 0.059-1.365-0.032-0.341-0.111-0.642-0.237-0.903v0c-1.006 0.177-1.927 0.542-2.762 1.095-0.835 0.553-1.568 1.15-2.2 1.792z" fill="#8dbdff" data-fill-palette-color="primary"></path><path d="M175.225 34.052v0c-0.867-0.69-1.432-1.256-1.697-1.698-0.262-0.449-0.305-0.888-0.128-1.317v0c0.134-0.328 0.416-0.752 0.845-1.273 0.429-0.52 0.993-1.115 1.692-1.782 0.69-0.664 1.49-1.384 2.401-2.161 0.907-0.784 1.91-1.609 3.01-2.474v0c-0.527-0.244-0.997-0.457-1.409-0.641-0.421-0.18-0.766-0.324-1.034-0.434v0c0.252-0.259 0.711-0.384 1.376-0.376 0.671 0.011 1.515 0.127 2.532 0.348v0c1.347-1.008 2.724-1.93 4.133-2.766 1.417-0.84 2.795-1.577 4.135-2.212 1.342-0.641 2.633-1.156 3.873-1.547 1.248-0.394 2.384-0.642 3.408-0.745v0c0.079-0.142 0.145-0.261 0.199-0.357 0.053-0.096 0.089-0.166 0.106-0.207v0c0.286 0.117 0.641 0.347 1.065 0.688 0.424 0.341 0.826 0.711 1.206 1.11 0.376 0.391 0.701 0.771 0.974 1.141 0.27 0.361 0.396 0.622 0.379 0.783v0c-1.169 0.914-2.567 2.423-4.196 4.527-1.635 2.102-3.346 4.722-5.135 7.862v0c-0.439 0.781-0.908 1.679-1.407 2.693-0.502 1.02-1.018 2.177-1.548 3.471v0c-0.186 0.453-0.376 0.918-0.572 1.395-0.193 0.471-0.374 0.972-0.543 1.502v0c-0.052 0.007-0.098 0.002-0.14-0.016-0.042-0.017-0.125-0.051-0.25-0.102v0c-0.286-0.117-0.601-0.302-0.943-0.554-0.345-0.246-0.668-0.511-0.97-0.795-0.304-0.278-0.55-0.553-0.738-0.825-0.196-0.269-0.299-0.478-0.307-0.627v0c0.092-0.276 0.191-0.542 0.296-0.798 0.105-0.256 0.216-0.528 0.334-0.814v0c0.523-1.276 1.1-2.555 1.729-3.836 0.636-1.279 1.353-2.569 2.151-3.871v0c-0.282-0.144-0.653-0.327-1.112-0.55-0.459-0.223-0.98-0.464-1.562-0.725-0.575-0.263-1.19-0.547-1.846-0.85-0.656-0.304-1.298-0.598-1.925-0.884v0c-0.876 0.727-1.716 1.459-2.52 2.196-0.806 0.742-1.553 1.512-2.242 2.309v0c-0.755 0.84-1.443 1.71-2.063 2.612-0.618 0.896-1.137 1.763-1.557 2.6zM194.727 20.401v0c0.203-0.258 0.464-0.614 0.783-1.069 0.321-0.46 0.646-0.947 0.975-1.46v0c-0.589-0.025-1.297 0.081-2.127 0.319-0.829 0.238-1.727 0.584-2.692 1.038-0.969 0.46-1.986 1.004-3.052 1.633-1.062 0.637-2.123 1.338-3.181 2.101v0c1.782 0.563 3.782 1.275 5.999 2.136v0c0.521-0.796 1.055-1.58 1.602-2.352 0.546-0.772 1.111-1.554 1.693-2.346z" fill="#8dbdff" data-fill-palette-color="primary"></path><path d="M208.196 29.362v0c0.395 0.459 0.643 1.083 0.742 1.873 0.1 0.79 0.055 1.56-0.134 2.312v0c-0.529 0.373-1.235 0.779-2.118 1.216-0.883 0.438-1.778 0.887-2.685 1.349-0.901 0.465-1.738 0.92-2.512 1.366-0.765 0.444-1.315 0.862-1.648 1.253v0c0.5-0.124 1.07-0.28 1.709-0.468 0.631-0.186 1.256-0.38 1.874-0.582 0.613-0.205 1.18-0.382 1.703-0.53 0.521-0.157 0.919-0.266 1.195-0.326v0c0.592-0.149 1.292-0.318 2.1-0.506 0.804-0.182 1.613-0.323 2.427-0.423 0.813-0.1 1.59-0.132 2.331-0.095 0.741 0.037 1.337 0.2 1.787 0.487v0c0.489 0.312 0.79 0.738 0.905 1.278 0.118 0.534 0.159 1.038 0.124 1.512v0c-0.024 0.038-0.128 0.045-0.311 0.02-0.183-0.025-0.502 0.031-0.956 0.169v0c-0.476 0.17-1.067 0.443-1.773 0.818-0.704 0.384-1.429 0.819-2.175 1.306-0.747 0.487-1.45 1.02-2.111 1.6-0.661 0.58-1.177 1.16-1.548 1.742v0c-0.298 0.467-0.426 0.806-0.385 1.016 0.036 0.207 0.166 0.381 0.389 0.523v0c0.206 0.132 0.453 0.224 0.74 0.278 0.282 0.05 0.488 0.116 0.618 0.199v0c0.055 0.081 0.067 0.2 0.037 0.356-0.033 0.147-0.08 0.27-0.143 0.368v0c-0.23 0.037-0.49 0.054-0.78 0.053-0.29-0.001-0.585-0.018-0.885-0.05-0.292-0.034-0.571-0.082-0.837-0.144-0.26-0.059-0.475-0.143-0.643-0.25v0c-0.543-0.347-0.938-0.71-1.186-1.09-0.244-0.385-0.38-0.77-0.409-1.155-0.029-0.386 0.035-0.785 0.191-1.197 0.16-0.418 0.371-0.833 0.635-1.246v0c0.142-0.223 0.322-0.463 0.541-0.722 0.215-0.253 0.502-0.536 0.862-0.848 0.355-0.316 0.805-0.675 1.352-1.075 0.546-0.401 1.219-0.873 2.018-1.419v0c-0.038-0.024-0.374-0.055-1.007-0.092-0.639-0.041-1.404 0.037-2.294 0.233v0c-1.417 0.28-2.74 0.609-3.968 0.987-1.228 0.378-2.531 0.839-3.909 1.381v0c-0.784 0.318-1.456 0.58-2.017 0.788-0.566 0.204-1.005 0.299-1.317 0.284v0c-0.249-0.472-0.34-0.97-0.273-1.494 0.072-0.52 0.2-1.027 0.385-1.52v0c0.225-0.353 0.563-0.768 1.013-1.245 0.45-0.477 0.973-0.992 1.571-1.544 0.606-0.554 1.271-1.111 1.997-1.673 0.734-0.563 1.491-1.108 2.271-1.635v0c1.766-1.197 3.243-2.074 4.431-2.63 1.192-0.562 1.884-0.831 2.076-0.808z" fill="#8dbdff" data-fill-palette-color="primary"></path><path d="M228.841 48.961v0c0.168 0.15 0.337 0.353 0.507 0.608 0.174 0.259 0.312 0.516 0.414 0.77 0.101 0.254 0.167 0.486 0.196 0.694 0.039 0.208 0.02 0.355-0.057 0.442v0c-0.95 0.396-1.879 0.823-2.789 1.281-0.915 0.453-1.758 0.914-2.53 1.382-0.777 0.464-1.472 0.932-2.084 1.405-0.608 0.468-1.096 0.909-1.465 1.323v0c-0.416 0.466-0.714 0.896-0.893 1.289-0.169 0.393-0.199 0.76-0.088 1.101v0c-0.313-0.046-0.667-0.168-1.061-0.365-0.385-0.197-0.703-0.407-0.953-0.63v0c-0.894-0.798-0.794-1.81 0.3-3.036v0c0.846-0.947 2.315-1.959 4.408-3.037v0c-1.01 0.463-2.031 0.839-3.065 1.126-1.029 0.291-1.999 0.492-2.91 0.603-0.906 0.115-1.729 0.132-2.468 0.05-0.744-0.086-1.339-0.266-1.784-0.542v0c-0.58-0.579-0.812-1.316-0.693-2.213 0.109-0.896 0.548-1.775 1.316-2.635v0c0.828-0.928 1.901-1.728 3.218-2.401 1.317-0.673 2.679-1.172 4.085-1.498 1.406-0.326 2.736-0.456 3.99-0.39 1.254 0.066 2.235 0.385 2.943 0.956v0c0.125 0.198 0.225 0.464 0.298 0.798 0.074 0.334 0.119 0.685 0.135 1.053 0.007 0.369-0.014 0.717-0.064 1.044-0.055 0.323-0.139 0.567-0.252 0.734v0c-0.754-0.491-1.728-0.778-2.925-0.862-1.187-0.083-2.412 0.007-3.675 0.27-1.259 0.258-2.464 0.664-3.614 1.218-1.151 0.554-2.065 1.21-2.743 1.97v0c-0.283 0.317-0.346 0.62-0.188 0.907v0c0.571 0.328 1.493 0.413 2.766 0.255 1.274-0.159 3.034-0.592 5.28-1.299v0c0.43-0.152 0.909-0.316 1.438-0.492 0.533-0.181 1.086-0.374 1.658-0.58 0.573-0.206 1.142-0.418 1.71-0.638 0.572-0.224 1.118-0.444 1.639-0.661z" fill="#8dbdff" data-fill-palette-color="primary"></path><path d="M225.543 62.229v0c0.751-0.618 1.959-1.311 3.622-2.079 1.662-0.759 3.67-1.56 6.022-2.402v0c3.777-1.322 7.016-2.31 9.717-2.964 2.701-0.653 4.957-0.979 6.771-0.977v0c0.133 0.233 0.257 0.556 0.372 0.97 0.106 0.413 0.198 0.834 0.276 1.263 0.073 0.424 0.122 0.822 0.145 1.195 0.019 0.368 0.005 0.63-0.042 0.786v0c-2.679-0.04-5.345 0.184-7.997 0.672-2.652 0.48-5.5 1.267-8.547 2.364v0c-2.619 0.945-4.893 1.899-6.822 2.86-1.928 0.953-3.435 1.875-4.52 2.768v0c-0.289 0.238-0.468 0.385-0.538 0.442-0.07 0.057-0.133 0.122-0.19 0.195v0c-0.162-0.268-0.272-0.523-0.331-0.767-0.05-0.243-0.035-0.438 0.043-0.587v0c0.056-0.104 0.103-0.301 0.14-0.591 0.037-0.289 0.047-0.531 0.029-0.725v0c-0.027-0.236 0.137-0.584 0.493-1.044 0.352-0.465 0.804-0.925 1.357-1.379z" fill="#8dbdff" data-fill-palette-color="primary"></path><path d="M241.169 79.361v0c-1.64 0.431-3.162 0.783-4.565 1.057-1.4 0.28-2.729 0.472-3.988 0.579-1.255 0.112-2.461 0.136-3.62 0.073-1.15-0.061-2.295-0.204-3.435-0.431v0c-1.451-0.298-2.707-0.756-3.766-1.376-1.06-0.62-1.88-1.391-2.46-2.312v0c-0.295-0.469-0.535-0.965-0.72-1.489-0.188-0.529-0.319-1.052-0.393-1.569-0.074-0.517-0.091-1.005-0.053-1.463 0.039-0.458 0.148-0.836 0.328-1.131v0c0.224-0.141 0.505-0.135 0.844 0.017v0c-0.063 0.36-0.106 0.649-0.127 0.868-0.018 0.225-0.021 0.432-0.009 0.622 0.015 0.181 0.063 0.36 0.144 0.538 0.083 0.168 0.19 0.356 0.321 0.563v0c0.676 1.075 1.649 1.924 2.917 2.55 1.278 0.627 2.783 1.035 4.517 1.224 1.73 0.183 3.655 0.133 5.775-0.151 2.115-0.28 4.355-0.799 6.72-1.555v0c-0.531-0.009-1.18-0.019-1.949-0.03-0.772-0.017-1.561-0.072-2.367-0.167-0.811-0.091-1.578-0.233-2.301-0.425-0.719-0.187-1.291-0.448-1.714-0.783v0c-0.176-0.316-0.315-0.67-0.417-1.062-0.102-0.392-0.151-0.796-0.145-1.211 0.004-0.406 0.067-0.807 0.19-1.205 0.121-0.388 0.327-0.727 0.616-1.016v0c0.545-0.343 0.994-0.599 1.346-0.766 0.357-0.171 0.761-0.334 1.211-0.489v0c0.821-0.281 1.789-0.539 2.904-0.776 1.106-0.239 2.237-0.414 3.393-0.525 1.151-0.107 2.276-0.134 3.376-0.08 1.098 0.063 2.044 0.248 2.839 0.555v0c0.096 0.153 0.201 0.349 0.314 0.591 0.117 0.246 0.214 0.516 0.293 0.809 0.08 0.285 0.14 0.574 0.181 0.869 0.037 0.289 0.024 0.571-0.039 0.846v0c-0.321-0.087-1.234-0.141-2.739-0.161-1.514-0.022-3.543 0.177-6.088 0.599v0c-0.266 0.038-0.636 0.115-1.111 0.231-0.484 0.114-0.979 0.247-1.486 0.398-0.506 0.151-0.998 0.308-1.474 0.47-0.473 0.168-0.832 0.329-1.077 0.484v0c-0.147 0.093-0.244 0.188-0.289 0.285-0.049 0.092-0.08 0.169-0.095 0.231v0c0.267 0.304 0.83 0.582 1.689 0.833 0.85 0.249 2.026 0.4 3.529 0.452v0c0.961 0.027 1.896 0.018 2.803-0.028 0.902-0.042 1.807-0.094 2.713-0.153 0.906-0.06 1.845-0.118 2.815-0.173 0.962-0.057 1.959-0.094 2.991-0.111v0c0.154 0.245 0.294 0.527 0.417 0.845 0.12 0.313 0.221 0.63 0.302 0.952 0.083 0.313 0.134 0.601 0.155 0.862 0.02 0.262 0.003 0.477-0.05 0.648v0c-1.605 0.195-3.162 0.414-4.67 0.654-1.506 0.232-3.005 0.543-4.496 0.933z" fill="#8dbdff" data-fill-palette-color="primary"></path><path d="M256.737 92.02v0c-0.388 0.159-0.815 0.28-1.282 0.362-0.461 0.079-0.896 0.114-1.305 0.105-0.406-0.003-0.763-0.043-1.069-0.121-0.306-0.078-0.497-0.199-0.573-0.362v0c-0.086-0.23 0.005-0.432 0.272-0.607v0c0.058-0.027 0.164-0.044 0.317-0.051 0.156-0.016 0.328-0.028 0.516-0.037 0.191-0.018 0.38-0.038 0.568-0.062 0.18-0.027 0.331-0.068 0.453-0.126v0c0.281-0.13 0.487-0.305 0.621-0.523 0.13-0.224 0.145-0.444 0.045-0.66v0c-0.375-0.806-1.167-1.188-2.377-1.145-1.201 0.047-2.78 0.525-4.737 1.436v0c-0.199 0.092-0.314 0.157-0.348 0.193v0c0.216 0.418 0.407 0.791 0.574 1.119 0.164 0.322 0.322 0.646 0.474 0.974v0c-0.033 0.037-0.11 0.083-0.233 0.14v0c-0.181 0.084-0.332 0.104-0.452 0.061v0c-0.314-0.415-0.57-0.744-0.767-0.986-0.195-0.236-0.354-0.411-0.478-0.524-0.129-0.11-0.237-0.167-0.324-0.17-0.084 0.003-0.187 0.034-0.31 0.091v0c-0.158 0.073-0.316 0.154-0.474 0.242-0.152 0.085-0.351 0.185-0.597 0.298v0c-1.689 0.785-3.261 0.958-4.715 0.519-1.455-0.439-2.643-1.436-3.566-2.99v0c-0.11-0.297-0.164-0.627-0.162-0.991-0.001-0.369 0.046-0.743 0.14-1.12 0.097-0.372 0.235-0.724 0.415-1.057 0.176-0.324 0.386-0.592 0.629-0.804v0c0.766-0.356 1.571-0.535 2.415-0.536 0.845-0.002 1.665 0.15 2.461 0.455 0.79 0.308 1.527 0.761 2.21 1.36 0.686 0.605 1.264 1.335 1.733 2.19v0c0.503-0.234 0.973-0.513 1.412-0.838 0.439-0.325 0.86-0.649 1.264-0.971 0.398-0.32 0.791-0.631 1.177-0.931 0.384-0.306 0.789-0.559 1.216-0.757v0c0.543-0.253 1.133-0.392 1.767-0.417 0.641-0.028 1.271 0.035 1.889 0.188 0.624 0.15 1.21 0.393 1.757 0.729 0.547 0.336 1.004 0.738 1.371 1.207v0c0.045 0.249 0.007 0.626-0.114 1.129-0.118 0.51-0.277 1.032-0.477 1.565-0.194 0.531-0.408 1.025-0.644 1.483-0.244 0.454-0.475 0.768-0.692 0.94zM238.319 88.451v0c0.424 0.393 0.93 0.716 1.517 0.969 0.587 0.253 1.194 0.429 1.823 0.528 0.637 0.102 1.271 0.12 1.901 0.054 0.633-0.06 1.213-0.212 1.739-0.457v0c-0.246-0.376-0.639-0.733-1.181-1.071-0.533-0.335-1.114-0.616-1.745-0.841-0.634-0.217-1.247-0.358-1.839-0.425-0.595-0.072-1.065-0.027-1.409 0.133v0c-0.444 0.206-0.713 0.577-0.806 1.11z" fill="#8dbdff" data-fill-palette-color="primary"></path><path d="M258.72 99.474l-0.605-1.795c0.087-0.145 0.324-0.33 0.71-0.556 0.38-0.223 0.717-0.385 1.011-0.483v0c0.143 0.564 0.284 1.105 0.424 1.621 0.138 0.511 0.266 0.981 0.384 1.411v0c0.742 0.103 1.486 0.233 2.233 0.39 0.742 0.165 1.432 0.333 2.068 0.506 0.628 0.169 1.174 0.345 1.637 0.53 0.463 0.184 0.776 0.344 0.937 0.48v0c0.072 0.214 0.126 0.495 0.162 0.843 0.036 0.348 0.053 0.713 0.053 1.094-0.003 0.375-0.022 0.722-0.058 1.039-0.038 0.312-0.099 0.543-0.184 0.695v0c-1.014-0.365-1.939-0.659-2.776-0.88-0.842-0.219-1.792-0.443-2.848-0.672v0c0.142 0.421 0.294 0.843 0.457 1.264 0.171 0.425 0.348 0.852 0.533 1.279v0c-0.067 0.145-0.169 0.275-0.307 0.389-0.138 0.115-0.29 0.2-0.455 0.256v0c-0.727-0.904-1.359-2.085-1.898-3.543v0c-1.191-0.183-2.353-0.312-3.486-0.385-1.142-0.078-2.224-0.1-3.247-0.069-1.025 0.026-1.973 0.097-2.845 0.215-0.876 0.125-1.637 0.297-2.285 0.515v0c-0.928 0.313-1.328 0.832-1.199 1.557v0c0.294 0.608 0.652 1.157 1.075 1.647 0.424 0.49 0.89 0.894 1.399 1.212v0c-0.146 0.192-0.279 0.322-0.4 0.39v0c-0.233-0.064-0.525-0.207-0.878-0.429-0.359-0.219-0.719-0.468-1.079-0.748-0.364-0.272-0.689-0.55-0.975-0.834-0.278-0.28-0.457-0.499-0.537-0.655v0c-0.155-0.54-0.217-1.107-0.186-1.703 0.037-0.597 0.141-1.166 0.312-1.706 0.167-0.532 0.4-1.002 0.698-1.409 0.298-0.407 0.637-0.674 1.015-0.801v0c0.507-0.171 1.168-0.319 1.983-0.444 0.811-0.117 1.713-0.204 2.707-0.26 0.99-0.048 2.037-0.071 3.139-0.069 1.103 0.002 2.206 0.038 3.311 0.108z" fill="#8dbdff" data-fill-palette-color="primary"></path><path d="M17.427 191.262v0c-0.035-0.034-0.061-0.072-0.079-0.114-0.017-0.042-0.052-0.125-0.104-0.25v0c-0.124-0.298-0.218-0.66-0.283-1.086-0.068-0.432-0.11-0.861-0.127-1.287-0.016-0.426 0.004-0.804 0.063-1.136 0.058-0.331 0.136-0.555 0.233-0.672v0c0.29-0.141 0.593-0.278 0.908-0.409 0.315-0.131 0.619-0.257 0.911-0.378v0c2.363-0.981 4.898-1.832 7.607-2.552 2.717-0.717 5.735-1.297 9.054-1.74v0c0.326-0.038 0.735-0.103 1.227-0.196 0.498-0.095 1.031-0.198 1.599-0.308v0c-0.609-0.34-1.495-0.677-2.659-1.01-1.164-0.333-2.501-0.636-4.01-0.909-1.509-0.273-3.131-0.5-4.867-0.68-1.741-0.177-3.475-0.277-5.201-0.3-1.726-0.023-3.397 0.036-5.014 0.178-1.622 0.143-3.066 0.415-4.33 0.814v0c-0.123-1.135-0.118-1.957 0.013-2.465 0.134-0.516 0.41-0.861 0.826-1.034v0c0.381-0.158 0.968-0.266 1.761-0.323 0.793-0.057 1.75-0.071 2.872-0.041 1.122 0.03 2.392 0.106 3.81 0.228 1.427 0.126 2.965 0.276 4.614 0.449v0c1.887 0.207 3.67 0.437 5.352 0.687 1.687 0.248 3.24 0.535 4.659 0.86 1.419 0.325 2.683 0.697 3.792 1.116 1.106 0.413 2.024 0.9 2.753 1.462v0c0.121 0.292 0.211 0.718 0.27 1.28 0.062 0.553 0.084 1.11 0.065 1.669-0.011 0.563-0.049 1.074-0.116 1.535-0.067 0.46-0.166 0.742-0.298 0.846v0c-0.713-0.053-1.741-0.034-3.085 0.056-1.344 0.091-2.848 0.241-4.513 0.451-1.67 0.212-3.418 0.481-5.244 0.807-1.826 0.326-3.549 0.703-5.171 1.132v0c1.355 0.003 2.794 0.064 4.316 0.186 1.517 0.124 3.039 0.287 4.568 0.489 1.529 0.203 3.029 0.438 4.501 0.706 1.464 0.264 2.824 0.558 4.081 0.88 1.255 0.316 2.368 0.636 3.34 0.958 0.98 0.326 1.736 0.661 2.269 1.004v0c0.121 0.292 0.211 0.718 0.27 1.28 0.062 0.553 0.084 1.11 0.065 1.669-0.011 0.563-0.049 1.074-0.116 1.534-0.067 0.46-0.166 0.742-0.298 0.846v0c-1.482-0.173-3.19-0.154-5.126 0.057-1.936 0.211-3.923 0.534-5.962 0.968-2.036 0.441-4.022 0.959-5.959 1.554-1.937 0.595-3.643 1.199-5.12 1.812v0c-0.482 0.2-0.988 0.41-1.518 0.631-0.524 0.218-1.063 0.466-1.616 0.744v0c-0.121-0.292-0.228-0.659-0.322-1.101-0.099-0.44-0.168-0.883-0.206-1.328-0.036-0.439-0.039-0.849-0.009-1.231 0.03-0.382 0.11-0.677 0.24-0.885v0c0.29-0.141 0.593-0.278 0.909-0.409 0.315-0.131 0.619-0.257 0.91-0.378v0c2.363-0.981 4.898-1.832 7.607-2.552 2.717-0.717 5.735-1.297 9.054-1.74v0c0.326-0.038 0.765-0.108 1.315-0.211 0.548-0.109 1.118-0.224 1.71-0.344v0c-0.536-0.468-1.376-0.901-2.518-1.299-1.145-0.404-2.472-0.742-3.981-1.016-1.503-0.276-3.14-0.486-4.909-0.63-1.761-0.141-3.516-0.2-5.266-0.179-1.755 0.024-3.462 0.14-5.121 0.348-1.653 0.205-3.118 0.524-4.396 0.957z" fill="#8dbdff" data-fill-palette-color="primary"></path><path d="M30.505 212.556v0c1.177 0.469 2.504 0.808 3.981 1.019 1.478 0.201 2.983 0.28 4.512 0.236 1.526-0.049 3.023-0.227 4.491-0.534 1.47-0.315 2.79-0.747 3.96-1.295v0c0.229-0.156 0.297-0.382 0.205-0.678v0c-0.181-0.266-0.66-0.471-1.435-0.613-0.774-0.151-1.709-0.259-2.805-0.322-1.095-0.073-2.283-0.094-3.564-0.063-1.272 0.033-2.507 0.109-3.703 0.23-1.198 0.13-2.29 0.29-3.277 0.479-0.987 0.189-1.73 0.426-2.229 0.711v0c-0.131-0.192-0.05-0.48 0.24-0.866v0c0.07-0.103 0.124-0.236 0.16-0.401 0.041-0.168 0.066-0.407 0.073-0.716v0c0.013-0.141 0.04-0.296 0.081-0.465 0.036-0.165 0.078-0.291 0.128-0.379v0c0.098-0.176 0.318-0.38 0.658-0.613v0c1.113-0.758 2.463-1.472 4.051-2.14 1.582-0.665 3.258-1.261 5.028-1.789 1.761-0.529 3.554-0.959 5.379-1.29 1.831-0.335 3.556-0.567 5.176-0.696 1.629-0.127 3.078-0.129 4.349-0.004 1.274 0.13 2.247 0.407 2.917 0.831v0c0.074 0.223 0.135 0.513 0.183 0.869 0.045 0.352 0.073 0.719 0.084 1.101 0.007 0.377 0.01 0.742 0.008 1.094-0.011 0.35-0.045 0.627-0.101 0.83v0c-3.089-0.929-6.464-1.257-10.124-0.986-3.665 0.275-7.614 1.152-11.845 2.632v0c1.339-0.141 2.692-0.193 4.057-0.156 1.361 0.04 2.611 0.147 3.752 0.321 1.14 0.174 2.12 0.416 2.938 0.724 0.822 0.313 1.367 0.667 1.635 1.061v0c0.129 0.349 0.193 0.73 0.194 1.143 0.01 0.415-0.045 0.826-0.164 1.235-0.125 0.412-0.289 0.801-0.492 1.166-0.207 0.36-0.469 0.674-0.784 0.943v0c-0.804 0.525-1.741 0.964-2.81 1.319-1.069 0.354-2.18 0.612-3.333 0.774-1.155 0.171-2.312 0.258-3.472 0.26-1.155-0.001-2.232-0.094-3.231-0.278-0.998-0.194-1.876-0.464-2.636-0.813-0.76-0.348-1.319-0.786-1.679-1.313v0c-0.156-0.229-0.29-0.477-0.401-0.744-0.117-0.263-0.2-0.523-0.249-0.777-0.053-0.26-0.073-0.485-0.061-0.673 0.012-0.188 0.064-0.313 0.155-0.374z" fill="#8dbdff" data-fill-palette-color="primary"></path><path d="M79.952 235.411v0c-0.903 1.084-2.007 1.805-3.31 2.161-1.304 0.357-2.706 0.384-4.207 0.082v0c0.284 1.008 0.352 2.004 0.204 2.988-0.152 0.989-0.556 1.876-1.213 2.664v0c-0.788 0.946-1.85 1.642-3.186 2.088-1.332 0.442-2.769 0.625-4.308 0.551-1.536-0.08-3.089-0.405-4.661-0.975-1.575-0.566-2.994-1.374-4.257-2.426v0c-1.367-1.138-2.346-2.394-2.938-3.768-0.596-1.369-0.79-2.767-0.581-4.196v0c0.615-0.376 1.391-0.834 2.325-1.372 0.944-0.539 1.95-1.098 3.018-1.675 1.073-0.574 2.148-1.138 3.223-1.694 1.074-0.565 2.052-1.054 2.934-1.469v0c1.905-0.938 3.528-1.678 4.87-2.222 1.342-0.543 2.474-0.921 3.397-1.133v0c-1.213-0.507-2.37-0.9-3.471-1.18-1.101-0.279-1.981-0.396-2.64-0.349v0c-0.072-0.236-0.103-0.531-0.094-0.884 0.01-0.344 0.046-0.704 0.107-1.081 0.061-0.385 0.154-0.748 0.278-1.089 0.125-0.341 0.263-0.623 0.417-0.848v0c0.72 0.063 1.563 0.253 2.53 0.573 0.971 0.314 1.972 0.724 3.002 1.229 1.034 0.501 2.051 1.067 3.051 1.699 1.004 0.627 1.92 1.285 2.747 1.973v0c2.1 1.749 3.396 3.541 3.888 5.377 0.487 1.832 0.112 3.49-1.125 4.976zM64.719 233.354v0c-0.209-0.434-0.32-0.925-0.333-1.473v0c-1.148 0.553-2.26 1.112-3.334 1.677-1.075 0.556-2.058 1.087-2.95 1.593-0.893 0.498-1.652 0.947-2.28 1.348-0.623 0.395-1.047 0.709-1.273 0.939v0c0.132 0.345 0.338 0.692 0.617 1.042 0.284 0.354 0.681 0.743 1.191 1.168v0c1.193 0.994 2.47 1.777 3.831 2.349 1.361 0.571 2.689 0.915 3.985 1.03 1.301 0.119 2.502 0.017 3.603-0.308 1.105-0.33 1.993-0.898 2.666-1.705v0c0.961-1.154 1.154-2.402 0.578-3.746v0c-1.837-0.574-3.612-1.574-5.325-3.001v0c-0.248-0.206-0.436-0.363-0.565-0.47-0.134-0.111-0.271-0.259-0.411-0.443zM77.406 228.484v0c-0.366-0.305-0.776-0.609-1.23-0.911-0.448-0.298-0.937-0.592-1.467-0.882v0c0.012 0.127 0.007 0.249-0.014 0.365-0.021 0.116-0.05 0.231-0.086 0.344v0c-0.336 0.081-0.785 0.227-1.346 0.439-0.562 0.211-1.204 0.469-1.927 0.773-0.728 0.3-1.515 0.646-2.363 1.039-0.847 0.393-1.712 0.801-2.592 1.225v0c0.355 0.178 0.766 0.424 1.234 0.738 0.463 0.31 0.905 0.64 1.326 0.991v0c0.228 0.19 0.444 0.383 0.65 0.579 0.206 0.205 0.399 0.412 0.578 0.62v0c0.957 0.562 1.886 0.988 2.786 1.277 0.9 0.289 1.744 0.459 2.531 0.51 0.791 0.047 1.5-0.038 2.126-0.255 0.63-0.222 1.148-0.578 1.556-1.069v0c0.701-0.842 0.897-1.752 0.589-2.73-0.31-0.988-1.093-2.005-2.352-3.053z" fill="#8dbdff" data-fill-palette-color="primary"></path><path d="M73.698 250.131v0c0.102-0.179 0.243-0.396 0.424-0.649 0.178-0.248 0.433-0.573 0.766-0.977 0.335-0.395 0.749-0.875 1.24-1.441 0.488-0.56 1.084-1.23 1.786-2.01v0c0.151-0.174 0.42-0.44 0.808-0.797 0.383-0.361 0.827-0.72 1.334-1.077 0.503-0.352 1.048-0.665 1.634-0.94 0.588-0.266 1.172-0.38 1.749-0.341v0c0.292 0.269 0.621 0.727 0.989 1.373 0.37 0.64 0.591 1.362 0.66 2.164v0c-0.749 0.249-1.421 0.546-2.016 0.89-0.601 0.341-1.182 0.718-1.744 1.133-0.567 0.412-1.125 0.859-1.672 1.341-0.545 0.476-1.13 0.966-1.757 1.47v0c-0.534 0.431-1.057 0.889-1.571 1.376-0.505 0.484-0.892 0.939-1.162 1.363v0c-0.204 0.359-0.352 0.608-0.447 0.747-0.091 0.148-0.188 0.194-0.288 0.137v0c-0.078-0.045-0.21-0.186-0.393-0.424-0.178-0.234-0.332-0.525-0.461-0.873-0.134-0.351-0.209-0.741-0.224-1.172-0.018-0.425 0.097-0.856 0.345-1.293zM86.698 240.448v0c0.067-0.118 0.199-0.28 0.398-0.486v0c-0.047-0.153-0.047-0.349 0-0.589 0.038-0.238 0.102-0.435 0.192-0.591v0c0.102-0.179 0.265-0.409 0.49-0.689 0.225-0.28 0.479-0.577 0.762-0.89 0.279-0.309 0.59-0.621 0.932-0.938 0.337-0.32 0.655-0.606 0.954-0.859v0c0.235 0.134 0.49 0.363 0.765 0.689 0.274 0.326 0.532 0.695 0.773 1.106 0.238 0.417 0.435 0.832 0.592 1.248 0.157 0.415 0.252 0.777 0.285 1.084v0c-0.343 0.095-0.803 0.233-1.381 0.417-0.573 0.186-1.148 0.397-1.726 0.632-0.584 0.232-1.119 0.458-1.607 0.677-0.493 0.216-0.824 0.381-0.992 0.493v0c-0.213-0.173-0.362-0.394-0.445-0.664-0.084-0.27-0.081-0.483 0.008-0.64z" fill="#8dbdff" data-fill-palette-color="primary"></path><path d="M86.199 260.368v0c-1.129-0.648-1.844-1.589-2.144-2.821-0.306-1.235-0.145-2.56 0.481-3.974v0c0.371-0.837 0.881-1.647 1.532-2.43 0.644-0.786 1.383-1.498 2.215-2.137 0.833-0.639 1.729-1.197 2.688-1.675 0.956-0.472 1.919-0.817 2.89-1.035v0c1.522-0.348 2.783-0.3 3.785 0.144v0c0.509 0.648 0.839 1.679 0.988 3.091v0c0.106 0.047 0.203 0.083 0.291 0.108 0.085 0.031 0.181 0.069 0.286 0.116v0c1.102 0.488 1.219 1.71 0.353 3.667v0c-0.582 1.314-1.346 2.466-2.293 3.457-0.952 0.988-2.02 1.791-3.202 2.408-1.186 0.624-2.451 1.029-3.795 1.216-1.341 0.195-2.699 0.15-4.075-0.135zM92.161 251.231v0c-0.565 0.321-1.129 0.695-1.692 1.122-0.56 0.421-1.082 0.867-1.565 1.337-0.486 0.476-0.908 0.951-1.266 1.427-0.365 0.473-0.639 0.918-0.825 1.336v0c-0.222 0.501-0.348 1.016-0.378 1.546-0.039 0.533 0.031 0.877 0.208 1.033v0c1.031 0.203 2.065 0.192 3.102-0.032 1.037-0.224 2.03-0.637 2.98-1.238 0.95-0.601 1.827-1.372 2.632-2.313 0.804-0.941 1.479-2.027 2.025-3.258v0c0.24-0.542 0.397-0.984 0.47-1.325 0.079-0.338 0.096-0.655 0.051-0.95v0c-1.039-0.136-2.053-0.06-3.04 0.228-0.985 0.283-1.886 0.645-2.702 1.087z" fill="#8dbdff" data-fill-palette-color="primary"></path><path d="M101.533 262.421v0c0.057-0.198 0.143-0.442 0.259-0.73 0.114-0.282 0.286-0.659 0.514-1.13 0.233-0.463 0.522-1.027 0.866-1.693 0.343-0.659 0.763-1.451 1.262-2.374v0c0.105-0.204 0.305-0.526 0.598-0.965 0.287-0.441 0.634-0.894 1.042-1.361 0.406-0.46 0.862-0.893 1.367-1.298 0.509-0.397 1.049-0.645 1.62-0.743v0c0.347 0.193 0.775 0.56 1.284 1.101 0.511 0.535 0.895 1.184 1.152 1.948v0c-0.669 0.419-1.253 0.865-1.75 1.339-0.504 0.473-0.98 0.977-1.428 1.512-0.454 0.534-0.891 1.099-1.31 1.697-0.417 0.591-0.871 1.205-1.361 1.843v0c-0.417 0.544-0.818 1.113-1.202 1.707-0.376 0.589-0.646 1.122-0.809 1.599v0c-0.113 0.397-0.199 0.674-0.258 0.831-0.054 0.166-0.137 0.232-0.248 0.2v0c-0.087-0.025-0.247-0.131-0.482-0.319-0.228-0.186-0.446-0.433-0.653-0.739-0.213-0.309-0.378-0.671-0.494-1.087-0.118-0.409-0.107-0.855 0.031-1.338zM111.886 249.948v0c0.037-0.13 0.128-0.319 0.272-0.565v0c-0.081-0.137-0.127-0.328-0.138-0.573-0.019-0.24-0.003-0.447 0.047-0.62v0c0.057-0.198 0.162-0.46 0.314-0.785 0.153-0.325 0.33-0.673 0.53-1.044 0.198-0.366 0.427-0.743 0.686-1.132 0.252-0.39 0.494-0.743 0.725-1.059v0c0.26 0.074 0.562 0.238 0.906 0.49 0.343 0.252 0.681 0.55 1.011 0.893 0.329 0.349 0.619 0.707 0.87 1.073 0.25 0.367 0.428 0.695 0.532 0.986v0c-0.311 0.173-0.726 0.416-1.244 0.73-0.513 0.316-1.022 0.656-1.529 1.021-0.513 0.363-0.98 0.708-1.402 1.037-0.429 0.327-0.711 0.564-0.848 0.713v0c-0.248-0.118-0.444-0.298-0.589-0.541-0.145-0.243-0.193-0.451-0.143-0.624z" fill="#8dbdff" data-fill-palette-color="primary"></path><path d="M120.628 252.006v0c0.557 0.272 1.043 0.759 1.459 1.459 0.422 0.701 0.698 1.444 0.826 2.229v0c-0.347 0.571-0.849 1.241-1.508 2.009-0.653 0.77-1.308 1.558-1.968 2.366-0.665 0.807-1.269 1.574-1.81 2.303-0.549 0.734-0.897 1.354-1.043 1.859v0c0.418-0.324 0.887-0.703 1.406-1.135 0.521-0.438 1.032-0.878 1.535-1.319 0.495-0.436 0.957-0.835 1.387-1.197 0.423-0.356 0.753-0.62 0.989-0.79v0c0.499-0.383 1.089-0.823 1.769-1.321 0.682-0.504 1.386-0.968 2.114-1.392 0.728-0.425 1.449-0.772 2.165-1.042 0.708-0.265 1.333-0.353 1.874-0.266v0c0.585 0.094 1.043 0.37 1.375 0.828 0.331 0.458 0.573 0.918 0.727 1.381v0c-0.007 0.045-0.1 0.092-0.277 0.141-0.185 0.055-0.462 0.236-0.832 0.542v0c-0.384 0.356-0.83 0.858-1.339 1.507-0.508 0.643-1.013 1.345-1.514 2.106-0.501 0.761-0.945 1.551-1.332 2.371-0.385 0.813-0.635 1.569-0.747 2.268v0c-0.09 0.56-0.075 0.931 0.046 1.114 0.121 0.183 0.315 0.295 0.582 0.339v0c0.248 0.04 0.518 0.025 0.81-0.046 0.286-0.071 0.508-0.094 0.667-0.069v0c0.082 0.059 0.14 0.166 0.174 0.322 0.034 0.156 0.041 0.291 0.022 0.405v0c-0.21 0.129-0.452 0.25-0.724 0.363-0.274 0.119-0.555 0.224-0.844 0.314-0.29 0.097-0.572 0.169-0.847 0.216-0.275 0.047-0.515 0.054-0.718 0.022v0c-0.649-0.105-1.168-0.286-1.558-0.545-0.383-0.257-0.666-0.564-0.85-0.92-0.185-0.35-0.287-0.751-0.305-1.204-0.025-0.454 0.003-0.93 0.082-1.426v0c0.043-0.267 0.114-0.569 0.215-0.906 0.105-0.329 0.262-0.712 0.469-1.148 0.208-0.443 0.488-0.963 0.838-1.559 0.352-0.603 0.791-1.325 1.319-2.167v0c-0.045-0.007-0.376 0.103-0.993 0.33-0.61 0.222-1.296 0.607-2.057 1.157v0c-1.219 0.842-2.329 1.691-3.328 2.548-1.005 0.85-2.044 1.812-3.118 2.885v0c-0.609 0.62-1.137 1.142-1.584 1.566-0.453 0.423-0.826 0.693-1.119 0.809v0c-0.427-0.349-0.716-0.784-0.867-1.305-0.145-0.519-0.233-1.046-0.265-1.579v0c0.069-0.426 0.219-0.957 0.452-1.592 0.225-0.629 0.511-1.328 0.857-2.095 0.339-0.768 0.738-1.562 1.196-2.382 0.453-0.828 0.945-1.649 1.474-2.465v0c1.172-1.848 2.202-3.275 3.088-4.281 0.894-1.011 1.437-1.547 1.63-1.607z" fill="#8dbdff" data-fill-palette-color="primary"></path><path d="M137.305 280v0c-0.577-0.215-0.927-0.641-1.048-1.277v0c-0.108-0.617-0.506-1.113-1.196-1.487v0c0.166-1.163 0.352-2.339 0.557-3.529 0.205-1.19 0.471-2.545 0.798-4.065 0.328-1.52 0.741-3.297 1.24-5.33 0.499-2.026 1.133-4.48 1.9-7.362v0c-0.747 0.013-1.337 0.033-1.768 0.06-0.438 0.034-0.859 0.086-1.264 0.158v0c-0.092-0.089-0.168-0.21-0.229-0.363-0.061-0.16-0.092-0.308-0.095-0.444v0c0.224-0.101 0.689-0.231 1.395-0.392 0.706-0.161 1.477-0.303 2.313-0.427v0c0.517-1.743 1.118-3.31 1.802-4.702 0.684-1.391 1.427-2.584 2.228-3.578 0.801-0.994 1.654-1.763 2.56-2.307 0.899-0.538 1.816-0.815 2.751-0.832v0c0.277-0.005 0.542 0.007 0.793 0.034 0.246 0.034 0.439 0.05 0.581 0.048v0c0.203-0.165 0.475-0.311 0.814-0.44 0.339-0.135 0.634-0.205 0.886-0.209v0c0.271-0.005 0.624 0.137 1.061 0.426v0c-0.175 0.325-0.36 0.76-0.557 1.305-0.197 0.551-0.358 1.092-0.484 1.624v0c-0.537 1.692-1.12 2.795-1.749 3.308v0c-0.251 0.004-0.396-0.322-0.433-0.979v0c-0.028-0.483-0.104-0.949-0.228-1.397v0c-0.094-0.205-0.162-0.387-0.203-0.548-0.035-0.161-0.055-0.366-0.059-0.618v0c-0.002-0.135 0.008-0.3 0.03-0.493 0.016-0.194 0.055-0.52 0.118-0.979v0c-0.387 0.007-0.811 0.256-1.273 0.748-0.455 0.485-0.933 1.17-1.433 2.056-0.5 0.885-1 1.938-1.501 3.159-0.501 1.214-0.976 2.557-1.427 4.027v0l2.869-0.157c0.112 0.114 0.213 0.367 0.303 0.759 0.084 0.398 0.143 0.816 0.177 1.254v0l-3.764-0.147c-0.824 2.593-1.593 5.069-2.305 7.428-0.706 2.365-1.338 4.542-1.895 6.53-0.558 1.995-1.035 3.776-1.433 5.343-0.391 1.573-0.668 2.838-0.832 3.795z" fill="#8dbdff" data-fill-palette-color="primary"></path><path d="M154.68 270.514v0c-1.302 0.014-2.395-0.434-3.279-1.344-0.89-0.909-1.423-2.132-1.601-3.669v0c-0.105-0.909-0.076-1.866 0.088-2.871 0.157-1.004 0.432-1.993 0.825-2.966 0.394-0.973 0.883-1.908 1.467-2.806 0.585-0.891 1.24-1.677 1.966-2.358v0c1.135-1.072 2.247-1.67 3.335-1.795v0c0.768 0.301 1.574 1.022 2.42 2.163v0c0.115-0.013 0.217-0.032 0.305-0.055 0.089-0.017 0.191-0.032 0.306-0.045v0c1.197-0.138 1.918 0.856 2.163 2.981v0c0.165 1.428 0.09 2.808-0.223 4.142-0.32 1.334-0.833 2.568-1.538 3.7-0.706 1.139-1.59 2.13-2.655 2.973-1.057 0.848-2.25 1.499-3.579 1.95zM155.184 259.616v0c-0.324 0.563-0.621 1.171-0.889 1.825-0.269 0.647-0.493 1.296-0.671 1.945-0.177 0.656-0.3 1.28-0.368 1.872-0.074 0.592-0.085 1.116-0.033 1.571v0c0.063 0.544 0.215 1.052 0.458 1.523 0.237 0.479 0.471 0.74 0.704 0.785v0c0.991-0.348 1.877-0.881 2.656-1.601 0.78-0.719 1.427-1.579 1.941-2.578 0.514-1 0.879-2.109 1.095-3.328 0.216-1.219 0.247-2.497 0.093-3.835v0c-0.068-0.589-0.157-1.049-0.266-1.38-0.103-0.332-0.249-0.614-0.438-0.845v0c-0.965 0.41-1.8 0.989-2.505 1.739-0.706 0.743-1.298 1.512-1.777 2.307z" fill="#8dbdff" data-fill-palette-color="primary"></path><path d="M183.699 264.95v0c-1.13 0.115-1.952 0.107-2.465-0.023-0.51-0.139-0.855-0.429-1.036-0.871v0c-0.139-0.34-0.238-0.853-0.296-1.54-0.067-0.69-0.085-1.525-0.056-2.505 0.027-0.986 0.093-2.093 0.196-3.319 0.103-1.226 0.243-2.551 0.418-3.975v0c-0.558 0.201-1.055 0.384-1.489 0.548-0.438 0.172-0.794 0.315-1.068 0.427v0c-0.004-0.367 0.241-0.788 0.736-1.262 0.501-0.477 1.2-0.997 2.098-1.56v0c0.261-1.709 0.606-3.379 1.037-5.012 0.425-1.63 0.898-3.161 1.419-4.594 0.52-1.432 1.092-2.739 1.714-3.921 0.631-1.178 1.284-2.177 1.958-2.996v0c-0.043-0.156-0.08-0.288-0.109-0.394-0.032-0.112-0.057-0.189-0.074-0.231v0c0.292-0.12 0.716-0.207 1.273-0.261 0.554-0.06 1.113-0.08 1.678-0.061 0.563 0.013 1.071 0.055 1.525 0.127 0.46 0.069 0.742 0.17 0.844 0.302v0c-0.191 1.506-0.123 3.616 0.204 6.331 0.318 2.712 0.953 5.857 1.904 9.437v0c0.237 0.885 0.542 1.881 0.913 2.99 0.368 1.103 0.825 2.319 1.37 3.648v0c0.191 0.465 0.385 0.939 0.583 1.423 0.198 0.483 0.427 0.981 0.686 1.494v0c-0.034 0.035-0.072 0.061-0.114 0.079-0.042 0.017-0.128 0.053-0.259 0.106v0c-0.292 0.12-0.655 0.213-1.088 0.279-0.427 0.064-0.853 0.102-1.278 0.116-0.426 0.014-0.804-0.008-1.136-0.067-0.331-0.059-0.555-0.138-0.671-0.237v0c-0.13-0.267-0.251-0.535-0.361-0.803-0.108-0.262-0.221-0.54-0.341-0.831v0c-0.538-1.312-1.038-2.66-1.501-4.044-0.457-1.387-0.864-2.846-1.221-4.379v0c-0.3 0.102-0.701 0.235-1.204 0.4-0.495 0.168-1.048 0.367-1.657 0.596-0.612 0.223-1.267 0.46-1.965 0.711-0.694 0.243-1.373 0.49-2.037 0.741v0c-0.118 1.156-0.206 2.292-0.263 3.41-0.061 1.125-0.055 2.227 0.017 3.304v0c0.058 1.16 0.183 2.29 0.376 3.388 0.195 1.104 0.442 2.114 0.74 3.029zM188.121 240.926v0c-0.036-0.326-0.104-0.772-0.204-1.338-0.093-0.568-0.206-1.155-0.336-1.763v0c-0.446 0.406-0.889 0.991-1.328 1.756-0.436 0.771-0.843 1.673-1.221 2.705-0.378 1.032-0.726 2.161-1.046 3.386-0.326 1.227-0.597 2.502-0.814 3.823v0c1.71-0.875 3.683-1.796 5.92-2.761v0c-0.189-0.953-0.365-1.909-0.528-2.866-0.157-0.96-0.304-1.94-0.443-2.942z" fill="#8dbdff" data-fill-palette-color="primary"></path><path d="M200.094 235.76v0c0.597-0.167 1.283-0.128 2.06 0.117 0.782 0.242 1.482 0.613 2.1 1.113v0c0.122 0.657 0.192 1.491 0.212 2.503 0.025 1.009 0.061 2.034 0.108 3.075 0.041 1.045 0.102 2.019 0.183 2.924 0.079 0.913 0.232 1.607 0.459 2.081v0c0.096-0.52 0.194-1.115 0.294-1.783 0.097-0.674 0.186-1.343 0.266-2.006 0.079-0.655 0.158-1.26 0.239-1.816 0.078-0.547 0.149-0.963 0.211-1.248v0c0.117-0.618 0.264-1.339 0.441-2.164 0.173-0.83 0.39-1.645 0.65-2.446 0.26-0.801 0.568-1.541 0.922-2.219 0.352-0.669 0.759-1.151 1.221-1.446v0c0.5-0.319 1.025-0.418 1.577-0.297 0.552 0.121 1.039 0.303 1.462 0.545v0c0.024 0.038-0.013 0.135-0.113 0.29-0.101 0.164-0.188 0.484-0.26 0.958v0c-0.049 0.521-0.048 1.193 0.005 2.017 0.049 0.818 0.14 1.678 0.272 2.579 0.133 0.902 0.328 1.787 0.585 2.655 0.253 0.863 0.571 1.593 0.953 2.191v0c0.306 0.478 0.564 0.745 0.776 0.8 0.212 0.056 0.432 0.011 0.659-0.135v0c0.212-0.135 0.403-0.327 0.574-0.573 0.166-0.244 0.316-0.409 0.452-0.496v0c0.1-0.011 0.215 0.031 0.344 0.125 0.129 0.094 0.224 0.189 0.287 0.287v0c-0.071 0.236-0.17 0.487-0.299 0.753-0.125 0.271-0.265 0.537-0.42 0.796-0.152 0.265-0.315 0.507-0.489 0.726-0.174 0.218-0.348 0.383-0.521 0.494v0c-0.554 0.354-1.062 0.564-1.525 0.63-0.457 0.063-0.873 0.023-1.247-0.12-0.371-0.138-0.714-0.369-1.03-0.695-0.321-0.323-0.617-0.696-0.887-1.119v0c-0.146-0.228-0.293-0.501-0.443-0.819-0.141-0.316-0.279-0.705-0.415-1.169-0.139-0.469-0.277-1.043-0.412-1.721-0.139-0.684-0.292-1.515-0.46-2.495v0c-0.038 0.024-0.212 0.327-0.521 0.907-0.308 0.572-0.562 1.316-0.764 2.233v0c-0.349 1.44-0.612 2.812-0.787 4.117-0.184 1.303-0.319 2.713-0.405 4.229v0c-0.042 0.868-0.088 1.609-0.139 2.223-0.056 0.617-0.155 1.067-0.297 1.349v0c-0.551 0.023-1.056-0.109-1.515-0.397-0.454-0.291-0.87-0.625-1.249-1.002v0c-0.233-0.364-0.473-0.86-0.723-1.489-0.251-0.62-0.503-1.331-0.755-2.133-0.258-0.799-0.489-1.657-0.694-2.574-0.213-0.919-0.394-1.86-0.541-2.82v0c-0.356-2.159-0.538-3.909-0.546-5.251-0.006-1.35 0.042-2.111 0.145-2.284z" fill="#8dbdff" data-fill-palette-color="primary"></path><path d="M222.594 221.55v0c0.173-0.155 0.398-0.304 0.675-0.449 0.286-0.144 0.564-0.254 0.834-0.33 0.273-0.071 0.52-0.115 0.739-0.129 0.215-0.011 0.361 0.027 0.439 0.113v0c0.295 1.016 0.622 2.016 0.983 2.999 0.356 0.978 0.73 1.889 1.121 2.732 0.386 0.848 0.782 1.609 1.187 2.285 0.405 0.675 0.799 1.227 1.181 1.654v0c0.425 0.476 0.828 0.824 1.208 1.046 0.389 0.223 0.762 0.296 1.117 0.22v0c-0.081 0.315-0.244 0.66-0.489 1.034-0.249 0.379-0.501 0.682-0.756 0.909v0c-0.918 0.821-1.939 0.601-3.064-0.657v0c-0.868-0.97-1.729-2.586-2.585-4.847v0c0.359 1.088 0.625 2.173 0.798 3.255 0.172 1.082 0.267 2.091 0.282 3.028 0.011 0.941-0.068 1.785-0.237 2.533-0.174 0.752-0.426 1.336-0.755 1.752v0c-0.659 0.529-1.439 0.682-2.339 0.458-0.896-0.219-1.739-0.77-2.53-1.654v0c-0.851-0.951-1.547-2.136-2.088-3.553-0.532-1.417-0.881-2.861-1.046-4.331-0.169-1.474-0.149-2.845 0.059-4.111 0.208-1.275 0.645-2.241 1.312-2.898v0c0.215-0.098 0.497-0.164 0.846-0.199 0.349-0.044 0.712-0.049 1.089-0.014 0.377 0.026 0.728 0.084 1.052 0.175 0.333 0.092 0.573 0.205 0.72 0.341v0c-0.583 0.711-0.988 1.67-1.215 2.876-0.218 1.206-0.266 2.468-0.143 3.785 0.118 1.312 0.394 2.587 0.827 3.825 0.429 1.233 0.993 2.242 1.694 3.025v0c0.288 0.322 0.591 0.419 0.908 0.29v0c0.395-0.544 0.589-1.473 0.58-2.788-0.018-1.315-0.26-3.157-0.726-5.525v0c-0.102-0.462-0.215-0.975-0.338-1.538-0.119-0.559-0.251-1.141-0.396-1.747-0.144-0.606-0.297-1.212-0.459-1.82-0.162-0.607-0.324-1.189-0.485-1.745z" fill="#8dbdff" data-fill-palette-color="primary"></path><path d="M235.792 224.132v0c-0.777-0.638-1.713-1.716-2.81-3.234-1.096-1.518-2.302-3.38-3.617-5.587v0c-2.082-3.537-3.719-6.6-4.911-9.189-1.196-2.584-1.973-4.791-2.331-6.619v0c0.211-0.185 0.515-0.373 0.913-0.563 0.389-0.189 0.793-0.366 1.212-0.531 0.41-0.164 0.8-0.289 1.172-0.376 0.371-0.096 0.637-0.136 0.799-0.119v0c0.494 2.708 1.247 5.345 2.258 7.91 1.012 2.575 2.372 5.285 4.079 8.131v0c1.467 2.448 2.875 4.551 4.224 6.31 1.348 1.75 2.577 3.081 3.688 3.993v0c0.299 0.245 0.483 0.397 0.552 0.454 0.07 0.057 0.146 0.107 0.228 0.15v0c-0.235 0.215-0.471 0.376-0.708 0.481-0.228 0.105-0.426 0.133-0.596 0.086v0c-0.118-0.039-0.325-0.046-0.621-0.022-0.296 0.015-0.54 0.048-0.732 0.1v0c-0.235 0.073-0.62-0.022-1.154-0.286-0.534-0.264-1.082-0.627-1.645-1.089z" fill="#8dbdff" data-fill-palette-color="primary"></path><path d="M247.252 202.256v0c1.129 1.327 2.132 2.578 3.007 3.753 0.878 1.169 1.648 2.312 2.309 3.428 0.661 1.116 1.218 2.221 1.672 3.314 0.454 1.093 0.83 2.22 1.128 3.381v0c0.366 1.464 0.499 2.826 0.398 4.088-0.103 1.253-0.451 2.351-1.045 3.294v0c-0.305 0.485-0.66 0.928-1.064 1.329-0.402 0.409-0.826 0.763-1.273 1.061-0.441 0.301-0.881 0.535-1.32 0.7-0.448 0.167-0.847 0.232-1.196 0.195v0c-0.235-0.148-0.352-0.408-0.354-0.782v0c0.351-0.099 0.637-0.189 0.857-0.272 0.211-0.081 0.4-0.171 0.569-0.27 0.166-0.094 0.311-0.216 0.436-0.365 0.119-0.153 0.246-0.336 0.38-0.549v0c0.693-1.102 1.049-2.382 1.067-3.84 0.01-1.456-0.282-3.025-0.875-4.708-0.602-1.681-1.503-3.439-2.701-5.273-1.207-1.833-2.683-3.675-4.427-5.526v0c0.229 0.495 0.51 1.101 0.842 1.82 0.326 0.716 0.626 1.467 0.899 2.256 0.27 0.794 0.478 1.564 0.625 2.312 0.143 0.753 0.155 1.399 0.035 1.94v0c-0.217 0.297-0.484 0.582-0.801 0.856-0.322 0.27-0.673 0.494-1.052 0.674-0.376 0.174-0.774 0.293-1.195 0.356-0.411 0.061-0.816 0.02-1.213-0.123v0c-0.562-0.353-1-0.656-1.314-0.907-0.314-0.251-0.644-0.55-0.989-0.896v0c-0.621-0.634-1.289-1.412-2.003-2.334-0.715-0.922-1.377-1.89-1.987-2.906-0.615-1.019-1.14-2.049-1.573-3.091-0.433-1.042-0.685-2.003-0.755-2.885v0c0.096-0.153 0.233-0.333 0.41-0.542 0.175-0.217 0.379-0.428 0.613-0.63 0.234-0.203 0.478-0.385 0.731-0.545 0.251-0.169 0.517-0.284 0.799-0.343v0c0.063 0.336 0.419 1.204 1.069 2.603 0.652 1.408 1.737 3.194 3.253 5.358v0c0.151 0.232 0.385 0.543 0.703 0.934 0.323 0.394 0.666 0.792 1.029 1.195 0.363 0.403 0.728 0.785 1.095 1.146 0.364 0.366 0.671 0.628 0.922 0.786v0c0.153 0.096 0.283 0.144 0.39 0.142 0.113 0.002 0.2-0.004 0.263-0.017v0c0.156-0.381 0.162-1.025 0.016-1.932-0.144-0.897-0.528-2.053-1.154-3.467v0c-0.401-0.899-0.821-1.757-1.259-2.573-0.447-0.814-0.899-1.627-1.355-2.44-0.461-0.816-0.929-1.658-1.402-2.527-0.477-0.864-0.957-1.771-1.44-2.721v0c0.158-0.251 0.358-0.502 0.6-0.754 0.236-0.255 0.482-0.488 0.737-0.701 0.259-0.218 0.506-0.393 0.743-0.526 0.231-0.137 0.434-0.218 0.61-0.244v0c0.899 1.403 1.794 2.746 2.684 4.03 0.882 1.285 1.834 2.532 2.856 3.738z" fill="#8dbdff" data-fill-palette-color="primary"></path><path d="M248.366 181.896v0c0.383 0.2 0.761 0.457 1.133 0.773 0.375 0.31 0.694 0.625 0.956 0.946 0.26 0.327 0.46 0.637 0.602 0.931 0.143 0.287 0.176 0.516 0.096 0.685v0c-0.124 0.22-0.341 0.282-0.652 0.186v0c-0.064-0.03-0.151-0.102-0.261-0.217-0.11-0.115-0.232-0.243-0.365-0.384-0.136-0.135-0.274-0.266-0.413-0.395-0.145-0.131-0.279-0.226-0.402-0.282v0c-0.292-0.136-0.566-0.182-0.821-0.138-0.261 0.042-0.445 0.177-0.551 0.405v0c-0.384 0.824-0.16 1.695 0.67 2.615 0.833 0.914 2.251 1.837 4.254 2.771v0c0.204 0.095 0.333 0.141 0.385 0.136v0c0.184-0.44 0.349-0.833 0.495-1.177 0.149-0.35 0.299-0.689 0.451-1.016v0c0.052-0.004 0.142 0.023 0.271 0.083v0c0.187 0.087 0.302 0.191 0.346 0.311v0c-0.124 0.525-0.213 0.946-0.268 1.261-0.058 0.307-0.089 0.549-0.092 0.725-0.01 0.173 0.017 0.292 0.079 0.357 0.057 0.062 0.146 0.121 0.269 0.178v0c0.169 0.079 0.337 0.154 0.503 0.224 0.169 0.065 0.379 0.155 0.631 0.272v0c1.735 0.808 2.909 1.927 3.523 3.358 0.619 1.433 0.622 3.023 0.007 4.77v0c-0.159 0.281-0.381 0.544-0.666 0.788-0.29 0.242-0.615 0.45-0.973 0.624-0.356 0.168-0.723 0.293-1.101 0.372-0.376 0.074-0.726 0.085-1.05 0.034v0c-0.783-0.365-1.454-0.876-2.015-1.536-0.558-0.665-0.979-1.409-1.264-2.231-0.285-0.822-0.416-1.701-0.393-2.635 0.017-0.938 0.207-1.873 0.57-2.806v0c-0.52-0.242-1.051-0.429-1.594-0.561-0.54-0.123-1.069-0.238-1.588-0.345-0.522-0.101-1.029-0.202-1.522-0.304-0.49-0.107-0.952-0.262-1.384-0.463v0c-0.561-0.261-1.06-0.632-1.497-1.113-0.443-0.484-0.813-1.018-1.108-1.604-0.287-0.589-0.482-1.209-0.584-1.86-0.096-0.649-0.083-1.272 0.039-1.87v0c0.168-0.192 0.49-0.412 0.967-0.658 0.481-0.238 0.992-0.459 1.535-0.661 0.548-0.2 1.079-0.354 1.591-0.464 0.522-0.113 0.919-0.141 1.191-0.085zM257.739 198.705v0c0.027-0.592-0.052-1.201-0.237-1.827-0.19-0.629-0.456-1.226-0.798-1.79-0.338-0.556-0.742-1.063-1.21-1.523-0.465-0.451-0.967-0.802-1.504-1.053v0c-0.132 0.436-0.153 0.977-0.063 1.624 0.09 0.646 0.256 1.289 0.499 1.928 0.24 0.645 0.53 1.221 0.87 1.727 0.343 0.515 0.69 0.854 1.04 1.018v0c0.456 0.212 0.923 0.178 1.403-0.104z" fill="#8dbdff" data-fill-palette-color="primary"></path><path d="M250.819 175.984l-0.624 1.84c-0.165 0.066-0.473 0.071-0.923 0.013-0.45-0.057-0.825-0.137-1.124-0.238v0c0.233-0.547 0.453-1.075 0.659-1.583 0.206-0.508 0.394-0.972 0.564-1.391v0c-0.537-0.543-1.062-1.112-1.575-1.708-0.506-0.594-0.965-1.157-1.376-1.691-0.403-0.538-0.734-1.025-0.995-1.461-0.261-0.435-0.416-0.76-0.466-0.974v0c0.072-0.214 0.202-0.476 0.389-0.787 0.193-0.309 0.406-0.614 0.638-0.917 0.24-0.306 0.472-0.578 0.695-0.815 0.223-0.237 0.418-0.389 0.583-0.456v0c0.602 0.932 1.176 1.75 1.721 2.452 0.538 0.7 1.171 1.472 1.898 2.317v0c0.147-0.433 0.286-0.873 0.417-1.318 0.127-0.454 0.245-0.914 0.355-1.38v0c0.147-0.073 0.31-0.113 0.49-0.12 0.188-0.011 0.367 0.012 0.538 0.07v0c0.033 1.188-0.186 2.546-0.657 4.075v0c0.849 0.887 1.715 1.715 2.598 2.483 0.883 0.769 1.75 1.461 2.603 2.077 0.853 0.616 1.673 1.146 2.461 1.59 0.786 0.45 1.512 0.788 2.178 1.014v0c0.952 0.323 1.604 0.146 1.956-0.531v0c0.128-0.678 0.171-1.347 0.129-2.007-0.033-0.665-0.159-1.286-0.378-1.864v0c0.239-0.062 0.429-0.082 0.572-0.061v0c0.146 0.192 0.296 0.492 0.451 0.898 0.151 0.398 0.289 0.823 0.415 1.274 0.126 0.451 0.216 0.879 0.268 1.285 0.055 0.4 0.065 0.692 0.029 0.877v0c-0.207 0.529-0.508 1.026-0.903 1.491-0.404 0.469-0.842 0.868-1.314 1.197-0.475 0.336-0.958 0.577-1.45 0.723-0.498 0.144-0.939 0.151-1.324 0.021v0c-0.519-0.176-1.148-0.468-1.888-0.875-0.74-0.407-1.529-0.9-2.367-1.476-0.841-0.571-1.712-1.203-2.613-1.897-0.897-0.685-1.774-1.401-2.63-2.147z" fill="#8dbdff" data-fill-palette-color="primary"></path><path d="M14.084 138.973c0-1.757 1.424-3.182 3.182-3.182 1.757 0 3.182 1.424 3.182 3.182 0 1.757-1.424 3.182-3.182 3.181-1.757 0-3.182-1.424-3.182-3.181z" fill="#8dbdff" data-fill-palette-color="primary"></path><path d="M257.69 138.973c0-1.757 1.424-3.182 3.181-3.182 1.757 0 3.182 1.424 3.182 3.182 0 1.757-1.424 3.182-3.182 3.181-1.757 0-3.182-1.424-3.181-3.181z" fill="#8dbdff" data-fill-palette-color="primary"></path></g></svg></g></svg></g></svg></g></svg></g><defs></defs></svg><rect width="280" height="280" fill="none" stroke="none" visibility="hidden"></rect></g></svg></g></svg>